<svg width="68" height="60" viewBox="0 0 68 60" fill="none" xmlns="http://www.w3.org/2000/svg">
<path fill-rule="evenodd" clip-rule="evenodd" d="M26.334 1.09465C31.6766 -0.406386 39.4933 -0.377164 44.7217 1.26555C53.3472 3.90007 60.5389 9.91625 64.6562 17.9413C65.429 19.4211 66.0587 20.9717 66.5361 22.5712C67.1508 24.6264 68.4422 31.6977 67.8477 33.5898C67.6352 33.8204 67.6051 33.9348 67.3105 34.0243C65.6924 34.4871 65.8274 32.2701 65.7402 31.287C65.4189 27.3394 64.7629 23.7089 62.75 20.2597C59.8274 15.2516 57.6244 12.5784 52.6338 9.47649C45.7199 5.17925 37.305 4.86432 29.5703 6.61614C33.7764 6.74984 38.1881 6.93002 42.2109 8.32805C48.643 10.5636 54.7847 15.5494 57.8613 21.6884C61.0903 28.1314 61.4304 36.9058 59.0068 43.745C56.4265 51.0263 51.6028 55.4987 44.8594 58.9667C43.3648 59.7737 40.5934 60.1859 38.9902 59.6952C37.1403 59.129 37.6132 53.578 37.6104 51.9667L37.626 38.1611C37.6359 33.0779 38.625 24.7659 32.5293 22.8222C31.5149 22.4988 25.7568 21.1974 24.9844 21.5478L24.9385 21.9101C25.2915 22.813 27.3156 23.1148 28.4287 23.7187C29.2194 24.1517 29.9183 24.7357 30.4844 25.4374C34.1997 30.0604 32.042 44.5321 32.6396 50.8163C32.7672 52.1581 32.6665 56.1658 32.5098 57.5595C30.3476 60.076 28.1035 60.4147 25.0928 59.6181C22.1552 58.8408 21.2476 56.6943 19.7393 54.3876C16.5913 49.5735 13.8611 44.5685 10.624 39.8124C10.2387 39.2459 9.64542 38.109 9.16406 37.6913C8.93605 38.0435 9.00738 38.527 8.99902 39.0019C9.11076 40.1487 9.20086 41.2978 9.26855 42.4482C8.20244 41.4366 7.78771 40.9547 7.08203 39.664C4.21844 34.9196 4.07778 29.6694 4.24121 24.3134C2.54542 23.4286 1.50906 22.8582 0 21.6923C1.36185 21.1377 3.54861 20.6942 4.59375 19.8554C5.99921 18.7271 7.08788 16.0985 8.05176 14.5566C10.9118 9.98149 14.8337 6.4359 19.6504 4.03118C21.8424 2.93686 23.974 1.75768 26.334 1.09465ZM15.9443 33.4355C15.5145 33.7521 15.2251 33.9028 15.0518 34.4042C14.9267 35.8452 16.925 38.3279 17.8232 39.5468L18.0732 39.7831C18.2149 39.5425 18.2383 38.687 18.2188 38.3866C18.087 36.3694 19.0467 33.1736 15.9443 33.4355Z" fill="#000C48"/>
</svg>
