<svg width="126" height="122" viewBox="0 0 126 122" fill="none" xmlns="http://www.w3.org/2000/svg">
<path d="M53.2539 87.9489C30.1321 81.2925 14.1725 58.4672 21.1539 34.433C24.5991 22.272 32.7711 11.9963 43.846 5.90037C54.1367 0.253108 66.2764 -1.69408 77.6446 1.61402C88.2889 4.78031 97.2226 12.0704 102.46 21.8614C102.79 22.4671 103.108 23.0796 103.417 23.6985L102.435 23.7095C96.922 14.1865 87.8782 7.21854 77.2636 4.31427C66.5093 1.4608 54.605 3.61751 45.0768 9.18858C34.8754 15.1694 27.5095 25.001 24.6364 36.4699C21.9037 46.8958 23.4864 57.983 29.0279 67.2283C35.2971 77.8079 42.8374 82.4811 53.2539 87.9489Z" fill="#00093A"/>
<path d="M52.2403 19.3394C55.4818 20.6626 60.3213 24.3999 63.0734 26.585C76.0167 27.8266 92.1778 32.0375 96.2128 46.0848C101.556 64.6885 83.6209 74.5582 72.168 84.9121C68.3786 88.3383 65.7535 92.3859 63.3401 96.8289C64.4621 92.5582 65.6307 90.288 67.8451 86.6294C76.1691 73.3907 98.5627 65.0386 91.7459 45.3669C87.6305 33.4895 73.7261 30.3274 63.0353 27.5404C62.5272 27.4079 56.3117 23.6447 55.0013 22.9984C55.9222 25.0306 56.6377 26.891 57.4252 28.9665C56.3329 28.1724 53.8954 26.3141 52.6485 26.4534C52.6739 27.2932 52.7446 28.4111 52.695 29.2234L52.0134 29.0452C50.4218 26.4546 49.7223 24.7225 48.5508 21.9469L53.8649 24.7551L52.2403 19.3394Z" fill="#00093A"/>
<path d="M55.3024 30.5238C55.6623 32.3597 51.3605 36.4314 50.6437 38.3642C47.6507 46.4315 43.9739 53.7757 39.7636 61.2953C40.983 63.6721 42.4781 66.689 45.0697 67.6385C48.4184 67.5915 50.808 63.2488 53.3865 61.3702C56.0772 59.4111 58.4779 57.497 60.8616 55.1676C67.5979 55.7437 70.1975 49.9241 71.726 44.5948L72.0563 44.6659L72.7126 47.0334C71.5609 54.3167 68.0721 55.8135 61.4417 57.2879C58.4779 60.5257 56.6869 60.8351 53.4509 63.3567C51.524 65.3378 51.4516 67.7544 48.636 68.9164C42.6275 71.3965 39.2759 65.6129 37.4375 61.1992C39.2992 56.8853 42.3527 52.4915 44.2644 48.1624C47.7337 40.3063 48.5017 36.3925 55.3024 30.5238Z" fill="#00093A"/>
<path d="M102.434 23.7095L103.416 23.6985C104.601 25.9847 106.833 30.3985 106.456 32.9518C105.91 29.9426 103.903 26.4241 102.434 23.7095Z" fill="#00093A"/>
<path d="M7.42 102.389C8.22 102.389 8.9 102.502 9.46 102.729C10.02 102.956 10.5667 103.276 11.1 103.689C11.2467 103.809 11.3733 103.869 11.48 103.869C11.7467 103.869 11.92 103.469 12 102.669H12.46C12.4067 103.536 12.38 105.069 12.38 107.269H11.92C11.7733 106.402 11.64 105.782 11.52 105.409C11.4 105.022 11.2 104.656 10.92 104.309C10.52 103.789 10.0067 103.402 9.38 103.149C8.76667 102.882 8.1 102.749 7.38 102.749C6.51333 102.749 5.75333 103.036 5.1 103.609C4.46 104.182 3.96 105.002 3.6 106.069C3.24 107.122 3.06 108.362 3.06 109.789C3.06 111.242 3.25333 112.489 3.64 113.529C4.02667 114.569 4.56 115.362 5.24 115.909C5.93333 116.442 6.71333 116.709 7.58 116.709C8.24667 116.709 8.89333 116.582 9.52 116.329C10.1467 116.076 10.64 115.696 11 115.189C11.2667 114.816 11.46 114.416 11.58 113.989C11.7 113.562 11.8133 112.909 11.92 112.029H12.38C12.38 114.322 12.4067 115.922 12.46 116.829H12C11.96 116.402 11.9 116.102 11.82 115.929C11.7533 115.742 11.6533 115.649 11.52 115.649C11.4133 115.649 11.2733 115.702 11.1 115.809C10.5 116.236 9.92667 116.562 9.38 116.789C8.83333 117.002 8.17333 117.109 7.4 117.109C6.13333 117.109 5.02 116.822 4.06 116.249C3.11333 115.676 2.37333 114.849 1.84 113.769C1.32 112.676 1.06 111.376 1.06 109.869C1.06 108.402 1.32667 107.102 1.86 105.969C2.40667 104.836 3.16 103.956 4.12 103.329C5.09333 102.702 6.19333 102.389 7.42 102.389ZM25.9095 115.149C26.2295 115.976 26.6895 116.402 27.2895 116.429V116.829C26.7562 116.789 26.0429 116.769 25.1495 116.769C24.0029 116.769 23.1495 116.789 22.5895 116.829V116.429C23.0962 116.402 23.4562 116.342 23.6695 116.249C23.8962 116.142 24.0095 115.956 24.0095 115.689C24.0095 115.462 23.9295 115.149 23.7695 114.749L22.5495 111.469H17.7095L16.8895 113.589C16.6229 114.309 16.4895 114.856 16.4895 115.229C16.4895 115.642 16.6295 115.942 16.9095 116.129C17.2029 116.316 17.6429 116.416 18.2295 116.429V116.829C17.4695 116.789 16.7029 116.769 15.9295 116.769C15.3295 116.769 14.8295 116.789 14.4295 116.829V116.429C15.0962 116.269 15.6229 115.689 16.0095 114.689L20.7095 102.569H21.0295L25.9095 115.149ZM22.3895 111.069L20.1495 105.089L17.8695 111.069H22.3895ZM38.8111 102.669C38.7178 103.616 38.6711 104.469 38.6711 105.229C38.6711 105.896 38.6911 106.442 38.7311 106.869H38.2711C38.1644 105.842 38.0311 105.082 37.8711 104.589C37.7111 104.082 37.4311 103.716 37.0311 103.489C36.6311 103.249 36.0178 103.129 35.1911 103.129H34.1111V114.509C34.1111 115.069 34.1644 115.476 34.2711 115.729C34.3778 115.982 34.5644 116.156 34.8311 116.249C35.0978 116.342 35.5311 116.402 36.1311 116.429V116.829C35.4378 116.789 34.4578 116.769 33.1911 116.769C31.8578 116.769 30.8711 116.789 30.2311 116.829V116.429C30.8311 116.402 31.2644 116.342 31.5311 116.249C31.7978 116.156 31.9844 115.982 32.0911 115.729C32.1978 115.476 32.2511 115.069 32.2511 114.509V103.129H31.1711C30.3444 103.129 29.7311 103.249 29.3311 103.489C28.9311 103.716 28.6511 104.082 28.4911 104.589C28.3311 105.082 28.1978 105.842 28.0911 106.869H27.6311C27.6711 106.442 27.6911 105.896 27.6911 105.229C27.6911 104.469 27.6444 103.616 27.5511 102.669C28.6578 102.709 30.5378 102.729 33.1911 102.729C35.8311 102.729 37.7044 102.709 38.8111 102.669ZM47.613 102.389C48.413 102.389 49.093 102.502 49.653 102.729C50.213 102.956 50.7596 103.276 51.293 103.689C51.4396 103.809 51.5663 103.869 51.673 103.869C51.9396 103.869 52.113 103.469 52.193 102.669H52.653C52.5996 103.536 52.573 105.069 52.573 107.269H52.113C51.9663 106.402 51.833 105.782 51.713 105.409C51.593 105.022 51.393 104.656 51.113 104.309C50.713 103.789 50.1996 103.402 49.573 103.149C48.9596 102.882 48.293 102.749 47.573 102.749C46.7063 102.749 45.9463 103.036 45.293 103.609C44.653 104.182 44.153 105.002 43.793 106.069C43.433 107.122 43.253 108.362 43.253 109.789C43.253 111.242 43.4463 112.489 43.833 113.529C44.2196 114.569 44.753 115.362 45.433 115.909C46.1263 116.442 46.9063 116.709 47.773 116.709C48.4396 116.709 49.0863 116.582 49.713 116.329C50.3396 116.076 50.833 115.696 51.193 115.189C51.4596 114.816 51.653 114.416 51.773 113.989C51.893 113.562 52.0063 112.909 52.113 112.029H52.573C52.573 114.322 52.5996 115.922 52.653 116.829H52.193C52.153 116.402 52.093 116.102 52.013 115.929C51.9463 115.742 51.8463 115.649 51.713 115.649C51.6063 115.649 51.4663 115.702 51.293 115.809C50.693 116.236 50.1196 116.562 49.573 116.789C49.0263 117.002 48.3663 117.109 47.593 117.109C46.3263 117.109 45.213 116.822 44.253 116.249C43.3063 115.676 42.5663 114.849 42.033 113.769C41.513 112.676 41.253 111.376 41.253 109.869C41.253 108.402 41.5196 107.102 42.053 105.969C42.5996 104.836 43.353 103.956 44.313 103.329C45.2863 102.702 46.3863 102.389 47.613 102.389ZM69.0625 103.069C68.5825 103.096 68.2292 103.149 68.0025 103.229C67.7892 103.309 67.6425 103.462 67.5625 103.689C67.4825 103.916 67.4425 104.282 67.4425 104.789V114.709C67.4425 115.216 67.4825 115.582 67.5625 115.809C67.6425 116.036 67.7892 116.189 68.0025 116.269C68.2292 116.349 68.5825 116.402 69.0625 116.429V116.829C68.5025 116.789 67.6492 116.769 66.5025 116.769C65.4225 116.769 64.5758 116.789 63.9625 116.829V116.429C64.4425 116.402 64.7892 116.349 65.0025 116.269C65.2292 116.189 65.3825 116.036 65.4625 115.809C65.5425 115.582 65.5825 115.216 65.5825 114.709V109.909H59.0825V114.709C59.0825 115.216 59.1225 115.582 59.2025 115.809C59.2825 116.036 59.4292 116.189 59.6425 116.269C59.8692 116.349 60.2225 116.402 60.7025 116.429V116.829C60.0892 116.789 59.2425 116.769 58.1625 116.769C57.0158 116.769 56.1625 116.789 55.6025 116.829V116.429C56.0825 116.402 56.4292 116.349 56.6425 116.269C56.8692 116.189 57.0225 116.036 57.1025 115.809C57.1825 115.582 57.2225 115.216 57.2225 114.709V104.789C57.2225 104.282 57.1825 103.916 57.1025 103.689C57.0225 103.462 56.8692 103.309 56.6425 103.229C56.4292 103.149 56.0825 103.096 55.6025 103.069V102.669C56.1625 102.709 57.0158 102.729 58.1625 102.729C59.2292 102.729 60.0758 102.709 60.7025 102.669V103.069C60.2225 103.096 59.8692 103.149 59.6425 103.229C59.4292 103.309 59.2825 103.462 59.2025 103.689C59.1225 103.916 59.0825 104.282 59.0825 104.789V109.509H65.5825V104.789C65.5825 104.282 65.5425 103.916 65.4625 103.689C65.3825 103.462 65.2292 103.309 65.0025 103.229C64.7892 103.149 64.4425 103.096 63.9625 103.069V102.669C64.5758 102.709 65.4225 102.729 66.5025 102.729C67.6492 102.729 68.5025 102.709 69.0625 102.669V103.069ZM89.6797 115.829C89.373 116.282 89.0664 116.609 88.7597 116.809C88.453 117.009 88.0464 117.109 87.5397 117.109C86.993 117.109 86.5397 116.949 86.1797 116.629C85.833 116.309 85.573 115.749 85.3997 114.949L84.9597 112.949C84.7997 112.256 84.6464 111.722 84.4997 111.349C84.3664 110.976 84.1597 110.676 83.8797 110.449C83.5997 110.222 83.2064 110.109 82.6997 110.109H80.7997V114.709C80.7997 115.216 80.8397 115.582 80.9197 115.809C80.9997 116.036 81.1464 116.189 81.3597 116.269C81.5864 116.349 81.9397 116.402 82.4197 116.429V116.829C81.8064 116.789 80.9597 116.769 79.8797 116.769C78.733 116.769 77.8797 116.789 77.3197 116.829V116.429C77.7997 116.402 78.1464 116.349 78.3597 116.269C78.5864 116.189 78.7397 116.036 78.8197 115.809C78.8997 115.582 78.9397 115.216 78.9397 114.709V104.789C78.9397 104.282 78.8997 103.916 78.8197 103.689C78.7397 103.462 78.5864 103.309 78.3597 103.229C78.1464 103.149 77.7997 103.096 77.3197 103.069V102.669C77.8797 102.709 78.693 102.729 79.7597 102.729L81.9197 102.709C82.173 102.696 82.4597 102.689 82.7797 102.689C84.3264 102.689 85.513 103.016 86.3397 103.669C87.1797 104.309 87.5997 105.142 87.5997 106.169C87.5997 106.689 87.473 107.216 87.2197 107.749C86.9797 108.269 86.5664 108.742 85.9797 109.169C85.4064 109.582 84.653 109.862 83.7197 110.009L83.9597 110.049C84.8397 110.196 85.4797 110.462 85.8797 110.849C86.2797 111.236 86.573 111.849 86.7597 112.689L87.2597 114.729C87.393 115.342 87.533 115.769 87.6797 116.009C87.8264 116.249 88.0264 116.369 88.2797 116.369C88.5064 116.369 88.693 116.309 88.8397 116.189C88.9997 116.069 89.1797 115.876 89.3797 115.609L89.6797 115.829ZM82.2797 103.069C81.8664 103.069 81.553 103.116 81.3397 103.209C81.1397 103.302 80.9997 103.469 80.9197 103.709C80.8397 103.949 80.7997 104.309 80.7997 104.789V109.709H82.1397C83.4597 109.709 84.3664 109.416 84.8597 108.829C85.353 108.242 85.5997 107.429 85.5997 106.389C85.5997 105.296 85.3397 104.469 84.8197 103.909C84.2997 103.349 83.453 103.069 82.2797 103.069ZM96.1884 103.069C95.7084 103.096 95.3551 103.149 95.1284 103.229C94.9151 103.309 94.7684 103.462 94.6884 103.689C94.6084 103.916 94.5684 104.282 94.5684 104.789V114.709C94.5684 115.216 94.6084 115.582 94.6884 115.809C94.7684 116.036 94.9151 116.189 95.1284 116.269C95.3551 116.349 95.7084 116.402 96.1884 116.429V116.829C95.5751 116.789 94.7284 116.769 93.6484 116.769C92.5018 116.769 91.6484 116.789 91.0884 116.829V116.429C91.5684 116.402 91.9151 116.349 92.1284 116.269C92.3551 116.189 92.5084 116.036 92.5884 115.809C92.6684 115.582 92.7084 115.216 92.7084 114.709V104.789C92.7084 104.282 92.6684 103.916 92.5884 103.689C92.5084 103.462 92.3551 103.309 92.1284 103.229C91.9151 103.149 91.5684 103.096 91.0884 103.069V102.669C91.6484 102.709 92.5018 102.729 93.6484 102.729C94.7151 102.729 95.5618 102.709 96.1884 102.669V103.069ZM104.126 102.669C106.486 102.669 108.252 103.262 109.426 104.449C110.599 105.622 111.186 107.336 111.186 109.589C111.186 111.042 110.899 112.316 110.326 113.409C109.752 114.502 108.919 115.349 107.826 115.949C106.746 116.536 105.452 116.829 103.946 116.829L102.786 116.809C102.039 116.782 101.492 116.769 101.146 116.769C100.052 116.769 99.2258 116.789 98.6658 116.829V116.429C99.1458 116.402 99.4924 116.349 99.7058 116.269C99.9324 116.189 100.086 116.036 100.166 115.809C100.246 115.582 100.286 115.216 100.286 114.709V104.789C100.286 104.282 100.246 103.916 100.166 103.689C100.086 103.462 99.9324 103.309 99.7058 103.229C99.4924 103.149 99.1458 103.096 98.6658 103.069V102.669C99.1324 102.709 99.7791 102.729 100.606 102.729L102.306 102.709C103.212 102.682 103.819 102.669 104.126 102.669ZM103.626 103.029C103.212 103.029 102.899 103.076 102.686 103.169C102.486 103.262 102.346 103.429 102.266 103.669C102.186 103.909 102.146 104.269 102.146 104.749V114.749C102.146 115.229 102.186 115.589 102.266 115.829C102.346 116.069 102.486 116.236 102.686 116.329C102.899 116.422 103.219 116.469 103.646 116.469C105.059 116.469 106.172 116.216 106.986 115.709C107.799 115.189 108.366 114.436 108.686 113.449C109.019 112.462 109.186 111.202 109.186 109.669C109.186 108.136 109.006 106.889 108.646 105.929C108.286 104.956 107.699 104.229 106.886 103.749C106.086 103.269 104.999 103.029 103.626 103.029ZM123.983 114.269C123.983 115.029 124.03 115.882 124.123 116.829C123.216 116.789 121.69 116.769 119.543 116.769C116.983 116.769 115.05 116.789 113.743 116.829V116.429C114.223 116.402 114.57 116.349 114.783 116.269C115.01 116.189 115.163 116.036 115.243 115.809C115.323 115.582 115.363 115.216 115.363 114.709V104.789C115.363 104.282 115.323 103.916 115.243 103.689C115.163 103.462 115.01 103.309 114.783 103.229C114.57 103.149 114.223 103.096 113.743 103.069V102.669C115.05 102.709 116.983 102.729 119.543 102.729C121.503 102.729 122.896 102.709 123.723 102.669C123.63 103.549 123.583 104.336 123.583 105.029C123.583 105.549 123.603 105.962 123.643 106.269H123.183C123.09 105.402 122.97 104.762 122.823 104.349C122.676 103.922 122.43 103.616 122.083 103.429C121.736 103.229 121.21 103.129 120.503 103.129H118.843C118.363 103.129 118.01 103.169 117.783 103.249C117.57 103.316 117.423 103.462 117.343 103.689C117.263 103.916 117.223 104.282 117.223 104.789V109.509H118.543C119.01 109.509 119.37 109.402 119.623 109.189C119.876 108.962 120.043 108.702 120.123 108.409C120.216 108.102 120.29 107.722 120.343 107.269L120.403 106.869H120.863C120.823 107.429 120.803 108.056 120.803 108.749V109.709C120.803 110.389 120.843 111.336 120.923 112.549H120.463C120.45 112.456 120.41 112.136 120.343 111.589C120.276 111.029 120.09 110.609 119.783 110.329C119.49 110.049 119.076 109.909 118.543 109.909H117.223V114.709C117.223 115.216 117.263 115.582 117.343 115.809C117.423 116.036 117.57 116.189 117.783 116.269C118.01 116.336 118.363 116.369 118.843 116.369H120.303C121.13 116.369 121.756 116.262 122.183 116.049C122.623 115.822 122.943 115.469 123.143 114.989C123.343 114.496 123.49 113.776 123.583 112.829H124.043C124.003 113.189 123.983 113.669 123.983 114.269Z" fill="#00093A"/>
</svg>
