<svg width="119" height="105" viewBox="0 0 119 105" fill="none" xmlns="http://www.w3.org/2000/svg">
<path fill-rule="evenodd" clip-rule="evenodd" d="M45.9443 1.9091C55.2657 -0.709745 68.9036 -0.657265 78.0254 2.2089C93.0741 6.8053 105.621 17.3005 112.805 31.3017C114.153 33.8835 115.251 36.5882 116.084 39.3788C117.156 42.9638 119.41 55.3039 118.372 58.6044C118.002 59.0066 117.949 59.2061 117.436 59.3622C114.612 60.1696 114.847 56.3009 114.695 54.5859C114.135 47.6984 112.99 41.3644 109.479 35.3466C104.38 26.6092 100.536 21.9449 91.8291 16.5331C79.7667 9.03583 65.0853 8.48655 51.5908 11.5429C58.9292 11.7762 66.6269 12.0909 73.6455 14.5302C84.8672 18.4305 95.5826 27.1284 100.95 37.8388C106.584 49.0797 107.177 64.3889 102.948 76.3212C98.4463 89.0248 90.0308 96.8272 78.2656 102.878C75.6581 104.286 70.8226 105.005 68.0254 104.149C64.798 103.161 65.6241 93.4771 65.6191 90.6659L65.6465 66.579C65.6638 57.7104 67.388 43.2095 56.7529 39.8183C54.983 39.254 44.9374 36.9823 43.5898 37.5937L43.5098 38.2265C44.1257 39.8019 47.6578 40.328 49.5996 41.3818C50.9791 42.1372 52.197 43.1566 53.1846 44.3808C59.6667 52.4462 55.9027 77.6938 56.9453 88.6581C57.1679 90.9993 56.9932 97.9928 56.7197 100.424C52.9475 104.814 49.032 105.405 43.7793 104.016C38.6537 102.66 37.0711 98.9141 34.4395 94.8896C28.9471 86.4904 24.1839 77.7578 18.5361 69.4599C17.8638 68.4714 16.8271 66.4882 15.9873 65.7597C15.5896 66.374 15.7148 67.2173 15.7002 68.0458C15.8951 70.0467 16.0518 72.0514 16.1699 74.0585C14.3099 72.2936 13.5867 71.453 12.3555 69.2011C7.35947 60.9237 7.11428 51.7643 7.39941 42.4198C4.44082 40.8762 2.6337 39.8797 0.000976562 37.8456C2.37722 36.878 6.19247 36.1051 8.01562 34.6415C10.4677 32.673 12.3662 28.0875 14.0479 25.3974C19.0377 17.415 25.8804 11.2287 34.2842 7.03312C38.1085 5.12391 41.827 3.06584 45.9443 1.9091ZM31.7852 66.9726C31.5554 63.4532 33.2306 57.8772 27.8184 58.3339C27.0682 58.8865 26.5632 59.1493 26.2607 60.0243C26.0425 62.5383 29.5285 66.8704 31.0957 68.997L31.5322 69.4081C31.7793 68.9883 31.8192 67.4966 31.7852 66.9726Z" fill="white"/>
</svg>
