<svg width="123" height="120" viewBox="0 0 123 120" fill="none" xmlns="http://www.w3.org/2000/svg">
<path d="M51.4141 87.9489C28.2922 81.2925 12.3326 58.4672 19.3141 34.433C22.7593 22.272 30.9313 11.9963 42.0061 5.90037C52.2968 0.253108 64.4365 -1.69408 75.8048 1.61402C86.449 4.78031 95.3828 12.0704 100.62 21.8614C100.95 22.4671 101.268 23.0796 101.577 23.6985L100.595 23.7095C95.0821 14.1865 86.0384 7.21854 75.4238 4.31427C64.6694 1.4608 52.7651 3.61751 43.237 9.18858C33.0356 15.1694 25.6697 25.001 22.7965 36.4699C20.0639 46.8958 21.6466 57.983 27.188 67.2283C33.4573 77.8079 40.9976 82.4811 51.4141 87.9489Z" fill="#00093A"/>
<path d="M50.4004 19.3394C53.642 20.6626 58.4814 24.3999 61.2335 26.585C74.1768 27.8266 90.338 32.0375 94.373 46.0848C99.7163 64.6885 81.7811 74.5582 70.3281 84.9121C66.5387 88.3383 63.9136 92.3859 61.5003 96.8289C62.6223 92.5582 63.7909 90.288 66.0053 86.6294C74.3293 73.3907 96.7228 65.0386 89.9061 45.3669C85.7907 33.4895 71.8862 30.3274 61.1954 27.5404C60.6873 27.4079 54.4719 23.6447 53.1614 22.9984C54.0823 25.0306 54.7979 26.891 55.5854 28.9665C54.493 28.1724 52.0555 26.3141 50.8086 26.4534C50.834 27.2932 50.9047 28.4111 50.8552 29.2234L50.1735 29.0452C48.582 26.4546 47.8825 24.7225 46.7109 21.9469L52.025 24.7551L50.4004 19.3394Z" fill="#00093A"/>
<path d="M53.4625 30.5238C53.8224 32.3597 49.5207 36.4314 48.8039 38.3642C45.8109 46.4315 42.1341 53.7757 37.9238 61.2953C39.1432 63.6721 40.6382 66.689 43.2298 67.6385C46.5785 67.5915 48.9682 63.2488 51.5467 61.3702C54.2374 59.4111 56.638 57.497 59.0218 55.1676C65.758 55.7437 68.3577 49.9241 69.8862 44.5948L70.2164 44.6659L70.8727 47.0334C69.7211 54.3167 66.2323 55.8135 59.6018 57.2879C56.638 60.5257 54.8471 60.8351 51.611 63.3567C49.6841 65.3378 49.6117 67.7544 46.7961 68.9164C40.7877 71.3965 37.4361 65.6129 35.5977 61.1992C37.4593 56.8853 40.5129 52.4915 42.4245 48.1624C45.8939 40.3063 46.6619 36.3925 53.4625 30.5238Z" fill="#00093A"/>
<path d="M100.594 23.7095L101.576 23.6985C102.762 25.9847 104.993 30.3985 104.616 32.9518C104.07 29.9426 102.063 26.4241 100.594 23.7095Z" fill="#00093A"/>
<path d="M90.0382 101.278C91.8915 101.291 93.7449 101.286 95.5997 101.265C95.0474 101.425 94.232 101.566 93.9281 101.983C93.7029 103.293 93.7599 106.44 93.7775 107.88C93.8033 109.906 93.7083 112.538 93.8345 114.524C94.2429 114.738 94.7069 114.999 95.1248 115.176C93.5048 115.218 91.8834 115.247 90.262 115.265L86.9637 115.261C86.1428 114.271 84.3383 111.637 83.664 110.531C83.4727 110.37 83.0927 109.757 82.9299 109.515L81.0508 109.425L81.1946 109.063C83.5527 108.999 85.0452 109.854 86.5214 107.451C86.8863 107.69 86.9488 107.722 87.1116 108.121C86.6191 108.435 85.1754 109.09 85.0153 109.355L85.0289 109.519C86.71 111.204 87.6882 114.426 90.2525 115.115C90.7681 114.986 91.1562 114.937 91.5456 114.579C91.9431 113.9 91.8319 103.355 91.7735 101.822L90.0382 101.278Z" fill="#00093A"/>
<path d="M81.1946 109.063C83.5527 108.999 85.0452 109.854 86.5214 107.451C86.8863 107.69 86.9488 107.722 87.1116 108.121C86.6191 108.435 85.1754 109.09 85.0153 109.355L85.0289 109.519C84.6246 109.647 84.3464 109.74 83.9218 109.811L83.7888 109.675C84.0032 109.458 84.1918 109.448 84.4902 109.376C84.0357 109.359 83.645 109.289 83.261 109.499C83.5215 110.049 83.8403 110.033 83.664 110.531C83.4727 110.37 83.0927 109.757 82.9299 109.514L81.0508 109.425L81.1946 109.063Z" fill="#00093A"/>
<path d="M11.5577 114.265C11.3575 114.399 11.154 114.528 10.9471 114.651C7.71875 116.555 2.83674 115.182 0.959891 111.92C-0.00899409 110.205 -0.256336 108.174 0.27227 106.276C0.912811 104.005 2.24219 102.991 4.1531 101.9L4.36056 102.233C-1.0023 106.812 4.23681 117.431 11.2955 113.896L11.5577 114.265Z" fill="#00093A"/>
<path d="M22.377 100.829C23.4557 103.684 24.552 106.533 25.6657 109.375C26.2949 110.99 26.8746 112.68 27.6928 114.206C27.9874 114.755 28.3768 114.959 28.9073 115.239C27.1955 115.237 24.8085 115.173 23.1516 115.276C24.2343 115.012 25.5019 114.816 25.0469 113.187C24.9354 112.787 24.618 112.054 24.3638 111.735L24.3148 111.517C23.7934 109.533 22.5698 106.983 21.861 105.026C21.5529 104.176 21.079 103.29 20.911 102.402L20.9695 102.272L20.7188 101.899L22.377 100.829Z" fill="#00093A"/>
<path d="M57.6523 101.282C58.3685 101.276 62.0523 101.194 62.443 101.39C62.1486 101.506 61.3563 101.828 61.3169 102.151C61.0944 103.946 61.2111 106.32 61.2314 108.111L63.8568 108.111L64.4443 108.485L61.2314 108.465C61.2219 110.453 61.1677 112.629 61.2871 114.6C61.8203 114.834 62.5231 115.082 63.0794 115.296C61.5014 115.165 59.3726 115.206 57.7137 115.147L59.2614 114.604C59.3631 113.073 59.4595 102.837 59.1486 101.922C58.771 101.582 58.1561 101.442 57.6523 101.282Z" fill="#00093A"/>
<path d="M44.551 104.96C45.1723 104.542 45.7777 104.257 46.5209 104.133C46.2802 104.925 46.084 105.561 46.0196 106.396C45.6478 111.211 49.2421 115.889 54.3827 114.24L54.3633 114.853C54.2587 114.906 54.1517 114.954 54.0424 114.997C52.1823 115.747 49.8764 115.601 48.0555 114.804C46.3068 114.049 44.931 112.628 44.2324 110.856C43.4474 108.831 43.6935 106.896 44.551 104.96Z" fill="#00093A"/>
<path d="M36.2021 101.292L37.8567 101.274L37.4898 101.597L37.2041 101.691C37.0358 102.576 37.1894 103.436 37.1387 104.269C37.0259 106.121 37.297 109.432 37.1119 111.153C37.1917 113.619 36.434 114.564 39.0877 115.288C37.7007 115.272 35.8732 115.253 34.4661 115.26C34.3168 115.261 34.3837 114.811 33.9805 115.174C34.5422 114.797 34.9979 114.665 35.1014 113.947C35.3098 110.251 35.056 105.571 35.1785 101.71C35.7645 101.687 35.647 101.65 36.2021 101.292Z" fill="#00093A"/>
<path d="M37.1119 111.153C37.1917 113.619 36.434 114.565 39.0877 115.288C37.7007 115.272 35.8732 115.253 34.4661 115.26C34.3168 115.261 34.3837 114.811 33.9805 115.174C34.5422 114.797 34.9979 114.665 35.1014 113.947C35.2056 115.116 36.2241 114.403 36.8423 114.631L36.6276 114.124C37.2967 113.356 37.0419 112.344 37.1119 111.153Z" fill="#00093A"/>
<path d="M67.1367 101.287C67.9969 101.285 71.3143 101.214 71.8882 101.362C71.5544 101.765 70.9195 101.62 70.8299 102.151C70.625 103.401 70.7458 104.783 70.7349 106.069C70.7132 108.549 70.6861 111.036 70.7295 113.515C70.7526 114.851 71.3306 114.873 72.4662 115.238C71.5056 115.246 68.1747 115.331 67.404 115.224C68.0119 114.813 68.693 114.746 68.7377 114.09C68.8191 112.892 68.9277 109.537 68.7785 108.468L68.8693 108.18L68.8544 108.016C68.6916 106.278 69.271 103.336 68.4067 101.827C68.2791 101.604 67.4447 101.385 67.1367 101.287Z" fill="#00093A"/>
<path d="M111.81 114.279C111.986 112.976 112.107 102.914 111.81 102.045C111.483 101.61 111.191 101.628 110.659 101.412C110.992 101.142 114.99 101.273 115.64 101.281L115.761 101.629C115.156 101.625 114.467 101.604 113.87 101.632C113.87 102.824 113.931 107.328 113.767 108.202L113.847 108.398C113.844 109.376 113.715 114.4 114.054 114.879L114.226 114.932L113.936 115.116L113.931 115.239C112.957 115.304 111.433 115.253 110.418 115.25C110.908 114.972 111.358 114.617 111.81 114.279Z" fill="#00093A"/>
<path d="M78.167 102.206C78.555 101.578 78.3787 101.664 78.9729 101.4C79.4872 101.425 79.7314 101.61 80.171 101.862C80.2022 102.944 80.0055 108.409 80.3541 108.862L81.194 109.063L81.0502 109.425L80.2945 109.507L80.1954 109.651C80.1316 110.419 80.0041 113.805 80.4288 114.732C80.4586 114.798 81.0488 114.916 81.2239 115.208C80.4763 115.357 77.4398 115.238 76.5117 115.22C77.0219 115.042 77.5171 114.912 77.9336 114.572C78.4058 113.646 78.1792 104.024 78.167 102.206Z" fill="#00093A"/>
<path d="M99.3252 101.798C99.3035 103.823 99.0524 113.4 99.4636 114.468C99.549 114.724 99.5979 114.852 99.6413 115.125L99.4798 115.26C98.7092 115.274 96.6496 115.315 96.0078 115.13C96.3212 114.951 96.6699 114.772 96.9549 114.549C97.6902 113.975 97.1258 104.435 97.351 102.816C98.0729 101.905 98.1841 102.077 99.3252 101.798Z" fill="#00093A"/>
<path d="M105.934 103.792C106.181 103.528 106.775 103.134 107.117 102.812C108.636 104.139 109.253 105.454 109.397 107.48C109.709 111.902 106.471 115.098 102.134 115.23C101.238 115.257 100.366 115.274 99.4772 115.26L99.6387 115.125C99.5953 114.852 99.5464 114.724 99.4609 114.468C99.5179 114.485 99.5763 114.503 99.6333 114.519C102.681 115.403 106.235 114.86 107.021 111.293C107.594 108.693 107.313 106.097 105.934 103.792Z" fill="#00093A"/>
<path d="M78.165 102.206C77.7742 101.73 77.6426 101.707 77.0511 101.574L76.8828 101.35C77.3373 101.1 83.7278 101.367 84.7088 101.394C88.4182 101.495 90.3245 105.562 87.109 108.121C86.9461 107.722 86.8837 107.69 86.5187 107.451C87.1876 105.198 86.7684 102.32 84.0806 101.807C83.2529 101.649 80.846 101.457 80.169 101.862C79.7294 101.61 79.4851 101.425 78.9709 101.4C78.3766 101.664 78.553 101.578 78.165 102.206Z" fill="#00093A"/>
<path d="M44.5508 104.96C44.7106 104.666 44.8945 104.385 45.1003 104.121C48.05 100.303 53.2511 100.134 56.9285 103.028C55.9044 104.249 54.9807 105.552 54.1666 106.922C56.0168 100.668 49.2473 99.6855 46.5207 104.133C45.7775 104.257 45.1721 104.542 44.5508 104.96Z" fill="#00093A"/>
<path d="M8.02344 101.036C10.0662 101.131 11.5309 101.612 13.0156 103.045L10.3486 106.727C11.1602 104.311 10.8346 102.189 8.04094 101.572L8.02344 101.036Z" fill="#00093A"/>
<path d="M16.2734 112.039C16.9814 110.46 20.1408 102.697 20.7196 101.899L20.9704 102.272L20.9119 102.402C19.5335 105.067 18.1156 108.68 16.9575 111.472C19.285 111.464 22.0232 111.393 24.3157 111.517L24.3647 111.735C23.078 112.205 17.4765 111.417 16.7025 112.041L16.6163 112.276L16.2734 112.039Z" fill="#00093A"/>
<path d="M122.317 111.088C121.985 112.536 121.548 114.038 121.153 115.477C119.897 115.213 118.948 115.263 117.676 115.256L117.786 114.882C120.081 114.564 121.216 112.988 122.317 111.088Z" fill="#00093A"/>
<path d="M39.2578 101.269C40.4477 101.277 41.5218 101.304 42.7065 101.179C42.266 102.651 41.8084 104.112 41.4772 105.613C41.4146 104.088 41.4561 103.596 40.6286 102.261C40.2423 102.072 39.7267 101.798 39.3304 101.667L39.2578 101.269Z" fill="#00093A"/>
<path d="M115.641 101.281L120.859 101.249C121.102 102.417 121.324 103.443 121.64 104.592C119.512 101.821 119.094 101.719 115.761 101.629L115.641 101.281Z" fill="#00093A"/>
<path d="M30.2303 101.244C31.0824 101.274 32.0182 101.265 32.8776 101.274L32.9799 101.711C30.8022 102.359 30.3473 103.708 29.4844 105.635C29.6366 104.302 29.967 102.576 30.2303 101.244Z" fill="#00093A"/>
<path d="M117.137 108.096C118.325 107.904 118.816 107.742 119.542 106.728C119.618 106.622 119.692 106.516 119.763 106.408C119.72 107.632 119.698 108.857 119.7 110.081C118.96 108.826 118.694 108.627 117.251 108.406L117.137 108.096Z" fill="#00093A"/>
<path d="M13.9258 115.243C15.4812 114.298 15.6054 113.736 16.2755 112.039L16.6183 112.276C16.2052 113.513 15.8013 114.412 17.1996 115.114L17.335 115.181L17.2648 115.312C16.2846 115.203 14.9409 115.241 13.9258 115.243Z" fill="#00093A"/>
<path d="M63.8594 108.111C64.9122 108.103 67.9691 108.027 68.87 108.18L68.7791 108.468C67.3789 108.505 65.8579 108.48 64.4469 108.485L63.8594 108.111Z" fill="#00093A"/>
<path d="M114.225 114.933C115.436 114.843 116.571 114.868 117.784 114.882L117.674 115.256C116.426 115.262 115.178 115.256 113.93 115.239L113.935 115.116L114.225 114.933Z" fill="#00093A"/>
<path d="M113.766 108.202C114.62 108.042 116.235 108.054 117.135 108.096L117.249 108.406L113.846 108.398L113.766 108.202Z" fill="#00093A"/>
<path d="M54.3827 114.24C54.844 114.008 56.1391 113.17 56.3918 113.15C55.8324 113.968 55.1995 114.351 54.3633 114.853L54.3827 114.24Z" fill="#00093A"/>
<path d="M11.2969 113.896C11.699 113.604 12.0666 113.236 12.5006 113.191C12.4227 113.578 11.8686 114.019 11.559 114.265L11.2969 113.896Z" fill="#00093A"/>
<path d="M108.192 118.057C108.637 118.526 108.686 118.719 108.607 119.364L108.295 119.562C108.077 119.167 108.177 118.568 108.192 118.057Z" fill="#00093A"/>
</svg>
