<svg width="87" height="97" viewBox="0 0 87 97" fill="white" xmlns="http://www.w3.org/2000/svg">
    <path d="M33.7539 87.9489C10.6321 81.2925 -5.32751 58.4672 1.65392 34.433C5.09911 22.272 13.2711 11.9963 24.346 5.90037C34.6367 0.253108 46.7764 -1.69408 58.1446 1.61402C68.7889 4.78031 77.7226 12.0704 82.9601 21.8614C83.2903 22.4671 83.6078 23.0796 83.9169 23.6985L82.9346 23.7095C77.422 14.1865 68.3782 7.21854 57.7636 4.31427C47.0093 1.4608 35.105 3.61751 25.5768 9.18858C15.3754 15.1694 8.00955 25.001 5.13636 36.4699C2.40374 46.8958 3.98641 57.983 9.52786 67.2283C15.7971 77.8079 23.3374 82.4811 33.7539 87.9489Z" fill="#FFFFFF"/>
    <path d="M32.7403 19.3394C35.9818 20.6626 40.8213 24.3999 43.5734 26.585C56.5167 27.8266 72.6778 32.0375 76.7128 46.0848C82.0561 64.6885 64.1209 74.5582 52.668 84.9121C48.8786 88.3383 46.2535 92.3859 43.8401 96.8289C44.9621 92.5582 46.1307 90.288 48.3451 86.6294C56.6691 73.3907 79.0627 65.0386 72.2459 45.3669C68.1305 33.4895 54.2261 30.3274 43.5353 27.5404C43.0272 27.4079 36.8117 23.6447 35.5013 22.9984C36.4222 25.0306 37.1377 26.891 37.9252 28.9665C36.8329 28.1724 34.3954 26.3141 33.1485 26.4534C33.1739 27.2932 33.2446 28.4111 33.195 29.2234L32.5134 29.0452C30.9218 26.4546 30.2223 24.7225 29.0508 21.9469L34.3649 24.7551L32.7403 19.3394Z" fill="#FFFFFF"/>
    <path d="M35.8024 30.5238C36.1623 32.3597 31.8605 36.4314 31.1437 38.3642C28.1507 46.4315 24.4739 53.7757 20.2636 61.2953C21.483 63.6721 22.9781 66.689 25.5697 67.6385C28.9184 67.5915 31.308 63.2488 33.8865 61.3702C36.5772 59.4111 38.9779 57.497 41.3616 55.1676C48.0979 55.7437 50.6975 49.9241 52.226 44.5948L52.5563 44.6659L53.2126 47.0334C52.0609 54.3167 48.5721 55.8135 41.9417 57.2879C38.9779 60.5257 37.1869 60.8351 33.9509 63.3567C32.024 65.3378 31.9516 67.7544 29.136 68.9164C23.1275 71.3965 19.7759 65.6129 17.9375 61.1992C19.7992 56.8853 22.8527 52.4915 24.7644 48.1624C28.2337 40.3063 29.0017 36.3925 35.8024 30.5238Z" fill="#FFFFFF"/>
    <path d="M82.9336 23.7095L83.9159 23.6985C85.1014 25.9847 87.3327 30.3985 86.9559 32.9518C86.4097 29.9426 84.4028 26.4241 82.9336 23.7095Z" fill="#FFFFFF"/>
</svg>
