<svg width="123" height="100" viewBox="0 0 123 100" fill="none" xmlns="http://www.w3.org/2000/svg">
<g clip-path="url(#clip0_30024_12584)">
<path d="M58.6385 0.155785C62.343 -0.301615 68.146 0.313589 71.7591 1.15213C82.7573 3.74131 92.3023 10.5381 98.3468 20.0845C102.055 26.0603 105.182 35.5702 104.687 42.9825C104.584 44.5343 101.953 45.0896 101.617 42.9868C101.406 41.6804 101.406 40.3656 101.268 39.0282C100.982 36.1135 100.344 33.2441 99.3685 30.4826C96.3008 21.8482 89.567 14.6477 81.3014 10.7494C72.8296 6.72574 63.1041 6.23931 54.2721 9.39728C55.9008 9.33174 57.5965 9.01234 59.2563 8.98954C64.4229 8.91858 69.477 10.0607 74.1688 12.1736C82.8997 16.1052 89.472 22.8457 92.8762 31.8205C96.2085 40.6599 95.9398 50.4542 92.1273 59.0977C88.5372 67.0604 81.7369 73.9316 73.5066 77.0319C72.1363 77.5867 70.4159 77.8616 68.9587 77.8213C65.5396 77.7267 65.2614 75.7304 65.2994 72.8153C65.3143 71.6739 65.2967 70.3232 65.2981 69.1607L65.3103 49.6009C65.3143 45.5376 65.644 40.6023 64.8612 36.6763C63.2534 28.612 55.1701 28.6158 48.9431 28.397C48.9615 28.5014 49.1705 29.5082 49.2188 29.5192C51.7293 30.0922 53.3752 30.0253 55.3575 32.0967C56.7017 33.5014 58.0934 35.8342 58.3429 37.8629C58.8715 42.1621 58.665 46.7555 58.6655 51.1066L58.673 75.402C57.2508 76.4152 55.715 77.3414 54.2302 78.2662C52.3591 78.0301 47.8477 76.9783 45.9851 76.4823C45.0063 75.2765 41.942 70.1315 40.9933 68.5805L33.2097 55.9248C31.7348 53.5084 30.0843 50.5979 28.5146 48.293C28.5043 50.7096 28.4778 53.1259 28.4351 55.5421C27.5332 54.0534 26.5526 52.8346 25.7388 51.2054C22.3682 44.4586 21.7993 38.9733 22.4605 31.6985C20.8384 30.8658 18.4396 29.5048 16.9349 28.5206C18.9564 27.4739 21.4596 26.8374 23.6635 26.1538C25.1671 22.0369 26.5133 19.3722 29.3049 15.9778C37.2041 6.37336 46.4146 1.47113 58.6385 0.155785ZM39.5292 50.923L40.4799 52.3542C40.4814 50.7613 40.4943 49.1604 40.4712 47.5675C40.4441 45.6992 40.3647 43.9628 38.2823 43.4007C33.9551 44.4126 38.1101 48.8058 39.5292 50.923Z" fill="#00093A"/>
<path d="M90.0367 85.425C91.8901 85.4379 93.7435 85.4336 95.5982 85.4119C95.046 85.572 94.2306 85.7131 93.9266 86.1298C93.7014 87.4407 93.7584 90.5874 93.776 92.0277C93.8018 94.0534 93.7068 96.6851 93.833 98.6708C94.2414 98.8849 94.7054 99.1461 95.1233 99.3237C93.5033 99.3651 91.8819 99.3945 90.2606 99.412L86.9622 99.4084C86.1413 98.4181 84.3368 95.7845 83.6625 94.6779C83.4712 94.5177 83.0913 93.904 82.9285 93.6618L81.0493 93.5719L81.1931 93.2106C83.5512 93.1462 85.0437 94.0008 86.5199 91.598C86.8849 91.8375 86.9473 91.8689 87.1101 92.2684C86.6176 92.5824 85.174 93.2376 85.0139 93.5018L85.0274 93.6661C86.7085 95.3511 87.6867 98.5731 90.2511 99.2626C90.7667 99.1335 91.1547 99.0846 91.5441 98.726C91.9416 98.0468 91.8304 87.5023 91.772 85.9689L90.0367 85.425Z" fill="#00093A"/>
<path d="M81.1931 93.2105C83.5512 93.1461 85.0437 94.0008 86.5199 91.5979C86.8849 91.8374 86.9473 91.8689 87.1101 92.2683C86.6176 92.5823 85.174 93.2375 85.0139 93.5017L85.0274 93.666C84.6231 93.7939 84.345 93.8875 83.9203 93.9583L83.7873 93.8218C84.0017 93.6053 84.1903 93.5951 84.4888 93.523C84.0343 93.5066 83.6435 93.4366 83.2595 93.6461C83.52 94.1958 83.8389 94.1803 83.6625 94.6779C83.4712 94.5176 83.0913 93.9039 82.9285 93.6617L81.0493 93.5719L81.1931 93.2105Z" fill="#00093A"/>
<path d="M11.5577 98.4122C11.3575 98.5461 11.154 98.6748 10.9471 98.798C7.71875 100.702 2.83674 99.3289 0.959891 96.0677C-0.00899409 94.3519 -0.256336 92.3214 0.27227 90.4231C0.912811 88.1519 2.24219 87.1384 4.1531 86.0475L4.36056 86.3806C-1.0023 90.9588 4.23681 101.578 11.2955 98.0436L11.5577 98.4122Z" fill="#00093A"/>
<path d="M22.3788 84.9761C23.4574 87.8316 24.5537 90.6806 25.6675 93.5227C26.2967 95.1377 26.8764 96.8272 27.6946 98.3528C27.9891 98.9019 28.3785 99.106 28.909 99.3861C27.1973 99.3838 24.8103 99.3205 23.1534 99.4235C24.2361 99.1594 25.5036 98.9633 25.0487 97.334C24.9372 96.9344 24.6198 96.2012 24.3655 95.8824L24.3166 95.6644C23.7951 93.6804 22.5716 91.1306 21.8628 89.1735C21.5547 88.3229 21.0807 87.4372 20.9128 86.5495L20.9713 86.4196L20.7205 86.046L22.3788 84.9761Z" fill="#00093A"/>
<path d="M57.6542 85.4296C58.3704 85.4227 62.0542 85.3414 62.4449 85.5374C62.1505 85.653 61.3581 85.9748 61.3188 86.298C61.0963 88.0929 61.213 90.4676 61.2333 92.2582L63.8587 92.2584L64.4462 92.6326L61.2333 92.612C61.2238 94.6006 61.1695 96.776 61.2889 98.7474C61.8222 98.9815 62.525 99.2289 63.0813 99.4428C61.5033 99.3126 59.3745 99.3534 57.7156 99.2945L59.2633 98.7516C59.365 97.2199 59.4613 86.9839 59.1505 86.0697C58.7729 85.7295 58.158 85.5895 57.6542 85.4296Z" fill="#00093A"/>
<path d="M44.5518 89.1074C45.1731 88.6895 45.7785 88.4044 46.5218 88.2806C46.2811 89.0722 46.0849 89.7078 46.0204 90.5436C45.6487 95.3583 49.243 100.036 54.3836 98.3873L54.3642 99C54.2596 99.0532 54.1525 99.1014 54.0433 99.1443C52.1831 99.8941 49.8773 99.7483 48.0563 98.9508C46.3077 98.196 44.9319 96.7753 44.2333 95.0034C43.4482 92.9783 43.6944 91.043 44.5518 89.1074Z" fill="#00093A"/>
<path d="M36.2027 85.4389L37.8573 85.4214L37.4904 85.7439L37.2047 85.8385C37.0364 86.7234 37.19 87.5834 37.1393 88.4164C37.0265 90.2685 37.2976 93.5792 37.1125 95.3002C37.1923 97.7664 36.4346 98.7116 39.0883 99.435C37.7013 99.4192 35.8738 99.4005 34.4667 99.4074C34.3174 99.4081 34.3843 98.958 33.9811 99.3216C34.5428 98.9442 34.9985 98.8126 35.1021 98.0943C35.3105 94.3986 35.0566 89.7185 35.1791 85.8571C35.7651 85.8344 35.6476 85.797 36.2027 85.4389Z" fill="#00093A"/>
<path d="M37.1125 95.3003C37.1923 97.7665 36.4346 98.7117 39.0883 99.4351C37.7013 99.4193 35.8738 99.4006 34.4667 99.4075C34.3174 99.4082 34.3843 98.9581 33.9811 99.3216C34.5428 98.9443 34.9985 98.8127 35.1021 98.0944C35.2063 99.2636 36.2247 98.5501 36.843 98.7785L36.6282 98.2714C37.2973 97.5029 37.0425 96.4914 37.1125 95.3003Z" fill="#00093A"/>
<path d="M67.137 85.4345C67.9972 85.4318 71.3145 85.3614 71.8885 85.5093C71.5547 85.9119 70.9197 85.7672 70.8302 86.2987C70.6253 87.5481 70.746 88.9306 70.7352 90.2159C70.7135 92.6958 70.6863 95.1832 70.7298 97.6621C70.7528 98.9986 71.3308 99.0207 72.4664 99.3856C71.5058 99.3934 68.1749 99.4778 67.4043 99.3716C68.0121 98.9601 68.6932 98.8932 68.738 98.2372C68.8194 97.0393 68.9279 93.6843 68.7787 92.6148L68.8696 92.3275L68.8547 92.1635C68.6919 90.4249 69.2712 87.4837 68.4069 85.9739C68.2794 85.7512 67.445 85.5321 67.137 85.4345Z" fill="#00093A"/>
<path d="M111.81 98.4266C111.987 97.1228 112.108 87.0609 111.81 86.192C111.483 85.7575 111.192 85.7749 110.66 85.5595C110.992 85.2894 114.991 85.4202 115.641 85.428L115.761 85.7762C115.156 85.7717 114.467 85.7508 113.87 85.7792C113.87 86.9708 113.931 91.4749 113.767 92.3493L113.847 92.5451C113.844 93.5237 113.715 98.5469 114.055 99.026L114.227 99.0796L113.937 99.2628L113.931 99.3857C112.957 99.451 111.433 99.4 110.418 99.3971C110.908 99.1195 111.359 98.7638 111.81 98.4266Z" fill="#00093A"/>
<path d="M78.1663 86.3529C78.5543 85.7249 78.3779 85.8109 78.9722 85.5469C79.4864 85.5722 79.7306 85.7573 80.1702 86.0092C80.2015 87.0907 80.0047 92.5559 80.3534 93.0095L81.1933 93.2106L81.0494 93.5719L80.2937 93.6547L80.1947 93.7977C80.1309 94.5663 80.0034 97.9519 80.428 98.8793C80.4579 98.9447 81.0481 99.0633 81.2231 99.3556C80.4755 99.5039 77.439 99.3854 76.511 99.3673C77.0211 99.1892 77.5164 99.059 77.9329 98.7194C78.4051 97.7929 78.1785 88.1711 78.1663 86.3529Z" fill="#00093A"/>
<path d="M99.3241 85.9448C99.3024 87.9702 99.0514 97.5467 99.4625 98.6154C99.5479 98.8713 99.5968 98.9992 99.6402 99.2724L99.4787 99.4074C98.7081 99.4216 96.6485 99.4624 96.0067 99.2775C96.3201 99.0978 96.6688 98.9189 96.9538 98.6967C97.6891 98.1219 97.1247 88.5818 97.3499 86.9634C98.0718 86.052 98.183 86.2243 99.3241 85.9448Z" fill="#00093A"/>
<path d="M105.936 87.9396C106.183 87.6753 106.777 87.2815 107.119 86.9591C108.637 88.2867 109.255 89.6015 109.398 91.6273C109.71 96.0494 106.473 99.2457 102.135 99.3769C101.24 99.4043 100.368 99.4211 99.4788 99.4073L99.6403 99.2723C99.5969 98.9991 99.548 98.8712 99.4625 98.6153C99.5195 98.6327 99.5779 98.6498 99.6348 98.6666C102.682 99.5507 106.237 99.0072 107.023 95.4401C107.595 92.8398 107.314 90.2446 105.936 87.9396Z" fill="#00093A"/>
<path d="M78.1657 86.3528C77.775 85.8768 77.6433 85.8545 77.0518 85.7212L76.8835 85.4973C77.3381 85.2475 83.7286 85.5144 84.7095 85.5411C88.419 85.6426 90.3253 89.7091 87.1097 92.2683C86.9469 91.8688 86.8844 91.8374 86.5195 91.5979C87.1884 89.3456 86.7691 86.4668 84.0813 85.9541C83.2537 85.7962 80.8467 85.6043 80.1697 86.0091C79.7301 85.7572 79.4859 85.5722 78.9716 85.5468C78.3774 85.8108 78.5537 85.7248 78.1657 86.3528Z" fill="#00093A"/>
<path d="M44.5515 89.1074C44.7113 88.8133 44.8951 88.5327 45.101 88.2686C48.0506 84.4507 53.2517 84.2811 56.9292 87.175C55.9051 88.3964 54.9814 89.6988 54.1673 91.0692C56.0174 84.8148 49.248 83.8327 46.5214 88.2807C45.7781 88.4044 45.1727 88.6895 44.5515 89.1074Z" fill="#00093A"/>
<path d="M8.02515 85.1836C10.0679 85.2787 11.5326 85.759 13.0173 87.1927L10.3503 90.8747C11.1619 88.4584 10.8363 86.3364 8.04265 85.7197L8.02515 85.1836Z" fill="#00093A"/>
<path d="M16.274 96.1859C16.982 94.6073 20.1414 86.8445 20.7202 86.046L20.971 86.4197L20.9125 86.5496C19.5341 89.2138 18.1162 92.8271 16.9581 95.6193C19.2856 95.6113 22.0239 95.5403 24.3163 95.6644L24.3653 95.8825C23.0786 96.3518 17.4771 95.5639 16.7031 96.1886L16.6169 96.4236L16.274 96.1859Z" fill="#00093A"/>
<path d="M122.318 95.2355C121.986 96.6834 121.549 98.1857 121.154 99.6241C119.898 99.3598 118.949 99.4104 117.677 99.4032L117.786 99.0289C120.082 98.7112 121.216 97.1351 122.318 95.2355Z" fill="#00093A"/>
<path d="M39.2592 85.4162C40.4491 85.4247 41.5231 85.4509 42.7078 85.3259C42.2673 86.7983 41.8098 88.2593 41.4786 89.7606C41.4159 88.2351 41.4574 87.7436 40.6299 86.4079C40.2436 86.2196 39.7281 85.9449 39.3317 85.8141L39.2592 85.4162Z" fill="#00093A"/>
<path d="M115.641 85.4281L120.859 85.3964C121.102 86.5645 121.324 87.59 121.641 88.7393C119.512 85.9687 119.094 85.8665 115.762 85.7763L115.641 85.4281Z" fill="#00093A"/>
<path d="M30.2314 85.3914C31.0835 85.4209 32.0193 85.4123 32.8787 85.4215L32.981 85.8581C30.8033 86.5062 30.3484 87.8552 29.4855 89.7826C29.6377 88.4491 29.9681 86.7233 30.2314 85.3914Z" fill="#00093A"/>
<path d="M97.3498 86.9635C97.2779 86.5221 97.263 86.3307 97.0649 85.9156C96.6931 85.81 96.3227 85.6982 95.955 85.5802L96.0283 85.4712C97.6809 85.3992 102.392 85.2513 103.827 85.6546C103.944 86.0407 103.945 86.0898 104.176 86.411C103.956 86.3153 103.731 86.2316 103.501 86.1601C102.614 85.8772 100.107 85.5436 99.3239 85.9449C98.1829 86.2244 98.0716 86.0521 97.3498 86.9635Z" fill="#00093A"/>
<path d="M103.828 85.6544C105.012 85.8398 106.165 86.1977 107.119 86.9592C106.777 87.2816 106.183 87.6753 105.936 87.9397C105.178 87.1558 105.106 87.0422 104.176 86.4109C103.946 86.0897 103.944 86.0406 103.828 85.6544Z" fill="#00093A"/>
<path d="M117.136 92.243C118.324 92.0514 118.816 91.8897 119.542 90.8753C119.617 90.7696 119.691 90.6628 119.763 90.5549C119.719 91.7791 119.698 93.0038 119.699 94.2287C118.959 92.9736 118.694 92.774 117.25 92.5535L117.136 92.243Z" fill="#00093A"/>
<path d="M13.9254 99.3903C15.4808 98.4448 15.6049 97.8831 16.275 96.1859L16.6179 96.4236C16.2048 97.6603 15.8008 98.5593 17.1992 99.2613L17.3346 99.3283L17.2644 99.4588C16.2841 99.3507 14.9405 99.3881 13.9254 99.3903Z" fill="#00093A"/>
<path d="M63.8583 92.2584C64.9112 92.2501 67.9681 92.1737 68.869 92.3276L68.7781 92.6149C67.3779 92.6523 65.8569 92.6275 64.4458 92.6326L63.8583 92.2584Z" fill="#00093A"/>
<path d="M4.15289 86.0475C5.57603 85.3779 6.49404 85.294 8.02504 85.1836L8.04255 85.7197C6.51819 85.6445 5.74794 85.6206 4.36035 86.3806L4.15289 86.0475Z" fill="#00093A"/>
<path d="M114.227 99.0798C115.437 98.9902 116.573 99.0156 117.786 99.029L117.676 99.4034C116.428 99.4091 115.179 99.4031 113.931 99.3859L113.936 99.2629L114.227 99.0798Z" fill="#00093A"/>
<path d="M32.8779 85.4216C33.9857 85.3921 35.0943 85.3978 36.2019 85.4389C35.6468 85.797 35.7643 85.8345 35.1783 85.8571C34.8122 85.5936 33.4694 85.7994 32.9802 85.8582L32.8779 85.4216Z" fill="#00093A"/>
<path d="M113.767 92.3494C114.622 92.1893 116.236 92.2015 117.136 92.243L117.25 92.5534L113.847 92.5452L113.767 92.3494Z" fill="#00093A"/>
<path d="M54.3834 98.3874C54.8447 98.1551 56.1398 97.3172 56.3926 97.297C55.8332 98.1149 55.2002 98.4981 54.364 99.0001L54.3834 98.3874Z" fill="#00093A"/>
<path d="M11.296 98.0437C11.6982 97.7517 12.0657 97.3833 12.4998 97.3386C12.4219 97.7256 11.8678 98.1659 11.5582 98.4123L11.296 98.0437Z" fill="#00093A"/>
<path d="M37.858 85.4214L39.2596 85.4163L39.3322 85.8142C38.7511 85.752 38.0822 85.7551 37.4911 85.7439L37.858 85.4214Z" fill="#00093A"/>
</g>
<defs>
<clipPath id="clip0_30024_12584">
<rect width="122.159" height="100" fill="white"/>
</clipPath>
</defs>
</svg>
