<svg width="130" height="86" viewBox="0 0 130 86" fill="none" xmlns="http://www.w3.org/2000/svg">
<path d="M59.0862 50.5452C45.7979 46.7197 36.6257 33.6018 40.638 19.789C42.618 12.8 47.3145 6.89443 53.6794 3.39101C59.5935 0.145464 66.5703 -0.973608 73.1038 0.927595C79.2211 2.7473 84.3554 6.937 87.3654 12.564C87.5552 12.9121 87.7377 13.2641 87.9153 13.6198L87.3508 13.6261C84.1826 8.15315 78.9851 4.14858 72.8848 2.47946C66.7042 0.839536 59.8627 2.07902 54.3867 5.28078C48.5239 8.71803 44.2907 14.3684 42.6394 20.9597C41.069 26.9516 41.9785 33.3235 45.1632 38.6369C48.7663 44.7171 53.0997 47.4028 59.0862 50.5452Z" fill="#00093A"/>
<path d="M58.4993 11.1146C60.3622 11.8751 63.1435 14.023 64.7252 15.2788C72.1638 15.9923 81.4518 18.4124 83.7707 26.4855C86.8416 37.1773 76.534 42.8495 69.9519 48.8001C67.7741 50.7691 66.2655 53.0953 64.8785 55.6488C65.5233 53.1943 66.1949 51.8896 67.4675 49.787C72.2514 42.1786 85.1212 37.3785 81.2036 26.0729C78.8384 19.2469 70.8474 17.4296 64.7033 15.8279C64.4113 15.7517 60.8392 13.589 60.0861 13.2175C60.6153 14.3855 61.0265 15.4547 61.4791 16.6474C60.8513 16.1911 59.4505 15.1231 58.7339 15.2031C58.7485 15.6858 58.7891 16.3283 58.7606 16.7951L58.3689 16.6927C57.4542 15.2038 57.0522 14.2084 56.3789 12.6132L59.433 14.2271L58.4993 11.1146Z" fill="#00093A"/>
<path d="M60.2515 17.5425C60.4583 18.5976 57.9861 20.9376 57.5741 22.0484C55.854 26.6848 53.7409 30.9056 51.3212 35.2272C52.022 36.5932 52.8812 38.327 54.3707 38.8727C56.2952 38.8457 57.6685 36.3499 59.1504 35.2702C60.6968 34.1444 62.0765 33.0443 63.4464 31.7055C67.3178 32.0366 68.8119 28.6921 69.6903 25.6292L69.8801 25.6701L70.2573 27.0307C69.5954 31.2165 67.5904 32.0768 63.7798 32.9241C62.0765 34.7849 61.0472 34.9627 59.1874 36.4119C58.08 37.5505 58.0384 38.9393 56.4202 39.6071C52.9671 41.0325 51.0409 37.7086 49.9844 35.172C51.0543 32.6927 52.8092 30.1675 53.9078 27.6796C55.9017 23.1646 56.3431 20.9153 60.2515 17.5425Z" fill="#00093A"/>
<path d="M87.3516 13.6263L87.9161 13.62C88.5974 14.9339 89.8798 17.4706 89.6632 18.938C89.3493 17.2086 88.1959 15.1865 87.3516 13.6263Z" fill="#00093A"/>
<path d="M97.3436 60.0918C99.1721 60.1046 101.001 60.1003 102.831 60.0789C102.286 60.2368 101.481 60.3761 101.181 60.7872C100.959 62.0805 101.015 65.185 101.033 66.6061C101.058 68.6046 100.965 71.2011 101.089 73.1602C101.492 73.3714 101.95 73.6291 102.362 73.8044C100.764 73.8452 99.1641 73.8743 97.5645 73.8915L94.3103 73.8879C93.5004 72.9109 91.72 70.3125 91.0547 69.2208C90.866 69.0627 90.4912 68.4572 90.3305 68.2183L88.4766 68.1296L88.6185 67.7731C90.945 67.7096 92.4175 68.5528 93.8739 66.1821C94.234 66.4184 94.2956 66.4494 94.4562 66.8436C93.9703 67.1533 92.546 67.7998 92.388 68.0604L92.4014 68.2225C94.0599 69.8849 95.0251 73.0638 97.5551 73.7441C98.0638 73.6167 98.4466 73.5685 98.8308 73.2147C99.223 72.5445 99.1132 62.1413 99.0557 60.6284L97.3436 60.0918Z" fill="#00093A"/>
<path d="M88.6185 67.773C90.945 67.7095 92.4175 68.5527 93.8739 66.182C94.234 66.4183 94.2956 66.4493 94.4562 66.8435C93.9703 67.1532 92.546 67.7997 92.388 68.0603L92.4014 68.2224C92.0025 68.3486 91.7281 68.4409 91.3091 68.5108L91.1779 68.3761C91.3894 68.1625 91.5755 68.1524 91.87 68.0813C91.4215 68.0651 91.036 67.9961 90.6572 68.2028C90.9142 68.7451 91.2288 68.7298 91.0547 69.2207C90.866 69.0626 90.4912 68.4571 90.3305 68.2182L88.4766 68.1295L88.6185 67.773Z" fill="#00093A"/>
<path d="M19.9107 72.9051C19.7132 73.0372 19.5124 73.1641 19.3083 73.2857C16.1232 75.1643 11.3066 73.8095 9.45485 70.5919C8.49894 68.8992 8.25491 66.8958 8.77644 65.023C9.4084 62.7821 10.72 61.7822 12.6053 60.7059L12.81 61.0346C7.51894 65.5515 12.6879 76.0287 19.6521 72.5414L19.9107 72.9051Z" fill="#00093A"/>
<path d="M30.5853 59.6488C31.6495 62.4661 32.7311 65.2769 33.83 68.081C34.4507 69.6743 35.0227 71.3412 35.8299 72.8463C36.1205 73.3881 36.5047 73.5894 37.0281 73.8659C35.3393 73.8636 32.9842 73.8011 31.3495 73.9027C32.4177 73.6422 33.6683 73.4488 33.2194 71.8412C33.1094 71.447 32.7963 70.7236 32.5454 70.4091L32.4971 70.194C31.9827 68.2365 30.7755 65.7209 30.0762 63.7901C29.7722 62.9508 29.3046 62.0769 29.1389 61.2012L29.1966 61.073L28.9492 60.7044L30.5853 59.6488Z" fill="#00093A"/>
<path d="M65.3906 60.0965C66.0971 60.0896 69.7316 60.0094 70.1172 60.2027C69.8267 60.3168 69.0449 60.6343 69.0061 60.9532C68.7866 62.7241 68.9017 65.0669 68.9218 66.8336L71.512 66.8337L72.0916 67.2029L68.9218 67.1826C68.9124 69.1446 68.8589 71.2909 68.9767 73.2359C69.5027 73.4668 70.1961 73.7109 70.745 73.922C69.1882 73.7935 67.0879 73.8338 65.4511 73.7757L66.9781 73.24C67.0785 71.7288 67.1735 61.6299 66.8669 60.7279C66.4943 60.3923 65.8877 60.2542 65.3906 60.0965Z" fill="#00093A"/>
<path d="M52.4661 63.7248C53.0791 63.3125 53.6764 63.0313 54.4097 62.9092C54.1722 63.6902 53.9787 64.3172 53.9151 65.1419C53.5483 69.8921 57.0944 74.5068 62.1662 72.8805L62.1471 73.485C62.0438 73.5375 61.9382 73.585 61.8305 73.6273C59.9952 74.3671 57.7202 74.2233 55.9237 73.4364C54.1985 72.6917 52.8411 71.2901 52.1518 69.5419C51.3773 67.5439 51.6201 65.6345 52.4661 63.7248Z" fill="#00093A"/>
<path d="M44.227 60.1054L45.8595 60.0881L45.4975 60.4063L45.2156 60.4996C45.0496 61.3727 45.2011 62.2212 45.1511 63.043C45.0398 64.8704 45.3073 68.1366 45.1247 69.8347C45.2034 72.2679 44.4558 73.2004 47.074 73.9141C45.7055 73.8985 43.9025 73.8801 42.5142 73.8869C42.367 73.8875 42.433 73.4435 42.0352 73.8021C42.5893 73.4298 43.039 73.3 43.1411 72.5913C43.3467 68.9451 43.0963 64.3277 43.2172 60.518C43.7953 60.4956 43.6794 60.4587 44.227 60.1054Z" fill="#00093A"/>
<path d="M45.1247 69.8347C45.2034 72.2679 44.4558 73.2005 47.074 73.9141C45.7055 73.8986 43.9025 73.8801 42.5142 73.8869C42.367 73.8876 42.433 73.4436 42.0352 73.8022C42.5893 73.4299 43.039 73.3001 43.1411 72.5914C43.2439 73.7449 44.2487 73.041 44.8587 73.2663L44.6468 72.7661C45.307 72.0078 45.0556 71.0098 45.1247 69.8347Z" fill="#00093A"/>
<path d="M74.7461 60.1011C75.5948 60.0985 78.8677 60.029 79.4339 60.1749C79.1046 60.5721 78.4782 60.4294 78.3898 60.9537C78.1877 62.1864 78.3068 63.5504 78.2961 64.8184C78.2747 67.2652 78.2479 69.7193 78.2908 72.1649C78.3135 73.4835 78.8838 73.5054 80.0042 73.8653C79.0565 73.8731 75.7702 73.9564 75.0098 73.8516C75.6095 73.4455 76.2815 73.3795 76.3257 72.7324C76.406 71.5505 76.5131 68.2404 76.3658 67.1852L76.4555 66.9018L76.4408 66.74C76.2802 65.0247 76.8517 62.1228 75.999 60.6333C75.8732 60.4136 75.05 60.1974 74.7461 60.1011Z" fill="#00093A"/>
<path d="M118.823 72.9192C118.997 71.6329 119.116 61.7058 118.823 60.8485C118.5 60.4198 118.212 60.4369 117.687 60.2245C118.015 59.9579 121.96 60.087 122.602 60.0948L122.721 60.4383C122.124 60.4339 121.444 60.4132 120.855 60.4412C120.855 61.6169 120.915 66.0607 120.753 66.9233L120.832 67.1165C120.829 68.082 120.702 73.038 121.037 73.5106L121.207 73.5635L120.92 73.7442L120.915 73.8655C119.954 73.9299 118.451 73.8796 117.449 73.8768C117.932 73.6029 118.377 73.2519 118.823 72.9192Z" fill="#00093A"/>
<path d="M85.6292 61.0072C86.0121 60.3877 85.838 60.4725 86.4244 60.212C86.9317 60.2371 87.1726 60.4197 87.6064 60.6681C87.6371 61.7352 87.443 67.1272 87.7871 67.5747L88.6157 67.7731L88.4738 68.1296L87.7282 68.2113L87.6304 68.3524C87.5675 69.1106 87.4417 72.4509 87.8607 73.3659C87.8901 73.4305 88.4724 73.5475 88.6451 73.8358C87.9075 73.9821 84.9117 73.8653 83.9961 73.8473C84.4994 73.6717 84.988 73.5432 85.399 73.2081C85.8648 72.294 85.6413 62.8011 85.6292 61.0072Z" fill="#00093A"/>
<path d="M106.503 60.6047C106.482 62.603 106.234 72.0513 106.64 73.1056C106.724 73.3581 106.772 73.4843 106.815 73.7538L106.656 73.887C105.896 73.9011 103.864 73.9412 103.23 73.7589C103.54 73.5815 103.884 73.4051 104.165 73.1858C104.89 72.6187 104.333 63.2064 104.556 61.6097C105.268 60.7105 105.378 60.8805 106.503 60.6047Z" fill="#00093A"/>
<path d="M113.027 62.5727C113.271 62.3119 113.857 61.9234 114.194 61.6053C115.692 62.9151 116.301 64.2123 116.443 66.211C116.751 70.5739 113.557 73.7274 109.278 73.8568C108.394 73.8839 107.533 73.9005 106.657 73.8868L106.816 73.7536C106.773 73.4841 106.725 73.3579 106.641 73.1054C106.697 73.1226 106.754 73.1394 106.811 73.156C109.817 74.0283 113.324 73.492 114.099 69.9727C114.664 67.4073 114.387 64.8469 113.027 62.5727Z" fill="#00093A"/>
<path d="M85.6283 61.0071C85.2427 60.5375 85.1129 60.5156 84.5293 60.384L84.3633 60.1631C84.8117 59.9166 91.1166 60.18 92.0844 60.2063C95.7442 60.3065 97.625 64.3185 94.4525 66.8434C94.2918 66.4493 94.2302 66.4183 93.8702 66.182C94.5301 63.9599 94.1165 61.1196 91.4647 60.6138C90.6481 60.458 88.2734 60.2687 87.6054 60.668C87.1717 60.4196 86.9308 60.237 86.4234 60.2119C85.8371 60.4725 86.0111 60.3876 85.6283 61.0071Z" fill="#00093A"/>
<path d="M52.4648 63.7248C52.6225 63.4346 52.8039 63.1577 53.007 62.8972C55.9172 59.1304 61.0486 58.9631 64.6768 61.8182C63.6664 63.0233 62.7551 64.3082 61.9519 65.6603C63.7773 59.4897 57.0985 58.5207 54.4084 62.9091C53.6751 63.0312 53.0778 63.3125 52.4648 63.7248Z" fill="#00093A"/>
<path d="M16.4258 59.8536C18.4412 59.9475 19.8863 60.4214 21.3511 61.8358L18.7198 65.4685C19.5205 63.0846 19.1993 60.991 16.4431 60.3826L16.4258 59.8536Z" fill="#00093A"/>
<path d="M24.5664 70.7084C25.2649 69.151 28.382 61.4922 28.9531 60.7043L29.2004 61.073L29.1427 61.2011C27.7828 63.8297 26.3839 67.3946 25.2413 70.1494C27.5376 70.1415 30.2392 70.0715 32.5009 70.194L32.5493 70.4091C31.2799 70.8721 25.7534 70.0948 24.9897 70.7111L24.9047 70.943L24.5664 70.7084Z" fill="#00093A"/>
<path d="M129.189 69.7709C128.861 71.1994 128.43 72.6816 128.04 74.1008C126.801 73.84 125.865 73.8899 124.609 73.8828L124.718 73.5135C126.983 73.2001 128.102 71.645 129.189 69.7709Z" fill="#00093A"/>
<path d="M47.2422 60.083C48.4162 60.0915 49.4758 60.1173 50.6447 59.994C50.21 61.4466 49.7587 62.8881 49.4319 64.3693C49.3701 62.8642 49.411 62.3793 48.5946 61.0615C48.2135 60.8757 47.7048 60.6047 47.3138 60.4757L47.2422 60.083Z" fill="#00093A"/>
<path d="M122.602 60.0948L127.75 60.0635C127.99 61.216 128.209 62.2278 128.521 63.3616C126.421 60.6281 126.008 60.5273 122.721 60.4383L122.602 60.0948Z" fill="#00093A"/>
<path d="M38.3375 60.0586C39.1782 60.0878 40.1014 60.0792 40.9493 60.0883L41.0503 60.5191C38.9018 61.1585 38.4529 62.4894 37.6016 64.391C37.7518 63.0754 38.0777 61.3727 38.3375 60.0586Z" fill="#00093A"/>
<path d="M104.556 61.6097C104.485 61.1742 104.47 60.9854 104.275 60.5759C103.908 60.4717 103.542 60.3614 103.18 60.2449L103.252 60.1374C104.882 60.0663 109.53 59.9204 110.946 60.3183C111.061 60.6993 111.063 60.7477 111.29 61.0646C111.074 60.9702 110.851 60.8876 110.625 60.8171C109.75 60.538 107.276 60.2088 106.503 60.6048C105.378 60.8805 105.268 60.7105 104.556 61.6097Z" fill="#00093A"/>
<path d="M110.945 60.3181C112.114 60.501 113.252 60.8541 114.193 61.6054C113.855 61.9235 113.269 62.312 113.026 62.5727C112.277 61.7994 112.206 61.6873 111.289 61.0644C111.062 60.7476 111.06 60.6991 110.945 60.3181Z" fill="#00093A"/>
<path d="M124.074 66.8184C125.247 66.6294 125.731 66.4698 126.448 65.469C126.523 65.3647 126.595 65.2594 126.666 65.153C126.623 66.3607 126.602 67.569 126.603 68.7775C125.873 67.5392 125.611 67.3423 124.187 67.1247L124.074 66.8184Z" fill="#00093A"/>
<path d="M22.2461 73.87C23.7807 72.9372 23.9032 72.3829 24.5643 70.7085L24.9026 70.943C24.495 72.1631 24.0965 73.0501 25.476 73.7426L25.6096 73.8088L25.5404 73.9376C24.5733 73.8309 23.2476 73.8678 22.2461 73.87Z" fill="#00093A"/>
<path d="M71.5117 66.8336C72.5505 66.8255 75.5664 66.7501 76.4552 66.9019L76.3656 67.1853C74.9841 67.2222 73.4835 67.1977 72.0913 67.2028L71.5117 66.8336Z" fill="#00093A"/>
<path d="M12.6055 60.706C14.0095 60.0453 14.9153 59.9626 16.4258 59.8536L16.443 60.3826C14.9391 60.3084 14.1792 60.2848 12.8102 61.0346L12.6055 60.706Z" fill="#00093A"/>
<path d="M121.206 73.5635C122.4 73.4752 123.52 73.5002 124.717 73.5134L124.609 73.8828C123.377 73.8884 122.146 73.8825 120.914 73.8655L120.919 73.7442L121.206 73.5635Z" fill="#00093A"/>
<path d="M40.9453 60.0884C42.0383 60.0594 43.1321 60.065 44.2248 60.1056C43.6772 60.4588 43.7931 60.4958 43.2149 60.5181C42.8538 60.2582 41.5289 60.4613 41.0462 60.5192L40.9453 60.0884Z" fill="#00093A"/>
<path d="M120.75 66.9235C121.593 66.7655 123.186 66.7776 124.074 66.8186L124.186 67.1249L120.829 67.1167L120.75 66.9235Z" fill="#00093A"/>
<path d="M62.1637 72.8805C62.6188 72.6513 63.8965 71.8246 64.1459 71.8047C63.594 72.6117 62.9695 72.9897 62.1445 73.485L62.1637 72.8805Z" fill="#00093A"/>
<path d="M19.6523 72.5414C20.0491 72.2533 20.4117 71.8899 20.84 71.8458C20.7631 72.2276 20.2164 72.662 19.911 72.9051L19.6523 72.5414Z" fill="#00093A"/>
<path d="M45.8581 60.0881L47.2409 60.083L47.3125 60.4757C46.7391 60.4142 46.0792 60.4173 45.4961 60.4063L45.8581 60.0881Z" fill="#00093A"/>
<line x1="0.1875" y1="82.4051" x2="11.3989" y2="82.4051" stroke="#00093A" stroke-width="0.560572"/>
<path d="M15.7192 84.6854V81.4239H17.6748V81.7743H16.1141V82.8763H17.5283V83.2267H16.1141V84.6854H15.7192ZM21.5516 83.0547C21.5516 83.3987 21.4895 83.6959 21.3653 83.9465C21.241 84.197 21.0706 84.3903 20.8541 84.5262C20.6375 84.6621 20.3901 84.73 20.1119 84.73C19.8338 84.73 19.5864 84.6621 19.3698 84.5262C19.1532 84.3903 18.9828 84.197 18.8586 83.9465C18.7344 83.6959 18.6723 83.3987 18.6723 83.0547C18.6723 82.7107 18.7344 82.4134 18.8586 82.1628C18.9828 81.9123 19.1532 81.7191 19.3698 81.5832C19.5864 81.4473 19.8338 81.3793 20.1119 81.3793C20.3901 81.3793 20.6375 81.4473 20.8541 81.5832C21.0706 81.7191 21.241 81.9123 21.3653 82.1628C21.4895 82.4134 21.5516 82.7107 21.5516 83.0547ZM21.1694 83.0547C21.1694 82.7723 21.1221 82.5339 21.0276 82.3396C20.9342 82.1453 20.8073 81.9983 20.647 81.8985C20.4878 81.7987 20.3094 81.7488 20.1119 81.7488C19.9145 81.7488 19.7356 81.7987 19.5753 81.8985C19.416 81.9983 19.2891 82.1453 19.1946 82.3396C19.1012 82.5339 19.0545 82.7723 19.0545 83.0547C19.0545 83.3371 19.1012 83.5754 19.1946 83.7697C19.2891 83.964 19.416 84.1111 19.5753 84.2108C19.7356 84.3106 19.9145 84.3605 20.1119 84.3605C20.3094 84.3605 20.4878 84.3106 20.647 84.2108C20.8073 84.1111 20.9342 83.964 21.0276 83.7697C21.1221 83.5754 21.1694 83.3371 21.1694 83.0547ZM22.6641 84.6854V81.4239H23.7662C24.021 81.4239 24.2301 81.4674 24.3936 81.5545C24.5571 81.6405 24.6782 81.7589 24.7567 81.9096C24.8353 82.0604 24.8746 82.2319 24.8746 82.424C24.8746 82.6162 24.8353 82.7866 24.7567 82.9352C24.6782 83.0839 24.5577 83.2007 24.3952 83.2856C24.2328 83.3695 24.0252 83.4114 23.7725 83.4114H22.8807V83.0547H23.7598C23.9339 83.0547 24.0741 83.0292 24.1802 82.9782C24.2875 82.9273 24.365 82.8551 24.4127 82.7616C24.4616 82.6672 24.486 82.5546 24.486 82.424C24.486 82.2934 24.4616 82.1793 24.4127 82.0816C24.3639 81.984 24.2859 81.9086 24.1786 81.8555C24.0714 81.8013 23.9297 81.7743 23.7534 81.7743H23.0591V84.6854H22.6641ZM24.1993 83.2203L25.002 84.6854H24.5433L23.7534 83.2203H24.1993Z" fill="#00093A"/>
<path d="M28.0096 81.7743V81.4239H30.4557V81.7743H29.4301V84.6854H29.0351V81.7743H28.0096ZM31.5137 84.6854V81.4239H31.9086V82.8763H33.6477V81.4239H34.0426V84.6854H33.6477V83.2267H31.9086V84.6854H31.5137ZM35.2818 84.6854V81.4239H37.2502V81.7743H35.6767V82.8763H37.1482V83.2267H35.6767V84.3351H37.2756V84.6854H35.2818Z" fill="#00093A"/>
<path d="M40.5395 84.6854V81.4239H41.6415C41.8974 81.4239 42.1065 81.4701 42.269 81.5625C42.4325 81.6538 42.5535 81.7775 42.6321 81.9335C42.7106 82.0896 42.7499 82.2637 42.7499 82.4559C42.7499 82.648 42.7106 82.8227 42.6321 82.9798C42.5546 83.1369 42.4346 83.2622 42.2722 83.3557C42.1097 83.448 41.9016 83.4942 41.6479 83.4942H40.858V83.1439H41.6351C41.8103 83.1439 41.951 83.1136 42.0572 83.0531C42.1633 82.9926 42.2403 82.9108 42.2881 82.8078C42.3369 82.7038 42.3613 82.5865 42.3613 82.4559C42.3613 82.3253 42.3369 82.2085 42.2881 82.1055C42.2403 82.0025 42.1628 81.9218 42.0556 81.8635C41.9483 81.804 41.8061 81.7743 41.6288 81.7743H40.9344V84.6854H40.5395ZM43.9243 84.6854V81.4239H45.0263C45.2811 81.4239 45.4903 81.4674 45.6538 81.5545C45.8173 81.6405 45.9383 81.7589 46.0169 81.9096C46.0954 82.0604 46.1347 82.2319 46.1347 82.424C46.1347 82.6162 46.0954 82.7866 46.0169 82.9352C45.9383 83.0839 45.8178 83.2007 45.6554 83.2856C45.4929 83.3695 45.2854 83.4114 45.0327 83.4114H44.1409V83.0547H45.0199C45.1941 83.0547 45.3342 83.0292 45.4404 82.9782C45.5476 82.9273 45.6251 82.8551 45.6729 82.7616C45.7217 82.6672 45.7461 82.5546 45.7461 82.424C45.7461 82.2934 45.7217 82.1793 45.6729 82.0816C45.6241 81.984 45.546 81.9086 45.4388 81.8555C45.3316 81.8013 45.1898 81.7743 45.0136 81.7743H44.3192V84.6854H43.9243ZM45.4595 83.2203L46.2621 84.6854H45.8035L45.0136 83.2203H45.4595ZM50.0829 83.0547C50.0829 83.3987 50.0208 83.6959 49.8966 83.9465C49.7723 84.197 49.6019 84.3903 49.3854 84.5262C49.1688 84.6621 48.9214 84.73 48.6432 84.73C48.3651 84.73 48.1177 84.6621 47.9011 84.5262C47.6845 84.3903 47.5141 84.197 47.3899 83.9465C47.2657 83.6959 47.2036 83.3987 47.2036 83.0547C47.2036 82.7107 47.2657 82.4134 47.3899 82.1628C47.5141 81.9123 47.6845 81.7191 47.9011 81.5832C48.1177 81.4473 48.3651 81.3793 48.6432 81.3793C48.9214 81.3793 49.1688 81.4473 49.3854 81.5832C49.6019 81.7191 49.7723 81.9123 49.8966 82.1628C50.0208 82.4134 50.0829 82.7107 50.0829 83.0547ZM49.7007 83.0547C49.7007 82.7723 49.6534 82.5339 49.5589 82.3396C49.4655 82.1453 49.3386 81.9983 49.1783 81.8985C49.0191 81.7987 48.8407 81.7488 48.6432 81.7488C48.4458 81.7488 48.2669 81.7987 48.1066 81.8985C47.9473 81.9983 47.8204 82.1453 47.7259 82.3396C47.6325 82.5339 47.5858 82.7723 47.5858 83.0547C47.5858 83.3371 47.6325 83.5754 47.7259 83.7697C47.8204 83.964 47.9473 84.1111 48.1066 84.2108C48.2669 84.3106 48.4458 84.3605 48.6432 84.3605C48.8407 84.3605 49.0191 84.3106 49.1783 84.2108C49.3386 84.1111 49.4655 83.964 49.5589 83.7697C49.6534 83.5754 49.7007 83.3371 49.7007 83.0547ZM51.2851 84.6854V81.4239H53.2408V81.7743H51.6801V82.8763H53.0942V83.2267H51.6801V84.6854H51.2851ZM54.4553 84.6854V81.4239H56.4237V81.7743H54.8503V82.8763H56.3218V83.2267H54.8503V84.3351H56.4492V84.6854H54.4553ZM59.4574 82.2393C59.4383 82.0779 59.3607 81.9526 59.2249 81.8635C59.089 81.7743 58.9223 81.7297 58.7248 81.7297C58.5804 81.7297 58.4541 81.753 58.3458 81.7998C58.2385 81.8465 58.1547 81.9107 58.0942 81.9924C58.0347 82.0742 58.005 82.1671 58.005 82.2711C58.005 82.3582 58.0257 82.433 58.0671 82.4957C58.1095 82.5573 58.1637 82.6088 58.2295 82.6502C58.2953 82.6905 58.3644 82.724 58.4365 82.7505C58.5087 82.776 58.5751 82.7967 58.6356 82.8126L58.9669 82.9018C59.0518 82.9241 59.1463 82.9549 59.2503 82.9942C59.3554 83.0334 59.4558 83.0871 59.5513 83.155C59.6479 83.2219 59.7276 83.3079 59.7902 83.413C59.8528 83.5181 59.8842 83.6471 59.8842 83.8C59.8842 83.9762 59.838 84.1355 59.7456 84.2777C59.6543 84.42 59.5205 84.5331 59.3443 84.6169C59.1691 84.7008 58.9562 84.7428 58.7057 84.7428C58.4721 84.7428 58.2699 84.7051 58.0989 84.6297C57.9291 84.5543 57.7953 84.4492 57.6976 84.3144C57.601 84.1795 57.5463 84.0229 57.5336 83.8446H57.9413C57.9519 83.9677 57.9933 84.0696 58.0655 84.1503C58.1387 84.23 58.2311 84.2894 58.3426 84.3287C58.4551 84.3669 58.5762 84.386 58.7057 84.386C58.8564 84.386 58.9918 84.3616 59.1118 84.3128C59.2318 84.2629 59.3268 84.1939 59.3968 84.1057C59.4669 84.0166 59.502 83.9125 59.502 83.7936C59.502 83.6853 59.4717 83.5972 59.4112 83.5292C59.3507 83.4613 59.271 83.4061 59.1723 83.3636C59.0736 83.3212 58.9669 83.284 58.8522 83.2521L58.4509 83.1375C58.1961 83.0642 57.9944 82.9596 57.8457 82.8238C57.6971 82.6879 57.6228 82.51 57.6228 82.2903C57.6228 82.1076 57.6721 81.9484 57.7709 81.8125C57.8707 81.6755 58.0044 81.5694 58.1722 81.494C58.341 81.4175 58.5294 81.3793 58.7375 81.3793C58.9478 81.3793 59.1346 81.417 59.2981 81.4924C59.4616 81.5667 59.5911 81.6686 59.6867 81.7982C59.7833 81.9277 59.8343 82.0747 59.8396 82.2393H59.4574ZM62.8553 82.2393C62.8362 82.0779 62.7587 81.9526 62.6228 81.8635C62.4869 81.7743 62.3202 81.7297 62.1227 81.7297C61.9784 81.7297 61.852 81.753 61.7437 81.7998C61.6365 81.8465 61.5526 81.9107 61.4921 81.9924C61.4326 82.0742 61.4029 82.1671 61.4029 82.2711C61.4029 82.3582 61.4236 82.433 61.465 82.4957C61.5075 82.5573 61.5616 82.6088 61.6275 82.6502C61.6933 82.6905 61.7623 82.724 61.8345 82.7505C61.9067 82.776 61.973 82.7967 62.0336 82.8126L62.3648 82.9018C62.4497 82.9241 62.5442 82.9549 62.6483 82.9942C62.7534 83.0334 62.8537 83.0871 62.9493 83.155C63.0459 83.2219 63.1255 83.3079 63.1881 83.413C63.2508 83.5181 63.2821 83.6471 63.2821 83.8C63.2821 83.9762 63.2359 84.1355 63.1436 84.2777C63.0523 84.42 62.9185 84.5331 62.7422 84.6169C62.5671 84.7008 62.3542 84.7428 62.1036 84.7428C61.8701 84.7428 61.6678 84.7051 61.4969 84.6297C61.327 84.5543 61.1932 84.4492 61.0956 84.3144C60.9989 84.1795 60.9443 84.0229 60.9315 83.8446H61.3392C61.3498 83.9677 61.3912 84.0696 61.4634 84.1503C61.5367 84.23 61.6291 84.2894 61.7405 84.3287C61.8531 84.3669 61.9741 84.386 62.1036 84.386C62.2544 84.386 62.3898 84.3616 62.5097 84.3128C62.6297 84.2629 62.7247 84.1939 62.7948 84.1057C62.8649 84.0166 62.8999 83.9125 62.8999 83.7936C62.8999 83.6853 62.8696 83.5972 62.8091 83.5292C62.7486 83.4613 62.669 83.4061 62.5702 83.3636C62.4715 83.3212 62.3648 83.284 62.2501 83.2521L61.8488 83.1375C61.594 83.0642 61.3923 82.9596 61.2437 82.8238C61.095 82.6879 61.0207 82.51 61.0207 82.2903C61.0207 82.1076 61.0701 81.9484 61.1688 81.8125C61.2686 81.6755 61.4024 81.5694 61.5701 81.494C61.7389 81.4175 61.9274 81.3793 62.1355 81.3793C62.3457 81.3793 62.5326 81.417 62.6961 81.4924C62.8596 81.5667 62.9891 81.6686 63.0846 81.7982C63.1812 81.9277 63.2322 82.0747 63.2375 82.2393H62.8553ZM64.8646 81.4239V84.6854H64.4696V81.4239H64.8646ZM68.9465 83.0547C68.9465 83.3987 68.8844 83.6959 68.7602 83.9465C68.636 84.197 68.4656 84.3903 68.249 84.5262C68.0324 84.6621 67.785 84.73 67.5068 84.73C67.2287 84.73 66.9813 84.6621 66.7647 84.5262C66.5481 84.3903 66.3777 84.197 66.2535 83.9465C66.1293 83.6959 66.0672 83.3987 66.0672 83.0547C66.0672 82.7107 66.1293 82.4134 66.2535 82.1628C66.3777 81.9123 66.5481 81.7191 66.7647 81.5832C66.9813 81.4473 67.2287 81.3793 67.5068 81.3793C67.785 81.3793 68.0324 81.4473 68.249 81.5832C68.4656 81.7191 68.636 81.9123 68.7602 82.1628C68.8844 82.4134 68.9465 82.7107 68.9465 83.0547ZM68.5643 83.0547C68.5643 82.7723 68.517 82.5339 68.4226 82.3396C68.3291 82.1453 68.2023 81.9983 68.0419 81.8985C67.8827 81.7987 67.7043 81.7488 67.5068 81.7488C67.3094 81.7488 67.1305 81.7987 66.9702 81.8985C66.8109 81.9983 66.684 82.1453 66.5895 82.3396C66.4961 82.5339 66.4494 82.7723 66.4494 83.0547C66.4494 83.3371 66.4961 83.5754 66.5895 83.7697C66.684 83.964 66.8109 84.1111 66.9702 84.2108C67.1305 84.3106 67.3094 84.3605 67.5068 84.3605C67.7043 84.3605 67.8827 84.3106 68.0419 84.2108C68.2023 84.1111 68.3291 83.964 68.4226 83.7697C68.517 83.5754 68.5643 83.3371 68.5643 83.0547ZM72.735 81.4239V84.6854H72.3528L70.5755 82.1246H70.5437V84.6854H70.1487V81.4239H70.5309L72.3146 83.9911H72.3464V81.4239H72.735ZM74.1972 84.6854H73.7832L74.9808 81.4239H75.3884L76.586 84.6854H76.172L75.1973 81.9399H75.1719L74.1972 84.6854ZM74.3501 83.4114H76.0191V83.7618H74.3501V83.4114ZM77.6322 84.6854V81.4239H78.0271V84.3351H79.5432V84.6854H77.6322Z" fill="#00093A"/>
<path d="M82.891 84.6854V81.4239H84.8594V81.7743H83.286V82.8763H84.7575V83.2267H83.286V84.3351H84.8849V84.6854H82.891ZM87.384 83.6662H87.8171L88.1802 84.144L88.2758 84.2714L88.8172 84.9912H88.3841L88.0274 84.5134L87.9382 84.3924L87.384 83.6662ZM88.951 83.0547C88.951 83.3987 88.8889 83.6959 88.7647 83.9465C88.6405 84.197 88.4701 84.3903 88.2535 84.5262C88.0369 84.6621 87.7895 84.73 87.5114 84.73C87.2332 84.73 86.9858 84.6621 86.7692 84.5262C86.5527 84.3903 86.3823 84.197 86.258 83.9465C86.1338 83.6959 86.0717 83.3987 86.0717 83.0547C86.0717 82.7107 86.1338 82.4134 86.258 82.1628C86.3823 81.9123 86.5527 81.7191 86.7692 81.5832C86.9858 81.4473 87.2332 81.3793 87.5114 81.3793C87.7895 81.3793 88.0369 81.4473 88.2535 81.5832C88.4701 81.7191 88.6405 81.9123 88.7647 82.1628C88.8889 82.4134 88.951 82.7107 88.951 83.0547ZM88.5688 83.0547C88.5688 82.7723 88.5216 82.5339 88.4271 82.3396C88.3336 82.1453 88.2068 81.9983 88.0465 81.8985C87.8872 81.7987 87.7088 81.7488 87.5114 81.7488C87.3139 81.7488 87.135 81.7987 86.9747 81.8985C86.8154 81.9983 86.6886 82.1453 86.5941 82.3396C86.5006 82.5339 86.4539 82.7723 86.4539 83.0547C86.4539 83.3371 86.5006 83.5754 86.5941 83.7697C86.6886 83.964 86.8154 84.1111 86.9747 84.2108C87.135 84.3106 87.3139 84.3605 87.5114 84.3605C87.7088 84.3605 87.8872 84.3106 88.0465 84.2108C88.2068 84.1111 88.3336 83.964 88.4271 83.7697C88.5216 83.5754 88.5688 83.3371 88.5688 83.0547ZM92.3833 81.4239H92.7783V83.5834C92.7783 83.8063 92.7257 84.0054 92.6206 84.1806C92.5166 84.3547 92.3695 84.4922 92.1795 84.5931C91.9894 84.6929 91.7665 84.7428 91.5106 84.7428C91.2547 84.7428 91.0318 84.6929 90.8417 84.5931C90.6517 84.4922 90.5041 84.3547 90.399 84.1806C90.295 84.0054 90.2429 83.8063 90.2429 83.5834V81.4239H90.6379V83.5515C90.6379 83.7108 90.6729 83.8525 90.743 83.9767C90.8131 84.0999 90.9129 84.197 91.0424 84.2682C91.173 84.3383 91.3291 84.3733 91.5106 84.3733C91.6922 84.3733 91.8482 84.3383 91.9788 84.2682C92.1094 84.197 92.2092 84.0999 92.2782 83.9767C92.3483 83.8525 92.3833 83.7108 92.3833 83.5515V81.4239ZM94.1948 84.6854V81.4239H96.1632V81.7743H94.5898V82.8763H96.0613V83.2267H94.5898V84.3351H96.1887V84.6854H94.1948ZM99.2865 82.2393C99.2674 82.0779 99.1899 81.9526 99.054 81.8635C98.9181 81.7743 98.7514 81.7297 98.554 81.7297C98.4096 81.7297 98.2832 81.753 98.1749 81.7998C98.0677 81.8465 97.9838 81.9107 97.9233 81.9924C97.8639 82.0742 97.8341 82.1671 97.8341 82.2711C97.8341 82.3582 97.8548 82.433 97.8962 82.4957C97.9387 82.5573 97.9929 82.6088 98.0587 82.6502C98.1245 82.6905 98.1935 82.724 98.2657 82.7505C98.3379 82.776 98.4043 82.7967 98.4648 82.8126L98.796 82.9018C98.881 82.9241 98.9754 82.9549 99.0795 82.9942C99.1846 83.0334 99.2849 83.0871 99.3805 83.155C99.4771 83.2219 99.5567 83.3079 99.6194 83.413C99.682 83.5181 99.7133 83.6471 99.7133 83.8C99.7133 83.9762 99.6671 84.1355 99.5748 84.2777C99.4835 84.42 99.3497 84.5331 99.1735 84.6169C98.9983 84.7008 98.7854 84.7428 98.5348 84.7428C98.3013 84.7428 98.099 84.7051 97.9281 84.6297C97.7582 84.5543 97.6244 84.4492 97.5268 84.3144C97.4302 84.1795 97.3755 84.0229 97.3627 83.8446H97.7704C97.781 83.9677 97.8225 84.0696 97.8946 84.1503C97.9679 84.23 98.0603 84.2894 98.1718 84.3287C98.2843 84.3669 98.4053 84.386 98.5348 84.386C98.6856 84.386 98.821 84.3616 98.9409 84.3128C99.0609 84.2629 99.1559 84.1939 99.226 84.1057C99.2961 84.0166 99.3311 83.9125 99.3311 83.7936C99.3311 83.6853 99.3009 83.5972 99.2403 83.5292C99.1798 83.4613 99.1002 83.4061 99.0015 83.3636C98.9027 83.3212 98.796 83.284 98.6814 83.2521L98.28 83.1375C98.0252 83.0642 97.8235 82.9596 97.6749 82.8238C97.5262 82.6879 97.4519 82.51 97.4519 82.2903C97.4519 82.1076 97.5013 81.9484 97.6 81.8125C97.6998 81.6755 97.8336 81.5694 98.0013 81.494C98.1702 81.4175 98.3586 81.3793 98.5667 81.3793C98.7769 81.3793 98.9638 81.417 99.1273 81.4924C99.2908 81.5667 99.4203 81.6686 99.5158 81.7982C99.6125 81.9277 99.6634 82.0747 99.6687 82.2393H99.2865ZM100.812 81.7743V81.4239H103.258V81.7743H102.233V84.6854H101.838V81.7743H100.812ZM104.496 84.6854V81.4239H105.598C105.853 81.4239 106.062 81.4674 106.225 81.5545C106.389 81.6405 106.51 81.7589 106.588 81.9096C106.667 82.0604 106.706 82.2319 106.706 82.424C106.706 82.6162 106.667 82.7866 106.588 82.9352C106.51 83.0839 106.389 83.2007 106.227 83.2856C106.064 83.3695 105.857 83.4114 105.604 83.4114H104.712V83.0547H105.591C105.765 83.0547 105.906 83.0292 106.012 82.9782C106.119 82.9273 106.197 82.8551 106.244 82.7616C106.293 82.6672 106.318 82.5546 106.318 82.424C106.318 82.2934 106.293 82.1793 106.244 82.0816C106.195 81.984 106.117 81.9086 106.01 81.8555C105.903 81.8013 105.761 81.7743 105.585 81.7743H104.891V84.6854H104.496ZM106.031 83.2203L106.834 84.6854H106.375L105.585 83.2203H106.031ZM108.387 81.4239V84.6854H107.992V81.4239H108.387ZM109.941 84.6854H109.526L110.724 81.4239H111.132L112.329 84.6854H111.915L110.941 81.9399H110.915L109.941 84.6854ZM110.093 83.4114H111.762V83.7618H110.093V83.4114ZM116.051 81.4239V84.6854H115.669L113.892 82.1246H113.86V84.6854H113.465V81.4239H113.847L115.631 83.9911H115.663V81.4239H116.051Z" fill="#00093A"/>
<line x1="117.977" y1="82.4051" x2="129.188" y2="82.4051" stroke="#00093A" stroke-width="0.560572"/>
</svg>
