<svg width="216" height="187" viewBox="0 0 216 187" fill="none" xmlns="http://www.w3.org/2000/svg">
<path d="M103.204 0.274182C109.724 -0.530843 119.937 0.551917 126.296 2.02776C145.653 6.58471 162.452 18.5471 173.09 35.3487C179.617 45.8661 185.121 62.6035 184.249 75.6492C184.068 78.3804 179.438 79.3576 178.845 75.6568C178.475 73.3576 178.475 71.0435 178.232 68.6896C177.728 63.5597 176.605 58.5096 174.888 53.6494C169.489 38.4528 157.638 25.7799 143.09 18.9189C128.18 11.8373 111.063 10.9812 95.5189 16.5392C98.3854 16.4239 101.37 15.8617 104.291 15.8216C113.384 15.6967 122.279 17.7067 130.537 21.4255C145.904 28.3452 157.471 40.2085 163.462 56.004C169.327 71.5615 168.854 88.7994 162.144 104.012C155.825 118.026 143.857 130.12 129.372 135.576C126.96 136.553 123.932 137.036 121.367 136.965C115.35 136.799 114.86 133.285 114.927 128.155C114.953 126.146 114.922 123.769 114.925 121.723L114.946 87.2975C114.953 80.1462 115.534 71.46 114.156 64.5503C111.326 50.3572 97.0995 50.3639 86.14 49.9787C86.1722 50.1625 86.5402 51.9345 86.6252 51.9538C91.0436 52.9623 93.9404 52.8446 97.4292 56.4903C99.795 58.9624 102.244 63.0682 102.683 66.6387C103.614 74.2053 103.25 82.2897 103.251 89.9476L103.264 132.708C100.761 134.491 98.0585 136.121 95.4451 137.749C92.1521 137.333 84.2119 135.482 80.9337 134.609C79.2111 132.487 73.8179 123.431 72.1482 120.702L58.449 98.4277C55.8533 94.1748 52.9484 89.0523 50.1857 84.9957C50.1676 89.2489 50.121 93.5016 50.0458 97.754C48.4585 95.1341 46.7325 92.9888 45.3002 90.1215C39.3681 78.2472 38.3668 68.5931 39.5304 55.7894C36.6756 54.3238 32.4537 51.9285 29.8055 50.1962C33.3633 48.354 37.7688 47.2338 41.6478 46.0307C44.2942 38.785 46.6635 34.095 51.5767 28.121C65.4791 11.2171 81.6898 2.58919 103.204 0.274182ZM69.5714 89.6245L71.2446 92.1434C71.2472 89.3398 71.2699 86.5224 71.2293 83.7188C71.1816 80.4306 71.0419 77.3746 67.3768 76.3852C59.7609 78.1662 67.0738 85.8981 69.5714 89.6245Z" fill="white"/>
<path d="M158.465 150.348C161.727 150.371 164.989 150.363 168.253 150.325C167.281 150.607 165.846 150.855 165.311 151.588C164.915 153.896 165.015 159.434 165.046 161.969C165.091 165.534 164.924 170.166 165.146 173.661C165.865 174.037 166.682 174.497 167.417 174.81C164.566 174.883 161.712 174.934 158.859 174.965L153.054 174.959C151.609 173.216 148.433 168.581 147.246 166.633C146.909 166.351 146.241 165.271 145.954 164.845L142.647 164.687L142.9 164.051C147.05 163.937 149.677 165.442 152.275 161.212C152.917 161.634 153.027 161.689 153.314 162.392C152.447 162.945 149.906 164.098 149.624 164.563L149.648 164.852C152.607 167.818 154.329 173.489 158.842 174.702C159.749 174.475 160.432 174.389 161.118 173.758C161.817 172.562 161.622 154.004 161.519 151.305L158.465 150.348Z" fill="white"/>
<path d="M142.9 164.051C147.05 163.937 149.677 165.441 152.275 161.212C152.917 161.634 153.027 161.689 153.314 162.392C152.447 162.945 149.906 164.098 149.624 164.563L149.648 164.852C148.937 165.077 148.447 165.242 147.7 165.367L147.466 165.126C147.843 164.745 148.175 164.727 148.7 164.601C147.9 164.572 147.213 164.449 146.537 164.817C146.995 165.785 147.557 165.757 147.246 166.633C146.909 166.351 146.241 165.271 145.954 164.845L142.647 164.687L142.9 164.051Z" fill="white"/>
<path d="M20.3415 173.206C19.9893 173.441 19.6311 173.668 19.267 173.884C13.5851 177.236 4.99272 174.819 1.68947 169.079C-0.0157686 166.059 -0.451091 162.486 0.479256 159.145C1.60661 155.147 3.94632 153.364 7.30951 151.444L7.67464 152.03C-1.76398 160.088 7.45685 178.778 19.8802 172.557L20.3415 173.206Z" fill="white"/>
<path d="M39.3867 149.558C41.2851 154.584 43.2146 159.598 45.1748 164.6C46.2821 167.442 47.3025 170.416 48.7424 173.101C49.2609 174.067 49.9462 174.426 50.8799 174.92C47.8673 174.916 43.6661 174.804 40.75 174.985C42.6556 174.521 44.8864 174.175 44.0857 171.308C43.8894 170.605 43.3309 169.314 42.8834 168.753L42.7972 168.369C41.8795 164.877 39.726 160.39 38.4785 156.945C37.9362 155.448 37.1021 153.889 36.8065 152.327L36.9094 152.099L36.4681 151.441L39.3867 149.558Z" fill="white"/>
<path d="M101.471 150.356C102.732 150.344 109.215 150.201 109.903 150.546C109.385 150.749 107.99 151.316 107.921 151.885C107.529 155.044 107.735 159.223 107.771 162.375L112.391 162.375L113.425 163.033L107.771 162.997C107.754 166.497 107.658 170.326 107.869 173.796C108.807 174.207 110.044 174.643 111.023 175.019C108.246 174.79 104.499 174.862 101.579 174.758L104.303 173.803C104.482 171.107 104.652 153.092 104.105 151.483C103.44 150.884 102.358 150.638 101.471 150.356Z" fill="white"/>
<path d="M78.4113 156.829C79.5047 156.094 80.5702 155.592 81.8783 155.374C81.4547 156.767 81.1094 157.886 80.996 159.357C80.3417 167.831 86.6676 176.063 95.7151 173.162L95.6809 174.24C95.4968 174.334 95.3084 174.419 95.1162 174.494C91.8423 175.814 87.784 175.557 84.5791 174.153C81.5015 172.825 79.0801 170.325 77.8506 167.206C76.4689 163.642 76.9021 160.236 78.4113 156.829Z" fill="white"/>
<path d="M63.7167 150.372L66.6288 150.342L65.9831 150.909L65.4802 151.076C65.1841 152.633 65.4544 154.147 65.3651 155.613C65.1667 158.873 65.6438 164.699 65.3181 167.728C65.4585 172.069 64.1248 173.732 68.7954 175.005C66.3542 174.978 63.1379 174.945 60.6613 174.957C60.3987 174.958 60.5164 174.166 59.8067 174.806C60.7953 174.142 61.5974 173.91 61.7796 172.646C62.1464 166.141 61.6996 157.904 61.9152 151.108C62.9466 151.068 62.7398 151.003 63.7167 150.372Z" fill="white"/>
<path d="M65.3181 167.728C65.4585 172.069 64.1248 173.733 68.7954 175.006C66.3542 174.978 63.1379 174.945 60.6613 174.957C60.3987 174.958 60.5164 174.166 59.8067 174.806C60.7953 174.142 61.5974 173.91 61.7796 172.646C61.963 174.704 63.7554 173.448 64.8436 173.85L64.4656 172.958C65.6433 171.605 65.1949 169.825 65.3181 167.728Z" fill="white"/>
<path d="M118.161 150.365C119.675 150.36 125.514 150.236 126.524 150.496C125.936 151.205 124.819 150.95 124.661 151.886C124.301 154.085 124.513 156.518 124.494 158.78C124.456 163.145 124.408 167.522 124.484 171.885C124.525 174.237 125.542 174.276 127.541 174.919C125.85 174.932 119.988 175.081 118.632 174.894C119.701 174.17 120.9 174.052 120.979 172.898C121.122 170.789 121.313 164.884 121.051 163.002L121.21 162.496L121.184 162.208C120.898 159.148 121.917 153.971 120.396 151.314C120.172 150.922 118.703 150.536 118.161 150.365Z" fill="white"/>
<path d="M196.786 173.231C197.097 170.936 197.309 153.227 196.786 151.698C196.211 150.933 195.697 150.964 194.761 150.585C195.346 150.109 202.384 150.34 203.528 150.353L203.74 150.966C202.675 150.958 201.462 150.922 200.411 150.971C200.411 153.069 200.519 160.996 200.23 162.535L200.371 162.879C200.366 164.602 200.139 173.443 200.736 174.286L201.039 174.38L200.528 174.703L200.519 174.919C198.804 175.034 196.123 174.944 194.336 174.939C195.198 174.45 195.991 173.824 196.786 173.231Z" fill="white"/>
<path d="M137.573 151.981C138.256 150.876 137.945 151.027 138.991 150.562C139.896 150.607 140.326 150.933 141.1 151.376C141.155 153.28 140.808 162.898 141.422 163.697L142.9 164.051L142.647 164.687L141.317 164.832L141.143 165.084C141.03 166.437 140.806 172.395 141.553 174.028C141.606 174.143 142.645 174.351 142.953 174.866C141.637 175.127 136.293 174.918 134.659 174.886C135.557 174.573 136.429 174.344 137.162 173.746C137.993 172.115 137.594 155.181 137.573 151.981Z" fill="white"/>
<path d="M174.81 151.263C174.772 154.828 174.33 171.682 175.054 173.563C175.204 174.014 175.29 174.239 175.367 174.719L175.083 174.957C173.726 174.982 170.101 175.054 168.972 174.729C169.523 174.412 170.137 174.097 170.639 173.706C171.933 172.695 170.94 155.904 171.336 153.056C172.606 151.452 172.802 151.755 174.81 151.263Z" fill="white"/>
<path d="M186.447 154.774C186.882 154.309 187.928 153.616 188.529 153.048C191.201 155.385 192.288 157.699 192.541 161.264C193.09 169.047 187.393 174.673 179.758 174.904C178.182 174.952 176.647 174.981 175.083 174.957L175.367 174.719C175.29 174.239 175.205 174.013 175.054 173.563C175.154 173.594 175.257 173.624 175.357 173.653C180.721 175.209 186.977 174.253 188.36 167.975C189.367 163.398 188.873 158.831 186.447 154.774Z" fill="white"/>
<path d="M137.572 151.981C136.884 151.143 136.652 151.104 135.611 150.869L135.315 150.475C136.115 150.036 147.362 150.505 149.089 150.552C155.617 150.731 158.973 157.888 153.313 162.392C153.026 161.689 152.917 161.634 152.274 161.212C153.452 157.248 152.714 152.182 147.983 151.279C146.526 151.001 142.29 150.664 141.099 151.376C140.325 150.933 139.895 150.607 138.99 150.563C137.944 151.027 138.255 150.876 137.572 151.981Z" fill="white"/>
<path d="M78.4106 156.829C78.6919 156.311 79.0155 155.817 79.3777 155.353C84.5691 148.633 93.7231 148.335 100.195 153.428C98.393 155.578 96.7673 157.87 95.3345 160.282C98.5907 149.274 86.6765 147.546 81.8777 155.374C80.5696 155.592 79.504 156.094 78.4106 156.829Z" fill="white"/>
<path d="M14.1243 149.923C17.7196 150.091 20.2974 150.936 22.9105 153.459L18.2165 159.94C19.645 155.687 19.0719 151.952 14.1551 150.867L14.1243 149.923Z" fill="white"/>
<path d="M28.6423 169.287C29.8884 166.509 35.4489 152.846 36.4676 151.441L36.9089 152.099L36.806 152.327C34.3801 157.016 31.8844 163.376 29.8463 168.29C33.9426 168.276 38.762 168.151 42.7967 168.369L42.8829 168.753C40.6184 169.579 30.7597 168.192 29.3974 169.292L29.2457 169.705L28.6423 169.287Z" fill="white"/>
<path d="M215.28 167.615C214.695 170.163 213.926 172.807 213.231 175.339C211.02 174.873 209.351 174.962 207.111 174.95L207.304 174.291C211.345 173.732 213.341 170.958 215.28 167.615Z" fill="white"/>
<path d="M69.0961 150.332C71.1904 150.347 73.0806 150.394 75.1658 150.174C74.3904 152.765 73.5852 155.336 73.0023 157.979C72.892 155.294 72.9651 154.429 71.5087 152.078C70.8288 151.746 69.9214 151.263 69.2239 151.033L69.0961 150.332Z" fill="white"/>
<path d="M203.528 150.354L212.712 150.298C213.139 152.354 213.531 154.159 214.087 156.181C210.341 151.305 209.605 151.125 203.74 150.966L203.528 150.354Z" fill="white"/>
<path d="M53.2073 150.289C54.7069 150.341 56.3539 150.326 57.8664 150.342L58.0465 151.11C54.2138 152.251 53.4131 154.625 51.8944 158.017C52.1623 155.67 52.7438 152.633 53.2073 150.289Z" fill="white"/>
<path d="M171.336 153.056C171.209 152.279 171.183 151.942 170.834 151.212C170.18 151.026 169.528 150.829 168.881 150.621L169.01 150.429C171.918 150.303 180.209 150.042 182.736 150.752C182.941 151.432 182.943 151.518 183.349 152.083C182.963 151.915 182.566 151.768 182.163 151.642C180.601 151.144 176.188 150.557 174.81 151.263C172.802 151.755 172.606 151.452 171.336 153.056Z" fill="white"/>
<path d="M182.736 150.752C184.821 151.078 186.851 151.708 188.53 153.048C187.928 153.616 186.882 154.309 186.447 154.774C185.113 153.394 184.986 153.194 183.35 152.083C182.944 151.518 182.942 151.431 182.736 150.752Z" fill="white"/>
<path d="M206.159 162.348C208.251 162.011 209.116 161.726 210.393 159.941C210.527 159.755 210.656 159.567 210.782 159.377C210.706 161.531 210.668 163.687 210.67 165.842C209.369 163.633 208.901 163.282 206.36 162.894L206.159 162.348Z" fill="white"/>
<path d="M24.5086 174.927C27.2462 173.263 27.4647 172.274 28.6441 169.287L29.2475 169.706C28.5204 171.882 27.8095 173.464 30.2705 174.7L30.5088 174.818L30.3854 175.047C28.6601 174.857 26.2953 174.923 24.5086 174.927Z" fill="white"/>
<path d="M112.391 162.375C114.244 162.36 119.624 162.226 121.209 162.496L121.049 163.002C118.585 163.068 115.908 163.024 113.425 163.033L112.391 162.375Z" fill="white"/>
<path d="M7.30914 151.444C9.81387 150.265 11.4296 150.118 14.1241 149.923L14.1549 150.867C11.4721 150.734 10.1164 150.692 7.67427 152.03L7.30914 151.444Z" fill="white"/>
<path d="M201.039 174.38C203.169 174.223 205.168 174.267 207.303 174.291L207.109 174.95C204.912 174.96 202.716 174.949 200.519 174.919L200.528 174.703L201.039 174.38Z" fill="white"/>
<path d="M57.865 150.342C59.8148 150.29 61.766 150.3 63.7153 150.373C62.7384 151.003 62.9452 151.069 61.9138 151.109C61.2695 150.645 58.9062 151.007 58.0451 151.11L57.865 150.342Z" fill="white"/>
<path d="M200.23 162.535C201.734 162.253 204.576 162.275 206.159 162.348L206.359 162.894L200.37 162.88L200.23 162.535Z" fill="white"/>
<path d="M95.7148 173.162C96.5267 172.753 98.806 171.278 99.2509 171.243C98.2663 172.682 97.1523 173.357 95.6806 174.24L95.7148 173.162Z" fill="white"/>
<path d="M19.881 172.557C20.5888 172.043 21.2357 171.394 21.9996 171.316C21.8625 171.997 20.8873 172.772 20.3423 173.206L19.881 172.557Z" fill="white"/>
<path d="M66.6302 150.342L69.0969 150.333L69.2247 151.033C68.2019 150.923 67.0247 150.929 65.9845 150.909L66.6302 150.342Z" fill="white"/>
<path d="M190.418 179.879C191.202 180.705 191.288 181.045 191.149 182.18L190.6 182.528C190.215 181.834 190.392 180.779 190.418 179.879Z" fill="white"/>
<path d="M19.128 183.73V178.012H22.5567V178.626H19.8204V180.558H22.2998V181.172H19.8204V183.73H19.128ZM29.3537 180.871C29.3537 181.474 29.2448 181.995 29.027 182.434C28.8092 182.874 28.5105 183.213 28.1307 183.451C27.751 183.689 27.3173 183.808 26.8296 183.808C26.3419 183.808 25.9082 183.689 25.5285 183.451C25.1488 183.213 24.85 182.874 24.6322 182.434C24.4144 181.995 24.3055 181.474 24.3055 180.871C24.3055 180.268 24.4144 179.747 24.6322 179.307C24.85 178.868 25.1488 178.529 25.5285 178.291C25.9082 178.053 26.3419 177.934 26.8296 177.934C27.3173 177.934 27.751 178.053 28.1307 178.291C28.5105 178.529 28.8092 178.868 29.027 179.307C29.2448 179.747 29.3537 180.268 29.3537 180.871ZM28.6836 180.871C28.6836 180.376 28.6007 179.958 28.4351 179.617C28.2713 179.277 28.0488 179.019 27.7678 178.844C27.4885 178.669 27.1758 178.581 26.8296 178.581C26.4834 178.581 26.1697 178.669 25.8887 178.844C25.6095 179.019 25.387 179.277 25.2214 179.617C25.0576 179.958 24.9756 180.376 24.9756 180.871C24.9756 181.366 25.0576 181.784 25.2214 182.125C25.387 182.465 25.6095 182.723 25.8887 182.898C26.1697 183.073 26.4834 183.16 26.8296 183.16C27.1758 183.16 27.4885 183.073 27.7678 182.898C28.0488 182.723 28.2713 182.465 28.4351 182.125C28.6007 181.784 28.6836 181.366 28.6836 180.871ZM31.3042 183.73V178.012H33.2364C33.6831 178.012 34.0498 178.088 34.3365 178.241C34.6231 178.391 34.8353 178.599 34.9731 178.863C35.1108 179.128 35.1797 179.428 35.1797 179.765C35.1797 180.102 35.1108 180.401 34.9731 180.661C34.8353 180.922 34.6241 181.127 34.3393 181.276C34.0545 181.423 33.6906 181.496 33.2476 181.496H31.684V180.871H33.2252C33.5305 180.871 33.7762 180.826 33.9623 180.737C34.1503 180.647 34.2862 180.521 34.37 180.357C34.4556 180.191 34.4984 179.994 34.4984 179.765C34.4984 179.536 34.4556 179.336 34.37 179.165C34.2844 178.994 34.1475 178.861 33.9595 178.768C33.7715 178.673 33.523 178.626 33.2141 178.626H31.9967V183.73H31.3042ZM33.9958 181.161L35.4031 183.73H34.5989L33.2141 181.161H33.9958Z" fill="white"/>
<path d="M39.4361 178.626V178.012H43.7248V178.626H41.9267V183.73H41.2343V178.626H39.4361ZM45.5798 183.73V178.012H46.2722V180.558H49.3212V178.012H50.0136V183.73H49.3212V181.172H46.2722V183.73H45.5798ZM52.1862 183.73V178.012H55.6372V178.626H52.8786V180.558H55.4585V181.172H52.8786V183.116H55.6819V183.73H52.1862Z" fill="white"/>
<path d="M61.9422 183.73V178.012H63.8744C64.323 178.012 64.6897 178.093 64.9745 178.255C65.2611 178.415 65.4733 178.632 65.6111 178.905C65.7488 179.179 65.8177 179.484 65.8177 179.821C65.8177 180.158 65.7488 180.464 65.6111 180.74C65.4752 181.015 65.2649 181.235 64.9801 181.399C64.6953 181.561 64.3304 181.641 63.8856 181.641H62.5007V181.027H63.8632C64.1704 181.027 64.417 180.974 64.6031 180.868C64.7893 180.762 64.9242 180.619 65.008 180.438C65.0936 180.256 65.1364 180.05 65.1364 179.821C65.1364 179.592 65.0936 179.387 65.008 179.207C64.9242 179.026 64.7883 178.885 64.6003 178.782C64.4123 178.678 64.1629 178.626 63.852 178.626H62.6347V183.73H61.9422ZM67.8767 183.73V178.012H69.8088C70.2555 178.012 70.6222 178.088 70.9089 178.241C71.1955 178.391 71.4077 178.599 71.5455 178.863C71.6832 179.128 71.7521 179.428 71.7521 179.765C71.7521 180.102 71.6832 180.401 71.5455 180.661C71.4077 180.922 71.1965 181.127 70.9117 181.276C70.6269 181.423 70.263 181.496 69.82 181.496H68.2564V180.871H69.7976C70.1029 180.871 70.3486 180.826 70.5347 180.737C70.7227 180.647 70.8586 180.521 70.9424 180.357C71.028 180.191 71.0708 179.994 71.0708 179.765C71.0708 179.536 71.028 179.336 70.9424 179.165C70.8568 178.994 70.72 178.861 70.532 178.768C70.344 178.673 70.0955 178.626 69.7865 178.626H68.5691V183.73H67.8767ZM70.5682 181.161L71.9755 183.73H71.1713L69.7865 181.161H70.5682ZM78.6742 180.871C78.6742 181.474 78.5653 181.995 78.3475 182.434C78.1298 182.874 77.831 183.213 77.4513 183.451C77.0716 183.689 76.6378 183.808 76.1502 183.808C75.6625 183.808 75.2288 183.689 74.849 183.451C74.4693 183.213 74.1705 182.874 73.9528 182.434C73.735 181.995 73.6261 181.474 73.6261 180.871C73.6261 180.268 73.735 179.747 73.9528 179.307C74.1705 178.868 74.4693 178.529 74.849 178.291C75.2288 178.053 75.6625 177.934 76.1502 177.934C76.6378 177.934 77.0716 178.053 77.4513 178.291C77.831 178.529 78.1298 178.868 78.3475 179.307C78.5653 179.747 78.6742 180.268 78.6742 180.871ZM78.0041 180.871C78.0041 180.376 77.9213 179.958 77.7556 179.617C77.5918 179.277 77.3694 179.019 77.0883 178.844C76.8091 178.669 76.4964 178.581 76.1502 178.581C75.8039 178.581 75.4903 178.669 75.2092 178.844C74.93 179.019 74.7076 179.277 74.5419 179.617C74.3781 179.958 74.2962 180.376 74.2962 180.871C74.2962 181.366 74.3781 181.784 74.5419 182.125C74.7076 182.465 74.93 182.723 75.2092 182.898C75.4903 183.073 75.8039 183.16 76.1502 183.16C76.4964 183.16 76.8091 183.073 77.0883 182.898C77.3694 182.723 77.5918 182.465 77.7556 182.125C77.9213 181.784 78.0041 181.366 78.0041 180.871ZM80.782 183.73V178.012H84.2108V178.626H81.4745V180.558H83.9539V181.172H81.4745V183.73H80.782ZM86.3402 183.73V178.012H89.7913V178.626H87.0327V180.558H89.6126V181.172H87.0327V183.116H89.8359V183.73H86.3402ZM95.11 179.441C95.0765 179.158 94.9406 178.939 94.7024 178.782C94.4641 178.626 94.1719 178.548 93.8256 178.548C93.5725 178.548 93.351 178.589 93.1611 178.671C92.9731 178.753 92.8261 178.865 92.72 179.009C92.6157 179.152 92.5636 179.315 92.5636 179.497C92.5636 179.65 92.5999 179.781 92.6725 179.891C92.747 179.999 92.8419 180.089 92.9573 180.162C93.0727 180.232 93.1937 180.291 93.3203 180.338C93.4468 180.382 93.5632 180.419 93.6693 180.446L94.25 180.603C94.399 180.642 94.5646 180.696 94.747 180.765C94.9313 180.834 95.1072 180.928 95.2748 181.047C95.4441 181.164 95.5837 181.315 95.6936 181.499C95.8034 181.683 95.8583 181.91 95.8583 182.178C95.8583 182.487 95.7773 182.766 95.6154 183.015C95.4553 183.265 95.2208 183.463 94.9118 183.61C94.6046 183.757 94.2314 183.83 93.7921 183.83C93.3826 183.83 93.028 183.764 92.7283 183.632C92.4305 183.5 92.196 183.316 92.0247 183.079C91.8553 182.843 91.7595 182.568 91.7371 182.256H92.4519C92.4705 182.472 92.5431 182.65 92.6697 182.792C92.7981 182.931 92.9601 183.036 93.1555 183.105C93.3528 183.172 93.565 183.205 93.7921 183.205C94.0565 183.205 94.2938 183.162 94.5041 183.077C94.7145 182.989 94.8811 182.868 95.0039 182.714C95.1268 182.557 95.1882 182.375 95.1882 182.166C95.1882 181.977 95.1351 181.822 95.029 181.703C94.9229 181.584 94.7833 181.487 94.6102 181.413C94.4371 181.338 94.25 181.273 94.049 181.217L93.3454 181.016C92.8987 180.888 92.545 180.704 92.2844 180.466C92.0238 180.228 91.8935 179.916 91.8935 179.531C91.8935 179.21 91.9801 178.931 92.1532 178.693C92.3281 178.453 92.5627 178.267 92.8568 178.135C93.1527 178.001 93.4831 177.934 93.848 177.934C94.2165 177.934 94.5441 178 94.8308 178.132C95.1175 178.262 95.3446 178.441 95.5121 178.668C95.6815 178.895 95.7708 179.153 95.7801 179.441H95.11ZM101.067 179.441C101.034 179.158 100.898 178.939 100.66 178.782C100.422 178.626 100.129 178.548 99.7831 178.548C99.5299 178.548 99.3084 178.589 99.1186 178.671C98.9306 178.753 98.7835 178.865 98.6774 179.009C98.5732 179.152 98.5211 179.315 98.5211 179.497C98.5211 179.65 98.5574 179.781 98.6299 179.891C98.7044 179.999 98.7993 180.089 98.9147 180.162C99.0302 180.232 99.1511 180.291 99.2777 180.338C99.4043 180.382 99.5206 180.419 99.6267 180.446L100.207 180.603C100.356 180.642 100.522 180.696 100.704 180.765C100.889 180.834 101.065 180.928 101.232 181.047C101.402 181.164 101.541 181.315 101.651 181.499C101.761 181.683 101.816 181.91 101.816 182.178C101.816 182.487 101.735 182.766 101.573 183.015C101.413 183.265 101.178 183.463 100.869 183.61C100.562 183.757 100.189 183.83 99.7496 183.83C99.3401 183.83 98.9855 183.764 98.6858 183.632C98.388 183.5 98.1534 183.316 97.9822 183.079C97.8128 182.843 97.7169 182.568 97.6946 182.256H98.4094C98.428 182.472 98.5006 182.65 98.6272 182.792C98.7556 182.931 98.9175 183.036 99.113 183.105C99.3103 183.172 99.5225 183.205 99.7496 183.205C100.014 183.205 100.251 183.162 100.462 183.077C100.672 182.989 100.839 182.868 100.961 182.714C101.084 182.557 101.146 182.375 101.146 182.166C101.146 181.977 101.093 181.822 100.986 181.703C100.88 181.584 100.741 181.487 100.568 181.413C100.395 181.338 100.207 181.273 100.006 181.217L99.3028 181.016C98.8561 180.888 98.5024 180.704 98.2418 180.466C97.9812 180.228 97.8509 179.916 97.8509 179.531C97.8509 179.21 97.9375 178.931 98.1106 178.693C98.2856 178.453 98.5201 178.267 98.8142 178.135C99.1102 178.001 99.4406 177.934 99.8054 177.934C100.174 177.934 100.502 178 100.788 178.132C101.075 178.262 101.302 178.441 101.47 178.668C101.639 178.895 101.728 179.153 101.738 179.441H101.067ZM104.59 178.012V183.73H103.898V178.012H104.59ZM111.747 180.871C111.747 181.474 111.638 181.995 111.42 182.434C111.202 182.874 110.904 183.213 110.524 183.451C110.144 183.689 109.71 183.808 109.223 183.808C108.735 183.808 108.301 183.689 107.922 183.451C107.542 183.213 107.243 182.874 107.025 182.434C106.808 181.995 106.699 181.474 106.699 180.871C106.699 180.268 106.808 179.747 107.025 179.307C107.243 178.868 107.542 178.529 107.922 178.291C108.301 178.053 108.735 177.934 109.223 177.934C109.71 177.934 110.144 178.053 110.524 178.291C110.904 178.529 111.202 178.868 111.42 179.307C111.638 179.747 111.747 180.268 111.747 180.871ZM111.077 180.871C111.077 180.376 110.994 179.958 110.828 179.617C110.664 179.277 110.442 179.019 110.161 178.844C109.882 178.669 109.569 178.581 109.223 178.581C108.877 178.581 108.563 178.669 108.282 178.844C108.003 179.019 107.78 179.277 107.615 179.617C107.451 179.958 107.369 180.376 107.369 180.871C107.369 181.366 107.451 181.784 107.615 182.125C107.78 182.465 108.003 182.723 108.282 182.898C108.563 183.073 108.877 183.16 109.223 183.16C109.569 183.16 109.882 183.073 110.161 182.898C110.442 182.723 110.664 182.465 110.828 182.125C110.994 181.784 111.077 181.366 111.077 180.871ZM118.389 178.012V183.73H117.719L114.603 179.24H114.547V183.73H113.855V178.012H114.525L117.652 182.513H117.708V178.012H118.389ZM120.953 183.73H120.227L122.326 178.012H123.041L125.141 183.73H124.415L122.706 178.916H122.661L120.953 183.73ZM121.221 181.496H124.147V182.111H121.221V181.496ZM126.975 183.73V178.012H127.667V183.116H130.326V183.73H126.975Z" fill="white"/>
<path d="M136.136 183.73V178.012H139.587V178.626H136.828V180.558H139.408V181.172H136.828V183.116H139.631V183.73H136.136ZM144.013 181.943H144.772L145.409 182.781L145.576 183.004L146.526 184.266H145.766L145.141 183.428L144.984 183.216L144.013 181.943ZM146.76 180.871C146.76 181.474 146.651 181.995 146.434 182.434C146.216 182.874 145.917 183.213 145.537 183.451C145.158 183.689 144.724 183.808 144.236 183.808C143.749 183.808 143.315 183.689 142.935 183.451C142.555 183.213 142.257 182.874 142.039 182.434C141.821 181.995 141.712 181.474 141.712 180.871C141.712 180.268 141.821 179.747 142.039 179.307C142.257 178.868 142.555 178.529 142.935 178.291C143.315 178.053 143.749 177.934 144.236 177.934C144.724 177.934 145.158 178.053 145.537 178.291C145.917 178.529 146.216 178.868 146.434 179.307C146.651 179.747 146.76 180.268 146.76 180.871ZM146.09 180.871C146.09 180.376 146.007 179.958 145.842 179.617C145.678 179.277 145.455 179.019 145.174 178.844C144.895 178.669 144.582 178.581 144.236 178.581C143.89 178.581 143.576 178.669 143.295 178.844C143.016 179.019 142.794 179.277 142.628 179.617C142.464 179.958 142.382 180.376 142.382 180.871C142.382 181.366 142.464 181.784 142.628 182.125C142.794 182.465 143.016 182.723 143.295 182.898C143.576 183.073 143.89 183.16 144.236 183.16C144.582 183.16 144.895 183.073 145.174 182.898C145.455 182.723 145.678 182.465 145.842 182.125C146.007 181.784 146.09 181.366 146.09 180.871ZM152.778 178.012H153.47V181.798C153.47 182.189 153.378 182.538 153.194 182.845C153.012 183.15 152.754 183.391 152.421 183.568C152.087 183.743 151.696 183.83 151.248 183.83C150.799 183.83 150.408 183.743 150.075 183.568C149.742 183.391 149.483 183.15 149.299 182.845C149.117 182.538 149.025 182.189 149.025 181.798V178.012H149.718V181.742C149.718 182.021 149.779 182.27 149.902 182.487C150.025 182.703 150.2 182.874 150.427 182.998C150.656 183.121 150.93 183.183 151.248 183.183C151.566 183.183 151.84 183.121 152.069 182.998C152.298 182.874 152.473 182.703 152.594 182.487C152.717 182.27 152.778 182.021 152.778 181.742V178.012ZM155.954 183.73V178.012H159.405V178.626H156.646V180.558H159.226V181.172H156.646V183.116H159.45V183.73H155.954ZM164.881 179.441C164.847 179.158 164.712 178.939 164.473 178.782C164.235 178.626 163.943 178.548 163.597 178.548C163.343 178.548 163.122 178.589 162.932 178.671C162.744 178.753 162.597 178.865 162.491 179.009C162.387 179.152 162.335 179.315 162.335 179.497C162.335 179.65 162.371 179.781 162.443 179.891C162.518 179.999 162.613 180.089 162.728 180.162C162.844 180.232 162.965 180.291 163.091 180.338C163.218 180.382 163.334 180.419 163.44 180.446L164.021 180.603C164.17 180.642 164.336 180.696 164.518 180.765C164.702 180.834 164.878 180.928 165.046 181.047C165.215 181.164 165.355 181.315 165.465 181.499C165.574 181.683 165.629 181.91 165.629 182.178C165.629 182.487 165.548 182.766 165.386 183.015C165.226 183.265 164.992 183.463 164.683 183.61C164.376 183.757 164.002 183.83 163.563 183.83C163.154 183.83 162.799 183.764 162.499 183.632C162.201 183.5 161.967 183.316 161.796 183.079C161.626 182.843 161.53 182.568 161.508 182.256H162.223C162.242 182.472 162.314 182.65 162.441 182.792C162.569 182.931 162.731 183.036 162.926 183.105C163.124 183.172 163.336 183.205 163.563 183.205C163.827 183.205 164.065 183.162 164.275 183.077C164.485 182.989 164.652 182.868 164.775 182.714C164.898 182.557 164.959 182.375 164.959 182.166C164.959 181.977 164.906 181.822 164.8 181.703C164.694 181.584 164.554 181.487 164.381 181.413C164.208 181.338 164.021 181.273 163.82 181.217L163.116 181.016C162.67 180.888 162.316 180.704 162.055 180.466C161.795 180.228 161.664 179.916 161.664 179.531C161.664 179.21 161.751 178.931 161.924 178.693C162.099 178.453 162.334 178.267 162.628 178.135C162.924 178.001 163.254 177.934 163.619 177.934C163.988 177.934 164.315 178 164.602 178.132C164.888 178.262 165.116 178.441 165.283 178.668C165.452 178.895 165.542 179.153 165.551 179.441H164.881ZM167.556 178.626V178.012H171.844V178.626H170.046V183.73H169.354V178.626H167.556ZM174.014 183.73V178.012H175.946C176.393 178.012 176.759 178.088 177.046 178.241C177.333 178.391 177.545 178.599 177.683 178.863C177.82 179.128 177.889 179.428 177.889 179.765C177.889 180.102 177.82 180.401 177.683 180.661C177.545 180.922 177.334 181.127 177.049 181.276C176.764 181.423 176.4 181.496 175.957 181.496H174.394V180.871H175.935C176.24 180.871 176.486 180.826 176.672 180.737C176.86 180.647 176.996 180.521 177.08 180.357C177.165 180.191 177.208 179.994 177.208 179.765C177.208 179.536 177.165 179.336 177.08 179.165C176.994 178.994 176.857 178.861 176.669 178.768C176.481 178.673 176.233 178.626 175.924 178.626H174.706V183.73H174.014ZM176.706 181.161L178.113 183.73H177.309L175.924 181.161H176.706ZM180.836 178.012V183.73H180.144V178.012H180.836ZM183.56 183.73H182.834L184.934 178.012H185.649L187.748 183.73H187.022L185.314 178.916H185.269L183.56 183.73ZM183.828 181.496H186.754V182.111H183.828V181.496ZM194.274 178.012V183.73H193.604L190.488 179.24H190.432V183.73H189.74V178.012H190.41L193.537 182.513H193.593V178.012H194.274Z" fill="white"/>
</svg>
