<svg width="24" height="24" viewBox="0 0 24 24" fill="none" xmlns="http://www.w3.org/2000/svg">
<g clip-path="url(#clip0_29753_10651)">
<path d="M9.64098 4.22518C11.3721 4.0472 11.9485 5.51961 12.9579 6.6039C13.865 6.38525 14.7791 6.03683 15.6866 5.80466C15.9795 5.72973 16.2776 5.71672 16.5441 5.88742C16.7327 6.0125 16.9658 6.25531 17.0039 6.49028C17.1635 7.47418 16.4241 7.6606 15.7457 7.8876L14.6267 8.26149C14.1263 8.4286 13.6301 8.60645 13.1224 8.75134C12.7648 8.85338 12.5028 8.72849 12.2124 8.52713C11.9181 8.32311 11.638 8.10484 11.3347 7.91326C11.0037 8.88081 10.6702 9.95741 10.371 10.9376C10.8114 11.2398 11.2761 11.6313 11.7133 11.9523C12.0305 12.2043 12.3674 12.4329 12.671 12.7013C12.9426 12.9414 12.9911 13.1625 12.9976 13.5087L12.8299 16.1987C12.8013 16.6505 12.7849 17.0931 12.7314 17.5524C12.5965 18.7107 10.9517 18.7706 10.7352 17.6511C10.6711 17.3195 10.7249 16.723 10.737 16.36C10.7652 15.6607 10.7865 14.9611 10.8009 14.2614C10.5546 14.0717 10.1068 13.8121 9.83694 13.6399C8.98719 13.0974 8.10386 12.5664 7.26236 12.015C6.77411 11.6951 6.40244 11.1576 6.3088 10.583C6.26889 10.3381 6.25415 9.94602 6.32181 9.70349C6.49628 9.07813 6.77727 8.4242 7.009 7.81063C7.30661 7.06166 7.57213 6.29778 7.88455 5.55503C8.21434 4.77097 8.82855 4.36119 9.64098 4.22518Z" fill="black"/>
<path d="M5.70629 11.2571C5.77969 11.2489 5.89334 11.2464 5.97029 11.2422C6.07154 11.5075 6.46081 12.0546 6.69308 12.2205C7.8305 13.0326 9.10674 13.7676 10.2784 14.5266C10.302 15.5909 10.1532 16.7219 10.2276 17.8177C8.8378 17.8481 7.77673 17.738 6.44433 17.38C6.46454 16.8681 6.41141 16.356 6.28655 15.8593C6.21887 15.5866 5.96042 14.6258 5.69853 14.5344C5.04692 14.3071 5.51534 15.1273 5.58155 15.2966C6.06031 16.5207 6.0639 17.7747 5.58791 18.996C5.22198 19.7996 4.70616 20.24 4.49286 21.1637C4.26357 22.1566 4.41826 22.9839 4.93766 23.8517C4.23809 23.8556 3.51917 23.8411 2.82359 23.8505C2.84356 22.4515 2.80993 21.0417 2.84094 19.642C2.85669 18.9314 3.04892 18.2847 3.0144 17.5694C2.98761 17.0148 2.81403 16.604 2.73366 16.0865C2.54914 14.8983 2.60825 13.5384 3.35152 12.5388C3.9429 11.7434 4.75484 11.4037 5.70629 11.2571Z" fill="black"/>
<path d="M11.4152 0.154747C12.423 0.0685587 13.3114 0.811883 13.4045 1.81908C13.4975 2.82627 12.7602 3.71975 11.7537 3.81962C10.7374 3.92045 9.83343 3.1745 9.73949 2.15759C9.64555 1.14068 10.3976 0.241768 11.4152 0.154747Z" fill="black"/>
<path d="M19.4124 5.55344C19.5853 4.88773 19.9978 4.29851 20.6696 4.05061C20.6934 4.04264 20.7663 4.09608 20.7789 4.11523C21.0341 4.50298 21.1466 5.05289 21.1835 5.50837C21.202 5.73574 21.1872 5.94994 21.1752 6.15958C21.8727 6.71369 22.3162 7.09816 22.9584 7.72563C22.7299 8.17141 22.3243 8.65162 22.0567 9.08679C21.8708 9.38906 21.6386 9.69776 21.4337 9.98784C21.3567 10.0968 21.1973 10.1383 21.0726 10.1437C20.4579 10.1699 19.5105 9.79882 19.1482 9.28877C19.065 9.17913 19.0163 8.68242 18.8929 8.63013C18.4647 8.44863 18.4849 8.88963 18.5442 9.10322C18.6945 9.6446 18.9327 9.89559 19.3844 10.1717C18.6952 11.2191 18.6517 11.7094 18.6494 12.9388C20.1553 12.9946 20.3687 12.6485 21.1353 11.4432L21.9117 10.2213C22.3537 9.53381 22.8567 8.82129 23.3172 8.14153C23.6323 8.47931 23.8266 8.86345 24 9.28324V9.65419C23.603 10.3751 23.2614 10.7028 22.4056 10.3994C22.3346 10.5193 22.2522 10.6646 22.1716 10.7763C21.7646 11.3401 21.3917 12.1171 20.9456 12.637C20.782 12.8312 20.5886 12.9982 20.3727 13.1319C19.948 13.3904 19.1998 13.5725 18.7144 13.4388C18.6204 13.4957 18.5539 14.0643 18.519 14.2171C18.2975 15.1872 17.944 15.606 17.32 16.3127C17.2949 16.5222 17.2997 16.8163 17.3038 17.0299C17.3302 18.4053 17.229 19.768 17.1549 21.1401C17.1334 21.5373 17.0654 22.1838 17.1177 22.5611C17.1599 22.8644 17.5502 23.5492 17.7049 23.8516C17.0226 23.8809 16.2574 23.8286 15.5729 23.853C15.5578 21.7959 15.7372 19.1079 15.0122 17.1878C14.4057 17.3322 13.8288 17.4164 13.246 17.5483C13.274 17.3176 13.2907 17.0586 13.3019 16.8257C13.3563 15.6586 13.4909 14.4818 13.5005 13.315C13.5029 13.0246 13.3169 12.6157 13.1115 12.4176C12.644 11.9666 12.0515 11.6095 11.5649 11.1808C11.9586 11.2505 12.4065 11.1828 12.7902 11.063C13.5651 10.8209 14.251 10.2621 14.6024 9.52369C14.6733 9.37474 14.8145 8.88794 14.8668 8.79368C14.9692 8.60946 15.9003 8.37506 16.1288 8.31091C16.2778 9.01289 16.4224 9.71578 16.5626 10.4196C16.8706 11.9468 16.9242 12.8207 18.5589 13.4089C18.5787 13.232 18.5921 13.0481 18.6073 12.8702C18.1688 12.7659 17.6272 12.3417 17.4536 11.9192C17.2528 11.4305 17.1636 10.8021 17.0547 10.2769C16.9057 9.55877 16.755 8.83277 16.6202 8.11237C17.1741 7.92555 17.5522 7.27226 17.5292 6.70523C17.5174 6.41578 17.4489 6.21811 17.3513 5.94661C18.1349 5.64759 18.579 5.54906 19.4124 5.55344ZM21.2227 7.78711C21.3999 7.71351 21.4848 7.51111 21.4133 7.33312C21.3417 7.15516 21.1403 7.06786 20.9616 7.13735C20.844 7.18301 20.7602 7.28831 20.7419 7.41305C20.7237 7.53778 20.7739 7.6627 20.8734 7.74012C20.9729 7.81753 21.1063 7.83546 21.2227 7.78711Z" fill="black"/>
<path d="M0 17.289C0.756947 16.7104 1.05596 15.8938 1.1878 14.9629C1.33441 13.9276 1.05289 13.0278 1.99448 12.2677C2.36423 11.9693 2.75463 11.925 3.20845 11.9121C2.54077 12.4755 2.23487 13.7136 2.16494 14.5447C2.08341 15.4158 2.18232 16.2944 2.4555 17.1256C1.63441 17.6067 0.884098 17.6646 0 17.3214V17.289Z" fill="black"/>
</g>
<defs>
<clipPath id="clip0_29753_10651">
<rect width="24" height="24" fill="white"/>
</clipPath>
</defs>
</svg>
