<svg width="24" height="24" viewBox="0 0 24 24" fill="none" xmlns="http://www.w3.org/2000/svg">
<path d="M6.83622 6.90207L4.18497 5.20332C4.13152 5.17056 4.08619 5.12612 4.05238 5.07333C4.01857 5.02053 3.99716 4.96077 3.98977 4.89852C3.98237 4.83626 3.98917 4.77315 4.00967 4.7139C4.03016 4.65465 4.06381 4.60082 4.10809 4.55645L5.10372 3.56082C5.29497 3.36957 5.61747 3.41082 5.75434 3.6452L7.41184 6.33957C7.62934 6.71082 7.20372 7.12707 6.83622 6.90207ZM4.51872 15.0733L1.43997 15.1352C1.37737 15.1366 1.31589 15.1521 1.26015 15.1806C1.2044 15.2091 1.15585 15.2499 1.11814 15.2999C1.08042 15.3499 1.05453 15.4078 1.0424 15.4692C1.03027 15.5306 1.03221 15.594 1.0481 15.6546L1.40622 17.0158C1.4756 17.2783 1.77372 17.4039 2.00997 17.2727L4.73059 15.8496C5.10559 15.6377 4.94997 15.0639 4.51872 15.0733ZM11.67 20.3027L10.995 23.3008C10.9331 23.5614 11.13 23.8127 11.3981 23.8127H12.8062C13.0781 23.8127 13.275 23.5558 13.2075 23.2933L12.4743 20.2952C12.3656 19.8771 11.7712 19.8827 11.67 20.3027ZM17.1637 6.90207L19.815 5.20332C20.0437 5.0627 20.0812 4.74582 19.8918 4.55645L18.8962 3.56082C18.8513 3.51613 18.7968 3.4823 18.7368 3.46195C18.6769 3.44159 18.613 3.43524 18.5502 3.44339C18.4874 3.45153 18.4273 3.47396 18.3745 3.50894C18.3217 3.54392 18.2776 3.59053 18.2456 3.6452L16.5881 6.33957C16.3706 6.71082 16.7962 7.12707 17.1637 6.90207ZM19.4812 15.0733L22.56 15.1352C22.6226 15.1366 22.6841 15.1521 22.7398 15.1806C22.7955 15.2091 22.8441 15.2499 22.8818 15.2999C22.9195 15.3499 22.9454 15.4078 22.9575 15.4692C22.9697 15.5306 22.9677 15.594 22.9518 15.6546L22.5937 17.0158C22.5775 17.077 22.5475 17.1337 22.5061 17.1815C22.4647 17.2293 22.4129 17.2671 22.3546 17.2919C22.2964 17.3166 22.2333 17.3278 22.1701 17.3245C22.1069 17.3211 22.0453 17.3034 21.99 17.2727L19.2693 15.8496C18.8943 15.6377 19.05 15.0639 19.4812 15.0733Z" fill="black"/>
<path d="M12.7594 1.35563L15.2831 7.11188C15.3781 7.32847 15.5295 7.51562 15.7214 7.65381C15.9133 7.79199 16.1388 7.87615 16.3744 7.8975L22.5225 8.44875C23.2181 8.55 23.4956 9.40312 22.9913 9.89437L18.36 13.785C17.985 14.1 17.8144 14.595 17.9175 15.0731L19.2638 21.375C19.3819 22.0669 18.6563 22.5956 18.0338 22.2675L12.6675 19.125C12.4651 19.0062 12.2347 18.9435 12 18.9435C11.7653 18.9435 11.5349 19.0062 11.3325 19.125L5.96625 22.2656C5.34563 22.5919 4.61813 22.065 4.73625 21.3731L6.0825 15.0712C6.18375 14.5931 6.015 14.0981 5.64 13.7831L1.00688 9.89625C0.504377 9.40687 0.781877 8.55188 1.47563 8.45062L7.62375 7.89937C7.85929 7.87802 8.08479 7.79386 8.27673 7.65568C8.46867 7.5175 8.62002 7.33035 8.715 7.11375L11.2388 1.3575C11.5519 0.7275 12.4481 0.7275 12.7594 1.35563Z" fill="black"/>
</svg>
