<svg width="14" height="12" viewBox="0 0 14 12" fill="none" xmlns="http://www.w3.org/2000/svg">
<path fill-rule="evenodd" clip-rule="evenodd" d="M5.4209 0.218964C6.52082 -0.0812777 8.13067 -0.0754552 9.20703 0.253144C10.9827 0.780083 12.4629 1.98396 13.3105 3.58908C13.4696 3.885 13.599 4.19501 13.6973 4.51486C13.8238 4.92585 14.0902 6.34059 13.9678 6.71896C13.9241 6.76503 13.9179 6.78798 13.8574 6.80588C13.5243 6.89846 13.5521 6.45464 13.5342 6.25803C13.468 5.46852 13.3323 4.74278 12.918 4.05295C12.3163 3.05132 11.8632 2.5161 10.8359 1.89572C9.41269 1.03627 7.68013 0.973146 6.08789 1.32346C6.95373 1.3502 7.86233 1.38661 8.69043 1.66623C10.0144 2.11342 11.2788 3.11039 11.9121 4.3381C12.5769 5.62678 12.6464 7.38227 12.1475 8.75021C11.6163 10.2063 10.6234 11.1006 9.23535 11.7942C8.92784 11.9555 8.35749 12.0385 8.02734 11.9406C7.64658 11.8274 7.7437 10.7173 7.74316 10.3947L7.74609 7.63303C7.74814 6.61647 7.95151 4.95474 6.69727 4.56564C6.48856 4.50099 5.30322 4.23995 5.14355 4.30978L5.13379 4.38303C5.20661 4.56349 5.62343 4.62363 5.85254 4.74435C6.01523 4.83091 6.15889 4.94786 6.27539 5.0881C7.04028 6.01273 6.5967 8.90731 6.71973 10.1643C6.74599 10.4326 6.72465 11.2341 6.69238 11.5129C6.24732 12.0161 5.78572 12.0843 5.16602 11.925C4.56125 11.7696 4.37395 11.3404 4.06348 10.8791C3.41538 9.91621 2.85394 8.9144 2.1875 7.9631C2.10821 7.84983 1.98578 7.62289 1.88672 7.53928C1.83982 7.60964 1.85423 7.7061 1.85254 7.801C1.87554 8.03034 1.89427 8.26039 1.9082 8.49045C1.68875 8.28814 1.60326 8.19191 1.45801 7.93381C0.868493 6.98488 0.839404 5.93475 0.873047 4.8635C0.52396 4.68654 0.310656 4.57228 0 4.33908C0.280388 4.22814 0.731151 4.13969 0.946289 3.97189C1.23539 3.74623 1.45891 3.22071 1.65723 2.91232C2.24602 1.99721 3.05426 1.28784 4.0459 0.806855C4.49697 0.588063 4.93528 0.351565 5.4209 0.218964ZM3.28223 6.68771C3.19375 6.75102 3.13431 6.78176 3.09863 6.88205C3.07326 7.17027 3.48406 7.66664 3.66895 7.91037L3.7207 7.95725C3.74978 7.90892 3.755 7.73795 3.75098 7.67795C3.72396 7.27446 3.92077 6.63534 3.28223 6.68771Z" fill="#535862"/>
</svg>
