<svg width="24" height="24" viewBox="0 0 24 24" fill="none" xmlns="http://www.w3.org/2000/svg">
<g clip-path="url(#clip0_30315_14862)">
<path d="M14.977 1.48817C14.9402 0.77998 14.3559 0.216309 13.6387 0.216309C12.93 0.216309 12.3513 0.765402 12.3011 1.46117C7.45084 2.02953 3.61286 5.91129 3.11824 10.7843C3.08224 11.1361 1.34617 12.1879 1.29124 12.2184C-0.779421 13.3689 0.0639541 13.8103 0.907751 13.8103H23.8146C23.9343 13.1763 24 12.5234 24 11.8542C24 6.56417 20.074 2.19251 14.977 1.48817Z" fill="black"/>
<path d="M13.691 20.5503L10.273 14.7344H7.78198L12.7893 23.2546C12.9841 23.5848 13.3436 23.7882 13.727 23.7839C14.1105 23.7796 14.4657 23.5686 14.6527 23.2335L19.3962 14.7344H16.9374L13.691 20.5503Z" fill="black"/>
</g>
<defs>
<clipPath id="clip0_30315_14862">
<rect width="24" height="24" fill="white"/>
</clipPath>
</defs>
</svg>
