<svg width="32" height="24" viewBox="0 0 32 24" fill="none" xmlns="http://www.w3.org/2000/svg">
<g clip-path="url(#clip0_29753_19272)">
<path d="M25.669 6.81316C25.7829 6.89972 26.1161 7.16935 26.2393 7.19447C26.3139 6.99038 25.8699 6.57503 25.815 6.35253L25.845 6.3125C26.3742 6.37663 26.7435 7.33672 27.25 6.87075C27.6769 6.47797 27.9506 6.1676 28.4644 5.86963C28.1785 6.34604 28.0135 6.68932 27.8094 7.2106C27.9641 7.28072 28.1296 7.35144 28.277 7.4341C27.6175 7.83863 27.2591 8.17838 26.7262 8.74478C26.354 8.61657 24.831 8.03832 24.5351 8.08322L24.5001 8.11144C24.5191 8.16741 24.5438 8.23385 24.6069 8.25588C26.606 8.9535 28.6426 9.70203 30.6571 10.341C30.5875 10.6054 30.5127 10.8759 30.4521 11.142C29.6793 11.0226 28.6154 10.7458 27.8671 11.0091C27.4166 11.1676 26.7628 11.8316 26.3097 12.1044C27.4627 12.3863 28.7339 12.4112 29.8467 11.9539C29.9953 11.8929 30.3616 11.709 30.5051 11.7416L30.464 11.7278L30.499 11.7818C30.2645 12.1424 29.5653 12.3434 29.1601 12.4236C27.8611 12.681 26.4516 12.4698 25.1814 12.1069C23.2247 11.5381 21.3483 10.7219 19.4272 10.053C19.3368 10.0215 19.0842 9.7401 18.9894 9.69738C18.7554 9.59182 18.1345 9.42654 17.8976 9.47779L17.8747 9.51438C18.3087 9.90203 19.4691 9.58775 19.2769 10.7093L19.2736 10.7292C19.1989 11.1539 16.7551 13.6663 16.4044 14.1877C16.3092 14.3294 16.0128 14.627 15.87 14.7465C15.0369 15.2109 14.2782 14.2085 14.935 13.4969C15.6343 12.7393 16.3243 11.7696 17.0455 11.0486C16.6218 10.962 16.1643 10.8817 15.74 10.8009C14.7789 10.6179 14.6338 10.5551 14.466 9.61925L16.5017 9.07944C17.2668 8.87444 18.2555 8.55275 19.057 8.92832C19.3379 9.05994 19.7433 9.68757 19.9336 9.95863C20.1183 10.0408 20.2248 10.0893 20.4206 10.1438C20.5874 10.104 21.095 10.003 21.1935 9.91647C21.2605 9.57966 20.2453 9.27957 19.9946 9.20769C20.8101 8.92563 21.0791 8.87319 21.9465 8.99107C21.6673 8.84313 21.5309 8.79366 21.2504 8.67466C22.2553 8.36263 22.2509 8.47466 23.1525 8.75272C22.9735 8.60788 22.8911 8.54941 22.6851 8.44479C22.5377 8.36991 22.3751 8.38166 22.3312 8.29816C22.6328 7.96025 23.7522 8.18416 24.1448 8.23019C23.732 7.95819 23.6381 7.96525 23.2269 7.78647C23.8396 7.57253 24.2537 7.58238 24.8915 7.70575C24.5636 7.36957 24.4013 7.24544 23.9857 7.02816C24.393 6.98444 24.6366 6.97022 25.0453 7.03913C25.1525 7.05722 25.4488 7.11891 25.541 7.12019C25.5364 6.99797 25.5798 6.89632 25.669 6.81316Z" fill="black"/>
<path d="M20.1608 4.90995L20.6418 4.89258C18.9903 6.37748 19.7509 7.24642 17.3851 5.87839C17.4324 6.2127 17.6505 7.68761 17.6318 7.93461C17.4644 8.1028 15.5283 8.55727 15.1437 8.67333C14.866 8.73786 14.6445 8.7908 14.3719 8.8802L14.321 8.33558C14.4047 8.22142 14.5004 8.11614 14.5973 8.01192C15.3294 7.22498 16.0367 6.39967 16.7969 5.64174C16.9468 5.4923 17.3514 5.28723 17.5524 5.21336C17.9926 5.05164 18.4094 5.28227 18.786 5.4733C19.2677 4.8758 19.6624 5.2983 20.1057 5.12958C20.183 5.03648 20.159 5.05845 20.1608 4.90995Z" fill="black"/>
<path d="M16.671 3.79108C18.3894 3.79214 20.1201 3.73742 21.8395 3.72842C22.3478 3.72576 22.8854 3.69323 23.3909 3.71495C23.8501 3.76961 24.5626 3.7188 25.0516 3.73867C25.0482 3.84545 25.0576 3.93951 24.9954 4.02445C24.5533 4.2412 22.0384 4.05795 21.8225 4.21414C21.5866 4.22161 21.3156 4.23733 21.0843 4.21217C21.0887 4.37661 21.0881 4.59489 21.1073 4.75411C20.8805 4.75183 20.1637 4.7033 20.0322 4.80401C19.9954 4.93761 20.0194 4.94364 19.9302 4.99767C19.614 5.00648 17.9248 5.05714 17.7084 5.01358C17.5782 4.85592 17.6652 4.19411 17.1244 4.13214C16.8998 4.10639 16.6248 4.22395 16.4291 4.33295L16.3873 4.29961C16.4221 4.24095 16.4368 4.21126 16.463 4.1483C16.4954 4.07183 16.6225 3.87167 16.671 3.79108ZM20.8535 4.11198L20.8247 4.03364C20.6535 3.95564 19.2948 4.00155 19.0222 4.0147L19.0405 4.09114C19.1775 4.16855 20.6092 4.14195 20.8535 4.11198Z" fill="black" fill-opacity="0.988235"/>
<path d="M14.2295 6.49304C14.145 6.59354 14.1191 6.61766 14.0878 6.74398L14.1155 6.7766C14.3201 6.7466 15.7345 5.03894 16.0503 4.75219C16.1996 4.61666 16.369 4.50707 16.5494 4.41754C16.7346 4.32566 16.9514 4.24185 17.1569 4.31616C17.2772 4.35969 17.4108 4.46604 17.4634 4.58526C17.5118 4.69491 17.5096 4.86223 17.4644 4.97263C17.3402 5.27601 16.9061 5.3216 16.6803 5.53501C16.1535 6.03279 14.4438 8.15032 14.014 8.31285C13.8483 8.37551 13.6828 8.27835 13.5359 8.20932C13.2718 7.80838 13.1671 6.09788 13.4712 5.80219C13.6714 5.81101 13.4858 6.27629 13.6886 6.46013C13.8202 6.47882 13.8098 6.45669 13.9521 6.39354C14.1039 6.41985 14.11 6.45123 14.2295 6.49304Z" fill="black"/>
<path d="M14.3054 2.70973C14.3078 2.35016 14.1909 1.93329 14.2293 1.57576C14.2629 1.26216 14.9686 1.34823 15.2139 1.26801C16.073 0.987194 16.2183 0.496413 16.8107 1.46666C16.7147 1.6356 16.5563 1.60457 16.457 1.7396C16.6346 1.73647 16.7182 1.69907 16.8681 1.60948L16.9408 1.66588L16.9468 1.7241C16.8706 1.83051 16.6482 1.89935 16.5218 1.94935L16.5043 1.99232C16.639 2.01554 17.0125 1.85694 17.1355 1.87448C17.6494 1.94766 18.1284 2.09298 18.4754 2.47673C17.6801 2.64769 17.0596 2.51835 16.2749 2.63723C15.9687 2.6836 15.5745 2.86626 15.2745 2.97866C14.8575 3.13507 14.4221 3.23713 13.979 3.28235C13.8373 3.29707 13.653 3.32554 13.5442 3.23713C13.5797 3.12297 14.1482 2.81679 14.3054 2.70973Z" fill="black"/>
<path d="M28.5004 7.63135C28.7113 7.66763 30.7317 8.96829 30.9663 9.16494C30.8798 9.48222 30.7982 9.80075 30.7212 10.1205C30.4512 10.006 30.1138 9.90366 29.8312 9.81029C28.91 9.4816 27.9031 9.12866 26.9727 8.83672C27.4685 8.37022 27.8379 7.90057 28.5004 7.63135ZM29.1234 9.0735C29.2654 9.04979 29.3621 8.91657 29.3407 8.77425C29.3193 8.63191 29.1877 8.53304 29.045 8.5521C28.9506 8.56469 28.8703 8.62722 28.835 8.71569C28.7997 8.80413 28.8148 8.90475 28.8746 8.97891C28.9343 9.05307 29.0295 9.08922 29.1234 9.0735Z" fill="black"/>
<path d="M16.8736 2.73204C16.9518 2.7252 17.0728 2.71373 17.1305 2.76766C17.3136 2.93895 17.3229 3.41835 17.1695 3.59673C17.0448 3.64813 16.7486 3.64385 16.5977 3.64845C16.281 4.11985 16.2735 4.25416 15.6502 4.3151C15.3988 4.33969 15.2078 4.43369 14.9587 4.31469C14.6273 3.98769 14.5706 3.82748 14.4496 3.3952C14.6919 3.3001 14.9769 3.23238 15.2 3.14835C15.9215 2.87651 16.1069 2.76601 16.8736 2.73204Z" fill="black"/>
<path d="M13.5195 4.89089C14.3983 4.6987 15.2804 4.52132 16.1653 4.35889L16.1412 4.48679C15.8432 4.61851 15.3482 5.37686 15.0672 5.59473C14.6895 5.88748 14.2049 6.0702 13.7784 6.32192C13.7272 5.92714 13.6068 5.27239 13.5195 4.89089Z" fill="black"/>
<path d="M23.3909 3.71488C23.93 3.66907 24.6911 3.68329 25.2426 3.68307C25.2368 3.83954 25.226 4.01701 25.2299 4.17188C24.2102 4.21848 23.1785 4.19951 22.1573 4.21873C22.0599 4.22057 21.9186 4.22313 21.8225 4.21407C22.0384 4.05788 24.5534 4.24113 24.9954 4.02438C25.0576 3.93945 25.0483 3.84538 25.0516 3.7386C24.5626 3.71873 23.8502 3.76954 23.3909 3.71488Z" fill="black" fill-opacity="0.909804"/>
<path d="M25.541 7.12035C25.4632 6.97123 25.2334 6.78341 25.2382 6.62073C25.3847 6.6036 25.5466 6.72898 25.669 6.81332C25.5799 6.89648 25.5365 6.99813 25.541 7.12035Z" fill="black" fill-opacity="0.937255"/>
<path d="M13.9521 6.39395C14.0791 6.3226 14.3402 6.15901 14.4737 6.16573C14.4537 6.28857 14.3218 6.39813 14.2295 6.49345C14.1101 6.45163 14.1039 6.42026 13.9521 6.39395Z" fill="black" fill-opacity="0.933333"/>
<path d="M16.8107 1.46631C16.8113 1.51456 16.812 1.53281 16.8056 1.58171L16.8681 1.60912C16.7182 1.69872 16.6346 1.73612 16.457 1.73925C16.5564 1.60421 16.7147 1.63525 16.8107 1.46631Z" fill="black" fill-opacity="0.34902"/>
<path d="M16.1653 4.35878C16.2907 4.29194 16.3595 4.24309 16.463 4.14844C16.4369 4.21141 16.4221 4.24109 16.3874 4.29975L16.4291 4.33309C16.339 4.37887 16.2243 4.43322 16.1412 4.48669L16.1653 4.35878Z" fill="black" fill-opacity="0.67451"/>
<path d="M0 10.8668C2.00941 10.9177 3.45291 10.101 5.34278 9.79906C6.34538 9.63884 8.16775 10.4363 9.22928 10.4923C10.4713 10.5769 12.6402 9.96937 13.7542 10.6482C13.9205 10.9486 12.4992 11.6548 13.1313 12.666C13.582 13.3871 13.9064 13.3975 14.4979 13.8576C14.5002 14.2069 14.5268 14.5106 14.7946 14.7782C14.9725 14.9527 15.2135 15.0481 15.4627 15.0425C15.868 15.0339 16.0978 14.8134 16.3588 14.5477C17.0232 14.6395 17.7902 14.8355 18.3403 14.4C19.3718 13.5835 19.71 11.671 19.8956 10.4348C21.9249 11.1209 23.7715 11.9587 25.8672 12.4788C25.6872 12.6188 24.9431 13.1615 24.8957 13.3151C24.9622 13.3969 25.0918 13.4277 25.0673 13.5273C24.8088 14.5788 24.35 15.6588 24.0972 16.7058C24.4151 16.8042 26.4834 17.5527 26.5583 17.8212C26.6166 19.3009 26.2846 20.9234 26.0888 22.3973C26.0673 22.5583 25.3908 23.1203 25.2294 23.1185C24.0571 23.1058 24.3559 22.3225 24.907 21.8147C24.9922 21.409 25.0532 20.9427 25.0897 20.5286C25.1457 19.8938 25.2796 19.2133 25.3104 18.5837C24.9006 18.4784 23.7479 18.195 23.3968 18.0627C23.4646 18.6378 23.5367 19.2125 23.6132 19.7866C23.6563 20.1148 23.8883 21.1809 23.4834 21.3524C22.7699 21.6546 21.6076 21.2174 20.8288 21.2213C20.0172 21.2253 18.7149 20.8645 19.3489 19.7972C19.9732 19.4039 19.9925 19.7905 20.534 19.9094C21.065 20.026 21.6839 20.0208 22.2276 20.1241C21.8416 18.9146 21.477 17.7739 21.2684 16.5182C21.2441 16.3719 21.1628 16.2459 20.9989 16.2626C20.9626 16.298 20.9343 16.3154 20.9437 16.3784C21.0247 16.919 21.1816 17.6199 21.3011 18.1433C19.7819 18.1751 18.2636 18.0496 16.7703 17.7688C15.6079 17.5527 14.4447 17.2295 13.2856 16.9902C13.1561 16.9634 13.0013 16.9304 12.8759 16.8916C12.8827 17.2871 12.8999 17.6824 12.9273 18.077C13.3286 18.4342 14.0455 18.8941 14.3836 19.1833C14.7649 19.5095 15.4857 20.964 15.7599 21.4717C16.0568 21.5357 16.5235 21.5796 16.7016 21.841C16.8972 22.1279 16.7653 22.5649 16.4702 22.7344C16.1624 22.9111 15.6581 22.7507 15.318 22.7115C15.0413 22.6699 14.8262 22.3578 14.6931 22.1487C14.4493 21.766 13.8212 20.4209 13.5643 20.1589C13.1487 19.7351 12.1958 19.1852 11.7182 18.7332C11.9571 17.7737 12.1721 16.888 12.1598 15.8881C12.1578 15.7268 12.1763 15.5177 12.1236 15.3699C12.0581 15.3067 12.0928 15.3228 11.9822 15.3215C11.8708 15.4213 11.8547 15.5353 11.8524 15.6825C11.8397 16.4784 11.7545 18.3889 11.1213 18.9227C10.9381 19.0771 10.1918 19.6327 9.95747 19.8012C10.4763 20.2112 11.0019 20.7382 11.5199 21.1762C11.9721 21.0646 12.1404 21.0321 12.4798 21.3786C12.6288 21.887 12.5099 22.1025 12.0464 22.3598C11.7836 22.5057 11.4608 22.7422 11.1717 22.5124C10.2505 21.7884 9.38422 20.9488 8.517 20.1591C8.32678 19.9859 8.32837 19.6134 8.46612 19.4142C8.77125 18.9965 9.33091 18.7569 9.69963 18.4166C9.67956 18.0651 9.6625 17.3022 9.53709 16.9981C8.2095 15.7762 6.30062 13.2298 7.8925 11.4697C8.01731 11.3317 8.15459 11.2006 8.27713 11.0608C7.02972 11.0954 6.50491 11.0278 5.21978 11.303C4.82025 11.3892 4.42534 11.4957 4.03659 11.622C3.56334 11.7761 2.53135 12.2009 2.08408 12.1916C1.31509 12.1756 0.501319 11.5814 0 11.0178V10.8668Z" fill="black"/>
<path d="M31.1715 9.32373C31.4741 9.45664 31.77 9.74036 32 9.97029V10.4299C31.8769 10.6505 31.8031 10.9848 31.6019 11.1608C31.4072 11.3309 30.9349 11.2317 30.6745 11.2007C30.8142 10.7962 31.0777 9.75201 31.1715 9.32373Z" fill="black"/>
</g>
<defs>
<clipPath id="clip0_29753_19272">
<rect width="32" height="24" fill="white"/>
</clipPath>
</defs>
</svg>
