<svg width="20" height="20" viewBox="0 0 20 20" fill="none" xmlns="http://www.w3.org/2000/svg">
<path d="M12.4844 5.8457C12.4844 5.8457 12.901 6.26237 13.3177 7.0957C13.3177 7.0957 14.6412 5.01237 15.8177 4.5957" stroke="#4A5565" stroke-width="1.5" stroke-linecap="round" stroke-linejoin="round"/>
<path d="M8.33034 1.68353C6.24829 1.59538 4.63974 1.83523 4.63974 1.83523C3.62403 1.90785 1.67752 2.47728 1.67754 5.80286C1.67755 9.10016 1.656 13.1652 1.67754 14.7857C1.67754 15.7757 2.29055 18.0852 4.41235 18.2089C6.99139 18.3594 11.6369 18.3914 13.7683 18.2089C14.3389 18.1767 16.2385 17.7288 16.4789 15.6621C16.728 13.521 16.6784 12.033 16.6784 11.6788" stroke="#4A5565" stroke-width="1.5" stroke-linecap="round" stroke-linejoin="round"/>
<path d="M18.3335 5.84635C18.3335 8.14754 16.4663 10.0131 14.1629 10.0131C11.8594 10.0131 9.99219 8.14754 9.99219 5.84635C9.99219 3.54517 11.8594 1.67969 14.1629 1.67969C16.4663 1.67969 18.3335 3.54517 18.3335 5.84635Z" stroke="#4A5565" stroke-width="1.5" stroke-linecap="round"/>
<path d="M5.81641 10.8457H9.14971" stroke="#4A5565" stroke-width="1.5" stroke-linecap="round"/>
<path d="M5.81641 14.1797H12.483" stroke="#4A5565" stroke-width="1.5" stroke-linecap="round"/>
</svg>
