<svg width="24" height="24" viewBox="0 0 24 24" fill="none" xmlns="http://www.w3.org/2000/svg">
<path d="M17.684 3.60303C18.205 2.94403 17.714 2.00003 16.848 2.00003H10.132C9.95014 1.9987 9.77101 2.04418 9.61181 2.1321C9.45262 2.22001 9.31872 2.34741 9.22299 2.50203L4.14099 10.958C3.73999 11.624 4.24399 12.455 5.04899 12.455H8.47799L5.24799 20.52C4.78099 21.54 6.04299 22.473 6.89099 21.735C6.89099 21.735 17 13.8025 19.5 11C20 10 19.5 9.5 19 9.33103C18.5 9.16206 13.151 9.33103 13.151 9.33103L17.684 3.60303Z" fill="black"/>
</svg>
