<svg width="24" height="24" viewBox="0 0 24 24" fill="none" xmlns="http://www.w3.org/2000/svg">
<path d="M20.1467 1.09082L20.2731 1.19356C20.4919 1.91784 19.2252 7.48029 18.9776 8.45604C20.2601 9.874 21.9624 10.5499 23.3049 11.5684C22.6525 12.8982 21.2659 13.7929 19.8487 14.1107C15.9144 14.993 11.4733 12.7071 7.85369 15.1142C7.57392 15.3289 7.29801 15.5486 7.02608 15.7731C6.93834 15.0406 6.57688 13.962 6.37468 13.2193C5.84798 11.2887 5.30951 9.36132 4.75927 7.43735C4.57927 6.79901 4.1645 5.47104 4.13672 4.88683C4.26873 4.53956 4.82521 4.20875 5.13323 4.01828C8.8064 1.74697 13.3175 4.31482 17.2185 3.08013C18.5147 2.66985 19.2094 2.06017 20.1467 1.09082Z" fill="black"/>
<path d="M2.2894 4.78246C2.78819 4.75186 3.19505 4.90927 3.3595 5.41441C3.74276 6.59183 4.04539 7.79592 4.37794 8.98841C5.00382 11.1928 5.617 13.4008 6.21735 15.6124L7.29356 19.465C7.47322 20.1029 8.08561 21.8291 7.83023 22.3882C7.66293 22.5873 7.415 22.6364 7.16507 22.7143C6.96247 22.7868 6.45013 22.7952 6.36551 22.553C5.42889 19.8719 4.77583 17.0553 3.99023 14.3201C3.22722 11.6635 2.49679 8.99381 1.77134 6.32669C1.55053 5.49361 1.5258 5.23434 2.2894 4.78246Z" fill="black" fill-opacity="0.988235"/>
</svg>
