<svg width="26" height="24" viewBox="0 0 26 24" fill="none" xmlns="http://www.w3.org/2000/svg">
<g clip-path="url(#clip0_29753_19305)">
<path d="M14.0681 5.93249C14.2299 5.51082 14.7694 4.74562 15.0724 4.44706C16.0008 3.53184 19.7103 2.362 20.877 2.38611C20.9662 2.45041 21.2071 2.68674 21.3143 2.77881C21.753 3.15592 22.1146 3.23858 22.6523 3.39687C22.6527 3.18555 22.6304 2.68692 22.8477 2.58247C23.2114 2.54627 23.3816 3.41474 23.4325 3.67643C23.6609 3.77357 23.9147 3.86436 24.0965 4.04058C24.4981 4.42993 25.5161 6.52169 25.8297 7.17692C25.8134 7.19687 25.7964 7.21617 25.7786 7.23478C25.324 7.71224 24.9964 7.97163 24.3211 7.98623C24.2188 7.96657 24.2376 7.95468 24.1523 7.98835C23.9254 7.86481 23.6307 7.78445 23.3847 7.69041C22.986 7.5391 22.577 7.42629 22.2148 7.1927C21.9345 7.01188 21.9454 6.53764 21.6652 6.39852C21.3236 6.2289 20.3881 6.58177 20.2222 6.90856C20.0301 7.28722 20.0324 7.81922 19.8088 8.20208L19.7906 8.2255C18.9083 8.23534 16.7217 7.85844 15.9014 7.47944C15.7802 6.9159 15.3634 6.93612 14.9253 6.64845C14.5892 6.42785 14.356 6.20855 14.0681 5.93249ZM23.7456 4.9484C23.8133 4.88333 23.7997 4.91493 23.8045 4.83178C23.733 4.70471 23.2079 4.3219 23.0846 4.26869C22.9289 4.82736 23.1592 5.15555 23.7456 4.9484Z" fill="black"/>
<path d="M12.5848 3.87636C12.7256 3.8713 12.8663 3.88828 13.0019 3.92668C13.7268 4.12828 13.6425 4.69329 13.4725 5.26727C13.2413 4.9875 13.1186 4.50902 12.7365 4.4562C12.5892 4.43717 12.4405 4.47793 12.3231 4.56946C11.7825 4.98451 12.4227 5.72453 12.7059 6.10895C12.6543 6.19148 12.5912 6.26545 12.5291 6.34014C12.3042 6.61085 12.0971 6.89428 11.8859 7.17594C12.2976 7.23321 14.082 7.33277 14.1039 7.83713C14.1357 8.56958 14.4346 11.1923 14.1954 11.722C14.0203 11.9764 13.9096 12.0035 13.6226 12.0824C12.756 11.9 12.9584 11.3965 12.8952 10.7004C12.8354 10.0425 12.8587 9.35905 12.7952 8.70573C11.9828 8.57206 10.926 8.58354 10.2515 8.08908C8.99508 7.16809 10.8065 5.06817 11.5591 4.38121C11.8768 4.09121 12.1484 3.94041 12.5848 3.87636Z" fill="black"/>
<path d="M20.9797 15.609C20.7961 15.4916 20.5441 15.34 20.4272 15.152C19.9181 14.3326 20.5739 13.3042 21.5302 13.5024C21.8168 13.5622 22.0681 13.7341 22.229 13.9804C22.3805 14.2148 22.4312 14.5011 22.3694 14.7738C22.2747 15.2039 21.9954 15.3966 21.6606 15.6164C21.6136 16.0848 21.6575 17.0138 21.6476 17.5127C21.617 19.0563 21.6895 20.6762 21.6398 22.2154L25.2424 22.2215C25.2364 22.2784 25.2292 22.2859 25.223 22.3199C25.1944 22.4777 25.2815 22.5858 25.1536 22.7326C25.0891 22.7559 25.0376 22.7628 24.9709 22.7742C25.0307 22.7936 25.104 22.7918 25.1682 22.7943C25.0668 22.8739 18.4539 22.798 17.7796 22.8066C17.7238 22.8073 17.4085 22.7642 17.3443 22.7402C17.3006 22.5619 17.3071 22.4256 17.2889 22.2445C17.3782 22.1998 20.6132 22.2231 20.9822 22.224L20.9956 17.7275C20.9956 17.1139 21.0231 16.1979 20.9797 15.609ZM21.4723 15.0522C21.652 14.9969 21.7879 14.8482 21.8278 14.6633C21.8676 14.4784 21.8051 14.2863 21.6643 14.161C21.5235 14.0358 21.3264 13.9969 21.1492 14.0595C20.8826 14.1535 20.7397 14.445 20.8277 14.7153C20.9157 14.9855 21.2022 15.1353 21.4723 15.0522Z" fill="black" fill-opacity="0.988235"/>
<path d="M13.531 1.12294C14.2108 1.03152 14.8349 1.51359 14.9234 2.19836C15.0118 2.88315 14.531 3.50998 13.8506 3.59674C13.1736 3.68305 12.5548 3.20168 12.4667 2.52021C12.3787 1.83872 12.8546 1.21392 13.531 1.12294Z" fill="black"/>
<path d="M10.945 8.5733C11.1524 8.56951 12.4329 8.76393 12.6927 8.80024C12.7136 9.05388 12.7887 10.3969 12.7548 10.5843C12.6422 10.6929 12.3104 10.7145 12.1429 10.7372C12.0441 10.7504 11.9447 10.7596 11.8451 10.7647C11.3105 10.7901 10.6474 10.7252 10.4326 10.1376C10.2763 9.71026 10.4742 9.32403 10.4558 8.89244L10.4551 8.87845C10.6139 8.77084 10.7731 8.65706 10.945 8.5733Z" fill="black"/>
<path d="M12.5804 4.55811C13.0184 4.57935 13.0184 4.81427 13.2139 5.11296C13.7682 5.95991 14.5643 6.6605 15.4862 7.07148C15.6981 7.16593 15.7402 7.28513 15.8035 7.5018C15.7228 7.76602 15.7037 7.83584 15.436 7.93336C15.3397 7.93354 15.2442 7.9173 15.1533 7.88529C14.1 7.50535 12.8327 6.32006 12.31 5.31247C12.1314 4.9683 12.2381 4.71295 12.5804 4.55811Z" fill="black"/>
<path d="M13.1514 6.69727C13.2811 6.72797 13.612 7.05 13.7381 7.15527C14.1307 7.48126 14.6341 7.80513 15.1047 7.99298C15.4862 8.14527 15.4698 7.88437 15.5963 8.40977C15.7651 9.11113 15.3789 9.35582 14.8849 9.70181L14.3399 10.0302C14.3561 9.63063 14.2937 9.1964 14.2977 8.81687C14.3127 7.37531 13.9995 7.26176 12.6357 7.18068C12.8149 7.03116 12.984 6.86072 13.1514 6.69727Z" fill="black"/>
<path d="M24.1523 7.98851C24.2376 7.95484 24.2188 7.96673 24.3211 7.98639C24.3205 8.10474 24.3405 8.11057 24.2837 8.18833C23.8956 8.3806 20.1906 8.5888 19.8129 8.40568C19.7876 8.32921 19.7904 8.30343 19.7906 8.22566L19.8088 8.20224C19.8452 8.21648 19.8833 8.22604 19.922 8.23072C20.4193 8.29433 23.8701 8.20681 24.1523 7.98851Z" fill="black" fill-opacity="0.976471"/>
<path d="M25.2423 22.2212C25.2671 22.2266 25.3313 22.2347 25.3382 22.2495C25.4028 22.3875 25.3648 22.7467 25.3589 22.8953C24.7532 22.9315 23.9394 22.8988 23.312 22.8988L19.1861 22.8981L17.9507 22.8984C17.7916 22.8981 17.4152 22.8847 17.2748 22.912C17.2716 22.7047 17.262 22.4451 17.2888 22.2442C17.307 22.4254 17.3005 22.5616 17.3442 22.7399C17.4085 22.7639 17.7238 22.807 17.7795 22.8063C18.4539 22.7977 25.0668 22.8736 25.1681 22.794C25.104 22.7915 25.0306 22.7933 24.9709 22.7739C25.0375 22.7625 25.0891 22.7556 25.1535 22.7324C25.2815 22.5855 25.1944 22.4774 25.223 22.3196C25.2291 22.2856 25.2363 22.2781 25.2423 22.2212Z" fill="black" fill-opacity="0.956863"/>
<path d="M15.8648 7.70996C16.8081 8.09167 18.7187 8.42326 19.7299 8.42722L19.5228 8.97175C20.1714 8.96293 20.9114 8.9166 21.5409 9.02406C21.9191 9.08865 22.3935 9.74864 22.3562 10.1376C22.3045 10.6763 22.0255 11.4161 21.6652 11.8352C21.517 11.9915 21.0172 12.2927 20.8279 12.4089C20.7571 12.3094 20.656 12.1578 20.5775 12.0703C19.9964 12.8406 19.7661 12.7656 18.9308 13.1369C18.2253 13.4505 17.6173 13.2835 16.8902 13.3483C17.0483 12.9845 17.1381 12.521 17.2972 12.1368C18.0791 12.3713 18.3328 12.26 19.1152 12.0866C19.2257 11.9363 19.4035 11.67 19.4977 11.5022C19.0274 11.4177 18.4591 11.3301 17.9845 11.2869C17.6756 11.4431 17.3294 11.6783 17.0344 11.8601C15.6569 12.7091 14.2047 13.4558 12.542 13.4106C12.2414 13.4025 11.8795 13.3369 11.5766 13.3949C10.7387 13.6345 9.72197 14.6549 9.16477 15.326C9.07545 15.4336 8.71259 16.1629 8.63741 16.3156C8.21234 17.1755 7.77199 18.0481 7.44745 18.9493C7.20733 19.6162 7.4883 19.8723 7.67482 20.4771C7.75651 20.742 7.6001 21.1014 8.00114 21.2076C8.35537 21.3013 8.67963 21.3221 8.61044 21.7792C8.4887 21.9181 7.68696 22.0241 7.47612 22.0404C7.12532 21.5404 7.11885 21.446 6.89924 20.9263C6.45968 19.886 6.57173 19.1175 6.62017 18.0062C6.46928 18.2658 5.93981 19.1477 5.85467 19.3808C5.7426 19.6878 5.6081 20.8721 5.5832 21.2311C6.02814 21.8125 6.34715 21.3182 6.46283 22.3579C6.08966 22.4513 5.74153 22.5002 5.36194 22.5453C4.94607 22.0149 4.82501 21.7807 4.71006 21.1114C4.67601 20.9131 4.61754 20.7052 4.59276 20.4919C4.68967 20.3733 4.81315 20.2307 4.88617 20.0937C5.23837 19.4328 5.09209 18.3017 5.34112 17.6427C5.65706 16.8066 6.58536 16.3556 6.44208 15.2829C6.24366 13.7976 5.70736 12.7235 6.05551 11.1954C4.35612 11.0881 3.81547 12.4948 2.56364 13.3453C2.15348 13.624 1.59752 13.6792 1.23088 14.0663C0.90836 14.3491 0.49499 15.1421 0.203015 15.1709C0.0910437 15.124 0.0742881 15.0634 0 14.9525V14.3519C0.0922487 14.1987 0.115226 14.0446 0.181064 13.8826C0.24883 13.7158 0.360765 13.5291 0.464501 13.382C0.773614 12.948 1.20934 12.6218 1.71108 12.4487C1.94974 12.3642 2.22399 12.3261 2.40162 12.1328C2.55346 11.9675 2.70448 11.6915 2.78652 11.4836C3.48047 9.72486 4.93901 9.98676 6.49195 10.3749C7.43021 9.25967 8.10705 9.78359 9.31971 9.32973C9.62396 9.21585 9.94061 9.05518 10.2532 8.97022C10.1704 9.49666 10.0471 10.0559 10.3986 10.5064C10.9018 11.1513 11.9113 10.9901 12.6102 10.8916C12.6764 10.8823 12.7145 10.8951 12.7677 10.9294C12.892 11.3043 12.7266 11.8418 13.2409 12.1029C13.5914 12.2808 14.1641 12.1085 14.3248 11.7446C14.5273 11.286 14.2864 10.7825 14.3836 10.3177C14.4104 10.1994 14.6491 10.0826 14.7567 10.0224C15.7291 9.47815 16.0795 9.0752 15.6881 7.95836C15.7659 7.86296 15.8015 7.81507 15.8648 7.70996ZM18.9131 10.3227C19.237 10.3624 19.551 10.3593 19.8654 10.3955C20.4357 10.472 20.5508 10.816 20.9809 11.071C21.1152 10.9204 21.2655 10.7744 21.3916 10.6319C21.376 10.4795 21.3348 9.85153 21.2535 9.76822L21.2146 9.75419C20.5217 9.91159 19.5361 9.99928 18.9131 10.3227Z" fill="black"/>
<path d="M24.6711 8.28793C25.0583 8.1755 25.5066 7.75314 25.8474 7.50521C25.938 7.49434 25.9081 7.49437 26 7.56721V8.18527C25.9774 8.22835 25.9535 8.27092 25.9289 8.31296C25.594 8.88681 25.0814 8.53791 24.6711 8.28793Z" fill="black" fill-opacity="0.988235"/>
</g>
<defs>
<clipPath id="clip0_29753_19305">
<rect width="26" height="24" fill="white"/>
</clipPath>
</defs>
</svg>
