<svg width="14" height="14" viewBox="0 0 14 14" fill="none" xmlns="http://www.w3.org/2000/svg">
<path d="M7.01698 12.9145C7.50529 12.9145 7.90114 12.7513 7.90114 12.55C7.90114 12.3487 7.50529 12.1855 7.01698 12.1855C6.52867 12.1855 6.13281 12.3487 6.13281 12.55C6.13281 12.7513 6.52867 12.9145 7.01698 12.9145Z" fill="#DDDDDD"/>
<path d="M7.60466 6.05664L7.39904 12.2657C7.39176 12.4851 7.20788 12.6572 6.98841 12.6499C6.77817 12.643 6.61141 12.4728 6.60406 12.2657L6.39844 6.05664H7.60466Z" fill="#C6C6C6"/>
<path d="M7.60473 6.05664L7.55798 7.46864L7.3991 12.2657C7.39177 12.4851 7.20792 12.6572 6.98847 12.6499C6.8291 12.6447 6.69475 12.5456 6.63587 12.4079C6.67212 12.4203 6.71076 12.4276 6.75103 12.4289C6.97048 12.4362 7.15432 12.2641 7.16166 12.0446L7.31201 7.50278C7.20954 7.51293 7.10595 7.51801 7.00166 7.51801C6.81302 7.51801 6.62699 7.50137 6.44519 7.46865L6.39844 6.05665H7.60473V6.05664Z" fill="#ADADAD"/>
<path d="M10.1112 4.19617C10.1112 5.02697 9.78763 5.80805 9.20018 6.3955C8.61273 6.98295 7.83165 7.3064 7.00096 7.3064C6.17017 7.3064 5.38908 6.98295 4.80163 6.3955C4.21419 5.80805 3.89062 5.02697 3.89062 4.19617C3.89062 3.36538 4.21419 2.5844 4.80163 1.99695C5.38908 1.40951 6.17017 1.08594 7.00096 1.08594C7.83165 1.08594 8.61273 1.40951 9.20018 1.99695C9.78763 2.5844 10.1112 3.36538 10.1112 4.19617Z" fill="#E23D3D"/>
<path d="M10.1123 4.19529C10.1123 5.02607 9.78871 5.80714 9.20129 6.39464C8.61387 6.98206 7.83272 7.30553 7.00208 7.30553C6.1713 7.30553 5.39016 6.98206 4.80274 6.39464C4.38646 5.97829 4.10263 5.4647 3.97266 4.90514C4.11116 5.21126 4.30544 5.49291 4.55014 5.73754C5.08354 6.27095 5.79282 6.56465 6.54723 6.56465C7.3015 6.56465 8.01077 6.27094 8.54418 5.73754C9.07766 5.20413 9.37144 4.49486 9.37144 3.74045C9.37144 2.98604 9.07766 2.2769 8.54418 1.74349C8.29955 1.4988 8.0179 1.30452 7.71178 1.16602C8.27141 1.29598 8.785 1.57975 9.20128 1.9961C9.78871 2.58352 10.1123 3.36451 10.1123 4.19529Z" fill="#BF3636"/>
<path d="M7.03964 1.58641V2.01003C7.03964 2.08419 6.98143 2.14495 6.90738 2.14891C5.9101 2.20214 5.07168 2.8538 4.74472 3.75128C4.70681 3.85532 4.59937 3.91678 4.49065 3.89574C4.36617 3.87165 4.28646 3.74945 4.31406 3.6257C4.58235 2.42283 5.62659 1.51254 6.8941 1.44745C6.97334 1.44338 7.03964 1.50706 7.03964 1.58641Z" fill="#F46D5B"/>
<path d="M6.87533 11.9383C6.79912 11.9383 6.73639 11.8775 6.73441 11.8009L6.68755 9.98257C6.68554 9.9047 6.74703 9.83994 6.8249 9.83794C6.82614 9.83791 6.82738 9.83789 6.8286 9.83789C6.90481 9.83789 6.96755 9.89866 6.96952 9.97529L7.01639 11.7936C7.0184 11.8715 6.9569 11.9363 6.87903 11.9383C6.87779 11.9383 6.87656 11.9383 6.87533 11.9383Z" fill="#D8D6D6"/>
</svg>
