<svg width="17" height="17" viewBox="0 0 17 17" fill="none" xmlns="http://www.w3.org/2000/svg">
<path d="M7.49147 2.08286V5.40857C7.49148 5.68394 7.4371 5.95661 7.33146 6.21091C7.22582 6.46522 7.071 6.69615 6.87588 6.89047C6.68076 7.08479 6.44919 7.23867 6.19446 7.34327C5.93973 7.44787 5.66684 7.50113 5.39147 7.5H2.0829C1.80827 7.50167 1.53614 7.44786 1.28281 7.34182C1.02947 7.23577 0.800162 7.07967 0.608616 6.88286C0.414143 6.69 0.260139 6.46026 0.155635 6.20709C0.0511321 5.95393 -0.0017655 5.68245 4.49488e-05 5.40857V2.09143C4.03029e-05 1.53823 0.219209 1.00756 0.609576 0.615588C0.999943 0.223614 1.52971 0.00226721 2.0829 0H5.40004C5.67439 0.000263584 5.94595 0.0549451 6.19901 0.160879C6.45208 0.266812 6.68161 0.421893 6.87433 0.617143C7.06932 0.808272 7.22431 1.03631 7.33027 1.28795C7.43622 1.5396 7.49102 1.80982 7.49147 2.08286ZM16.7058 2.09143V5.40857C16.7013 5.9604 16.4807 6.48849 16.0913 6.8795C15.7019 7.27052 15.1747 7.49329 14.6229 7.5H11.2972C10.7428 7.49661 10.2113 7.27847 9.81433 6.89143C9.62037 6.69642 9.46678 6.46507 9.36235 6.21061C9.25792 5.95616 9.20471 5.68362 9.20576 5.40857V2.09143C9.20507 1.81694 9.25931 1.5451 9.3653 1.2919C9.47129 1.03871 9.62688 0.809281 9.8229 0.617143C10.0156 0.421893 10.2452 0.266812 10.4982 0.160879C10.7513 0.0549451 11.0228 0.000263584 11.2972 0H14.6143C15.1676 0.00448035 15.697 0.226265 16.0882 0.617517C16.4795 1.00877 16.7013 1.53813 16.7058 2.09143ZM16.7058 11.3057V14.6229C16.7013 15.1747 16.4807 15.7028 16.0913 16.0938C15.7019 16.4848 15.1747 16.7076 14.6229 16.7143H11.2972C10.7393 16.7199 10.2011 16.5078 9.79719 16.1229C9.60246 15.9284 9.44836 15.6972 9.34388 15.4426C9.2394 15.188 9.18662 14.9152 9.18862 14.64V11.3229C9.18792 11.0484 9.24217 10.7765 9.34816 10.5233C9.45415 10.2701 9.60974 10.0407 9.80576 9.84857C9.99848 9.65332 10.228 9.49824 10.4811 9.39231C10.7341 9.28637 11.0057 9.23169 11.28 9.23143H14.5972C15.1505 9.23591 15.6798 9.45769 16.0711 9.84895C16.4623 10.2402 16.6841 10.7696 16.6886 11.3229L16.7058 11.3057ZM7.49147 11.3143V14.6314C7.48473 15.1847 7.26078 15.7132 6.86792 16.1028C6.47506 16.4925 5.94479 16.7121 5.39147 16.7143H2.0829C1.80906 16.7154 1.5377 16.6623 1.28449 16.558C1.03127 16.4538 0.801209 16.3004 0.607571 16.1068C0.413934 15.9131 0.260555 15.6831 0.156283 15.4298C0.0520116 15.1766 -0.00108899 14.9053 4.49488e-05 14.6314V11.3143C0.00225312 10.761 0.221867 10.2307 0.611516 9.83784C1.00117 9.44498 1.52962 9.22103 2.0829 9.21429H5.40004C5.95565 9.21997 6.48732 9.44125 6.8829 9.83143C7.27384 10.2258 7.49265 10.759 7.49147 11.3143Z" fill="black"/>
</svg>
