<svg width="20" height="20" viewBox="0 0 20 20" fill="none" xmlns="http://www.w3.org/2000/svg">
<path d="M1.95884 11.0106C1.66466 9.09618 1.51757 8.13904 1.87949 7.2905C2.24141 6.44195 3.04437 5.86137 4.6503 4.70023L5.85017 3.83268C7.84792 2.38824 8.84677 1.66602 9.99935 1.66602C11.1519 1.66602 12.1508 2.38824 14.1485 3.83268L15.3484 4.70023C16.9543 5.86137 17.7573 6.44195 18.1192 7.2905C18.4811 8.13904 18.334 9.09618 18.0398 11.0106L17.789 12.643C17.3719 15.3568 17.1634 16.7137 16.1902 17.5232C15.2169 18.3327 13.7941 18.3327 10.9483 18.3327H9.05035C6.20462 18.3327 4.78177 18.3327 3.80852 17.5232C2.83526 16.7137 2.62674 15.3568 2.20971 12.643L1.95884 11.0106Z" stroke="#4A5565" stroke-width="1.5" stroke-linejoin="round"/>
<path d="M9.375 11.041C10.364 12.03 11.6667 13.0351 11.6667 13.0351L13.4524 11.2493C13.4524 11.2493 12.4473 9.94668 11.4583 8.95768C10.4693 7.96867 9.16667 6.96363 9.16667 6.96363L7.38095 8.74935C7.38095 8.74935 8.386 10.052 9.375 11.041ZM9.375 11.041L6.25 14.166M13.75 10.9518L11.3691 13.3327M9.46425 6.66602L7.08333 9.04693" stroke="#4A5565" stroke-width="1.5" stroke-linecap="round" stroke-linejoin="round"/>
</svg>
