<svg width="20" height="20" viewBox="0 0 20 20" fill="none" xmlns="http://www.w3.org/2000/svg">
<path d="M16.4551 10.8327C17.1142 9.88785 17.5007 8.73868 17.5007 7.49935C17.5007 4.27769 14.889 1.66602 11.6673 1.66602C8.44565 1.66602 5.83398 4.27768 5.83398 7.49935C5.83398 8.39402 6.03539 9.2416 6.39534 9.99935" stroke="#4A5565" stroke-width="1.25" stroke-linecap="round" stroke-linejoin="round"/>
<path d="M11.6667 4.99935C10.7462 4.99935 10 5.55899 10 6.24935C10 6.93971 10.7462 7.49935 11.6667 7.49935C12.5872 7.49935 13.3333 8.05899 13.3333 8.74935C13.3333 9.43968 12.5872 9.99935 11.6667 9.99935M11.6667 4.99935C12.3923 4.99935 13.0097 5.34718 13.2385 5.83268M11.6667 4.99935V4.16602M11.6667 9.99935C10.941 9.99935 10.3237 9.65152 10.0948 9.16602M11.6667 9.99935V10.8327" stroke="#4A5565" stroke-width="1.25" stroke-linecap="round"/>
<path d="M2.5 11.666H4.49568C4.74081 11.666 4.98257 11.7213 5.20181 11.8273L6.90346 12.6507C7.1227 12.7568 7.36446 12.8119 7.60958 12.8119H8.47842C9.31875 12.8119 10 13.4712 10 14.2843C10 14.3172 9.9775 14.3461 9.94483 14.3551L7.82739 14.9406C7.44756 15.0456 7.04083 15.009 6.6875 14.838L4.86843 13.9579M10 13.7493L13.8273 12.5734C14.5058 12.362 15.2392 12.6127 15.6642 13.2013C15.9716 13.6268 15.8464 14.2362 15.3987 14.4945L9.13575 18.1081C8.73742 18.3379 8.26745 18.394 7.8293 18.264L2.5 16.6826" stroke="#4A5565" stroke-width="1.25" stroke-linecap="round" stroke-linejoin="round"/>
</svg>
