<svg width="20" height="20" viewBox="0 0 20 20" fill="none" xmlns="http://www.w3.org/2000/svg">
<path d="M15.5907 2.91213C14.0137 2.12753 12.0841 1.66602 10 1.66602C7.91592 1.66602 5.98625 2.12753 4.4093 2.91214C3.63598 3.2969 3.24932 3.48928 2.87467 4.09417C2.5 4.69907 2.5 5.28475 2.5 6.45613V9.36358C2.5 14.0997 6.2853 16.733 8.4775 17.8608C9.08892 18.1754 9.39458 18.3327 10 18.3327C10.6054 18.3327 10.9111 18.1754 11.5224 17.8608C13.7147 16.733 17.5 14.0997 17.5 9.36358V6.45614C17.5 5.28476 17.5 4.69907 17.1253 4.09417C16.7507 3.48928 16.364 3.2969 15.5907 2.91213Z" stroke="#4A5565" stroke-width="1.5" stroke-linecap="round" stroke-linejoin="round"/>
<path d="M9.99935 7.50065V8.33397M9.16602 7.91732C9.16602 8.13833 9.25385 8.3503 9.4101 8.50655C9.56635 8.66288 9.77835 8.75063 9.99935 8.75063C10.2203 8.75063 10.4323 8.66288 10.5886 8.50655C10.7448 8.3503 10.8327 8.13833 10.8327 7.91732C10.8327 7.69631 10.7448 7.48434 10.5886 7.32807C10.4323 7.17178 10.2203 7.08398 9.99935 7.08398C9.77835 7.08398 9.56635 7.17178 9.4101 7.32807C9.25385 7.48434 9.16602 7.69631 9.16602 7.91732Z" stroke="#4A5565" stroke-width="1.5" stroke-linecap="round" stroke-linejoin="round"/>
<path d="M10.625 11.6667H9.375L10 8.75L10.625 11.6667Z" stroke="#4A5565" stroke-width="1.5" stroke-linecap="round" stroke-linejoin="round"/>
</svg>
