<svg width="24" height="24" viewBox="0 0 24 24" fill="none" xmlns="http://www.w3.org/2000/svg">
<path d="M20.5603 17.7683C20.5208 18.0304 20.421 18.2798 20.2689 18.4968C20.1174 18.7101 19.9169 18.8838 19.6841 19.0031C19.4514 19.1225 19.1933 19.184 18.9317 19.1825H17.5166C17.4159 19.1822 17.3168 19.158 17.2274 19.1118C17.1379 19.0656 17.0608 18.9988 17.0023 18.9168C16.9431 18.835 16.9038 18.7405 16.8875 18.6408C16.8711 18.5411 16.8781 18.439 16.908 18.3425C17.2252 17.3311 17.1566 16.1911 14.2843 14.3654C14.1673 14.2887 14.0776 14.1768 14.0283 14.0459C13.979 13.9149 13.9726 13.7717 14.01 13.6368C14.0502 13.504 14.1317 13.3875 14.2427 13.3042C14.3537 13.221 14.4884 13.1753 14.6272 13.174C15.8531 13.1907 17.0495 13.5525 18.0792 14.2181C19.1089 14.8836 19.9302 15.8259 20.4489 16.9368C20.5543 17.2005 20.5926 17.4862 20.5603 17.7683ZM18.4166 8.31397C18.4143 9.31822 18.0143 10.2807 17.3041 10.9907C16.5939 11.7007 15.6314 12.1005 14.6272 12.1025C14.5147 12.1005 14.4046 12.0694 14.3077 12.0121C14.2108 11.9549 14.1304 11.8736 14.0743 11.776C14.0182 11.6785 13.9883 11.5681 13.9876 11.4556C13.9868 11.343 14.0152 11.2323 14.07 11.134C14.5946 10.2948 14.8727 9.32505 14.8727 8.3354C14.8727 7.34576 14.5946 6.37603 14.07 5.53683C14.0028 5.44076 13.9631 5.32812 13.9553 5.21112C13.9475 5.09412 13.9718 4.9772 14.0256 4.87304C14.0795 4.76887 14.1608 4.68141 14.2608 4.62014C14.3608 4.55886 14.4756 4.5261 14.5929 4.5254C15.0947 4.52412 15.5915 4.62534 16.0528 4.82284C16.5142 5.02034 16.9303 5.30997 17.2757 5.67397C17.9808 6.38593 18.3782 7.34626 18.3823 8.34826L18.4166 8.31397Z" fill="black"/>
<path d="M16.0071 17.743C16.0418 18.1626 15.9592 18.5836 15.7685 18.959C15.5778 19.3343 15.2865 19.6493 14.9271 19.8687C14.5689 20.089 14.1557 20.2047 13.7357 20.203H5.70172C5.28117 20.2049 4.86848 20.0891 4.51029 19.8687C4.15013 19.6506 3.85853 19.3357 3.66878 18.9598C3.47903 18.5839 3.39876 18.1623 3.43715 17.743C3.46824 17.3246 3.6168 16.9236 3.86572 16.5859C4.54913 15.6766 5.42934 14.9337 6.44047 14.4127C7.4516 13.8916 8.56747 13.6061 9.70458 13.5773C10.8456 13.6 11.9665 13.8818 12.9825 14.4016C13.9986 14.9213 14.8831 15.6653 15.5691 16.5773C15.8186 16.9186 15.9706 17.3218 16.0071 17.743ZM13.9243 7.98873C13.922 9.10303 13.4788 10.1711 12.6916 10.9597C11.9043 11.7483 10.8369 12.1932 9.72258 12.1973C9.10216 12.1958 8.48977 12.0569 7.92939 11.7906C7.369 11.5244 6.87452 11.1373 6.48144 10.6573C6.08837 10.1773 5.80645 9.61622 5.65593 9.01433C5.50541 8.41244 5.49002 7.7847 5.61086 7.17616C5.73222 6.56747 5.98698 5.99324 6.3568 5.49478C6.72663 4.99633 7.20234 4.58603 7.7497 4.29342C8.29706 4.0008 8.90248 3.83314 9.52239 3.80249C10.1423 3.77184 10.7613 3.87896 11.3349 4.11616C12.1019 4.43286 12.758 4.9697 13.2202 5.65893C13.6824 6.34815 13.9301 7.15886 13.932 7.98873H13.9243Z" fill="black"/>
</svg>
